<svg width="800" height="400" viewBox="0 0 800 400" xmlns="http://www.w3.org/2000/svg"><mask id="satori_om-id"><rect x="0" y="0" width="800" height="400" fill="#fff"/></mask><rect x="0" y="0" width="800" height="400" fill="none"/><clipPath id="satori_bct-id-0"><path d="M87.3 113.5L76.3 147.2L66.4 147.2L81.5 103.5L93.4 103.5L108.4 147.2L98.5 147.2L87.6 113.5L87.3 113.5ZM75.7 137.2L75.7 130.0L99.0 130.0L99.0 137.2L75.7 137.2Z M162.1 118.8L162.1 118.8L152.7 118.8Q152.5 117.0 151.7 115.6Q150.9 114.2 149.7 113.2Q148.4 112.2 146.8 111.6Q145.2 111.1 143.4 111.1L143.4 111.1Q140.0 111.1 137.4 112.8Q134.9 114.4 133.5 117.6Q132.2 120.8 132.2 125.3L132.2 125.3Q132.2 130.0 133.6 133.2Q135.0 136.4 137.5 138.0Q140.0 139.6 143.3 139.6L143.3 139.6Q145.1 139.6 146.7 139.1Q148.3 138.6 149.6 137.7Q150.8 136.7 151.6 135.4Q152.4 134.0 152.7 132.2L152.7 132.2L162.1 132.3Q161.7 135.3 160.3 138.1Q158.8 140.9 156.4 143.0Q154.0 145.2 150.7 146.5Q147.3 147.8 143.1 147.8L143.1 147.8Q137.3 147.8 132.7 145.1Q128.1 142.5 125.5 137.5Q122.8 132.5 122.8 125.3L122.8 125.3Q122.8 118.2 125.5 113.2Q128.2 108.2 132.8 105.6Q137.4 102.9 143.1 102.9L143.1 102.9Q146.9 102.9 150.2 104.0Q153.4 105.1 155.9 107.1Q158.5 109.1 160.0 112.1Q161.6 115.0 162.1 118.8ZM181.3 147.8L181.3 147.8Q176.4 147.8 172.7 145.7Q169.1 143.6 167.2 139.8Q165.2 136.0 165.2 130.9L165.2 130.9Q165.2 125.9 167.2 122.1Q169.1 118.2 172.7 116.1Q176.4 114.0 181.3 114.0L181.3 114.0Q186.3 114.0 189.9 116.1Q193.5 118.2 195.5 122.1Q197.4 125.9 197.4 130.9L197.4 130.9Q197.4 136.0 195.5 139.8Q193.5 143.6 189.9 145.7Q186.3 147.8 181.3 147.8ZM181.4 140.8L181.4 140.8Q183.6 140.8 185.1 139.5Q186.6 138.2 187.4 136.0Q188.2 133.7 188.2 130.9L188.2 130.9Q188.2 128.0 187.4 125.8Q186.6 123.5 185.1 122.2Q183.6 120.9 181.4 120.9L181.4 120.9Q179.1 120.9 177.5 122.2Q176.0 123.5 175.2 125.8Q174.4 128.0 174.4 130.9L174.4 130.9Q174.4 133.7 175.2 136.0Q176.0 138.2 177.5 139.5Q179.1 140.8 181.4 140.8ZM210.4 147.2L201.4 147.2L201.4 114.4L210.0 114.4L210.0 120.2L210.4 120.2Q211.4 117.3 213.8 115.7Q216.2 114.0 219.5 114.0L219.5 114.0Q222.9 114.0 225.2 115.7Q227.6 117.4 228.4 120.2L228.4 120.2L228.7 120.2Q229.7 117.4 232.4 115.7Q235.0 114.0 238.6 114.0L238.6 114.0Q243.2 114.0 246.0 116.9Q248.9 119.8 248.9 125.2L248.9 125.2L248.9 147.2L239.9 147.2L239.9 126.9Q239.9 124.2 238.4 122.8Q237.0 121.5 234.8 121.5L234.8 121.5Q232.3 121.5 230.9 123.1Q229.5 124.6 229.5 127.2L229.5 127.2L229.5 147.2L220.7 147.2L220.7 126.7Q220.7 124.3 219.4 122.9Q218.0 121.5 215.8 121.5L215.8 121.5Q214.2 121.5 213.0 122.2Q211.8 123.0 211.1 124.4Q210.4 125.7 210.4 127.5L210.4 127.5L210.4 147.2ZM263.1 159.4L254.1 159.4L254.1 114.4L263.0 114.4L263.0 119.9L263.4 119.9Q264.0 118.6 265.2 117.2Q266.3 115.9 268.1 114.9Q270.0 114.0 272.7 114.0L272.7 114.0Q276.3 114.0 279.3 115.9Q282.4 117.7 284.2 121.5Q286.0 125.2 286.0 130.8L286.0 130.8Q286.0 136.3 284.2 140.1Q282.5 143.8 279.5 145.8Q276.4 147.7 272.7 147.7L272.7 147.7Q270.1 147.7 268.2 146.8Q266.4 145.9 265.2 144.6Q264.0 143.3 263.4 141.9L263.4 141.9L263.1 141.9L263.1 159.4ZM263.0 130.8L263.0 130.8Q263.0 133.7 263.8 135.9Q264.6 138.1 266.1 139.3Q267.6 140.5 269.8 140.5L269.8 140.5Q272.1 140.5 273.6 139.2Q275.1 138.0 275.9 135.8Q276.7 133.7 276.7 130.8L276.7 130.8Q276.7 128.0 275.9 125.8Q275.1 123.7 273.6 122.4Q272.1 121.2 269.8 121.2L269.8 121.2Q267.6 121.2 266.1 122.4Q264.6 123.6 263.8 125.7Q263.0 127.9 263.0 130.8ZM299.1 147.2L290.0 147.2L290.0 114.4L298.8 114.4L298.8 120.1L299.2 120.1Q300.1 117.1 302.2 115.5Q304.3 114.0 307.0 114.0L307.0 114.0Q307.7 114.0 308.5 114.0Q309.3 114.1 309.9 114.3L309.9 114.3L309.9 122.3Q309.2 122.1 308.1 122.0Q307.0 121.8 306.0 121.8L306.0 121.8Q304.0 121.8 302.5 122.7Q300.9 123.6 300.0 125.1Q299.1 126.6 299.1 128.6L299.1 128.6L299.1 147.2ZM325.9 147.8L325.9 147.8Q320.9 147.8 317.2 145.7Q313.6 143.7 311.6 139.9Q309.7 136.1 309.7 130.9L309.7 130.9Q309.7 125.9 311.6 122.1Q313.6 118.3 317.2 116.1Q320.7 114.0 325.6 114.0L325.6 114.0Q328.8 114.0 331.6 115.0Q334.4 116.1 336.5 118.1Q338.6 120.2 339.8 123.3Q340.9 126.5 340.9 130.6L340.9 130.6L340.9 133.1L313.3 133.1L313.3 127.5L332.4 127.5Q332.4 125.5 331.5 124.0Q330.7 122.5 329.2 121.6Q327.7 120.8 325.7 120.8L325.7 120.8Q323.6 120.8 322.1 121.7Q320.5 122.7 319.6 124.3Q318.7 125.9 318.7 127.8L318.7 127.8L318.7 133.1Q318.7 135.6 319.6 137.3Q320.5 139.1 322.1 140.1Q323.8 141.0 326.1 141.0L326.1 141.0Q327.6 141.0 328.8 140.6Q330.1 140.2 331.0 139.3Q331.9 138.5 332.4 137.2L332.4 137.2L340.8 137.8Q340.1 140.8 338.1 143.1Q336.2 145.3 333.1 146.6Q330.0 147.8 325.9 147.8ZM353.9 128.2L353.9 128.2L353.9 147.2L344.9 147.2L344.9 103.5L353.7 103.5L353.7 120.2L354.1 120.2Q355.2 117.3 357.7 115.7Q360.1 114.0 363.9 114.0L363.9 114.0Q367.3 114.0 369.8 115.5Q372.4 117.0 373.8 119.7Q375.2 122.5 375.2 126.3L375.2 126.3L375.2 147.2L366.1 147.2L366.1 127.9Q366.1 124.9 364.6 123.2Q363.0 121.5 360.3 121.5L360.3 121.5Q358.4 121.5 357.0 122.3Q355.6 123.1 354.8 124.6Q354.0 126.1 353.9 128.2ZM395.2 147.8L395.2 147.8Q390.2 147.8 386.6 145.7Q382.9 143.7 381.0 139.9Q379.0 136.1 379.0 130.9L379.0 130.9Q379.0 125.9 381.0 122.1Q382.9 118.3 386.5 116.1Q390.1 114.0 394.9 114.0L394.9 114.0Q398.1 114.0 400.9 115.0Q403.7 116.1 405.8 118.1Q407.9 120.2 409.1 123.3Q410.3 126.5 410.3 130.6L410.3 130.6L410.3 133.1L382.6 133.1L382.6 127.5L401.7 127.5Q401.7 125.5 400.9 124.0Q400.0 122.5 398.5 121.6Q397.0 120.8 395.0 120.8L395.0 120.8Q393.0 120.8 391.4 121.7Q389.8 122.7 388.9 124.3Q388.0 125.9 388.0 127.8L388.0 127.8L388.0 133.1Q388.0 135.6 388.9 137.3Q389.8 139.1 391.4 140.1Q393.1 141.0 395.4 141.0L395.4 141.0Q396.9 141.0 398.2 140.6Q399.4 140.2 400.3 139.3Q401.2 138.5 401.7 137.2L401.7 137.2L410.1 137.8Q409.4 140.8 407.5 143.1Q405.5 145.3 402.4 146.6Q399.3 147.8 395.2 147.8ZM423.3 128.2L423.3 128.2L423.3 147.2L414.2 147.2L414.2 114.4L422.8 114.4L422.8 120.2L423.2 120.2Q424.3 117.4 426.9 115.7Q429.4 114.0 433.1 114.0L433.1 114.0Q436.5 114.0 439.0 115.5Q441.5 117.0 442.9 119.7Q444.4 122.5 444.4 126.3L444.4 126.3L444.4 147.2L435.3 147.2L435.3 127.9Q435.3 124.9 433.7 123.2Q432.2 121.5 429.5 121.5L429.5 121.5Q427.6 121.5 426.2 122.3Q424.8 123.1 424.1 124.6Q423.3 126.1 423.3 128.2ZM476.7 123.8L476.7 123.8L468.4 124.3Q468.2 123.2 467.5 122.3Q466.8 121.5 465.7 121.0Q464.5 120.4 462.9 120.4L462.9 120.4Q460.8 120.4 459.4 121.3Q457.9 122.2 457.9 123.7L457.9 123.7Q457.9 124.9 458.9 125.7Q459.8 126.5 462.1 127.0L462.1 127.0L468.0 128.2Q472.8 129.1 475.1 131.3Q477.5 133.5 477.5 137.0L477.5 137.0Q477.5 140.2 475.6 142.7Q473.7 145.1 470.4 146.4Q467.2 147.8 462.9 147.8L462.9 147.8Q456.4 147.8 452.5 145.1Q448.7 142.4 448.0 137.7L448.0 137.7L457.0 137.2Q457.4 139.2 458.9 140.2Q460.5 141.3 462.9 141.3L462.9 141.3Q465.3 141.3 466.8 140.3Q468.2 139.4 468.2 137.9L468.2 137.9Q468.2 136.7 467.2 135.9Q466.2 135.1 464.0 134.7L464.0 134.7L458.4 133.5Q453.6 132.6 451.2 130.2Q448.9 127.9 448.9 124.2L448.9 124.2Q448.9 121.0 450.6 118.8Q452.3 116.5 455.5 115.2Q458.6 114.0 462.8 114.0L462.8 114.0Q469.0 114.0 472.6 116.6Q476.1 119.2 476.7 123.8ZM490.3 147.2L481.2 147.2L481.2 114.4L490.3 114.4L490.3 147.2ZM485.8 110.2L485.8 110.2Q483.7 110.2 482.3 108.9Q480.9 107.5 480.9 105.6L480.9 105.6Q480.9 103.7 482.3 102.4Q483.7 101.0 485.8 101.0L485.8 101.0Q487.8 101.0 489.2 102.4Q490.7 103.7 490.7 105.6L490.7 105.6Q490.7 107.5 489.2 108.9Q487.8 110.2 485.8 110.2ZM516.4 114.4L526.0 114.4L514.6 147.2L504.4 147.2L492.9 114.4L502.5 114.4L509.3 137.8L509.6 137.8L516.4 114.4ZM542.5 147.8L542.5 147.8Q537.5 147.8 533.8 145.7Q530.2 143.7 528.2 139.9Q526.3 136.1 526.3 130.9L526.3 130.9Q526.3 125.9 528.2 122.1Q530.2 118.3 533.8 116.1Q537.3 114.0 542.1 114.0L542.1 114.0Q545.4 114.0 548.2 115.0Q551.0 116.1 553.1 118.1Q555.2 120.2 556.4 123.3Q557.5 126.5 557.5 130.6L557.5 130.6L557.5 133.1L529.9 133.1L529.9 127.5L549.0 127.5Q549.0 125.5 548.1 124.0Q547.3 122.5 545.8 121.6Q544.3 120.8 542.3 120.8L542.3 120.8Q540.2 120.8 538.6 121.7Q537.0 122.7 536.2 124.3Q535.3 125.9 535.2 127.8L535.2 127.8L535.2 133.1Q535.2 135.6 536.1 137.3Q537.0 139.1 538.7 140.1Q540.4 141.0 542.7 141.0L542.7 141.0Q544.2 141.0 545.4 140.6Q546.7 140.2 547.6 139.3Q548.5 138.5 548.9 137.2L548.9 137.2L557.3 137.8Q556.7 140.8 554.7 143.1Q552.8 145.3 549.7 146.6Q546.6 147.8 542.5 147.8Z M614.5 117.6L605.1 117.6Q604.6 116.1 603.8 114.9Q603.0 113.7 601.9 112.8Q600.7 112.0 599.2 111.5Q597.7 111.1 595.9 111.1L595.9 111.1Q592.6 111.1 590.1 112.7Q587.6 114.4 586.1 117.6Q584.7 120.7 584.7 125.3L584.7 125.3Q584.7 129.9 586.1 133.1Q587.5 136.3 590.0 137.9Q592.6 139.6 596.0 139.6L596.0 139.6Q599.2 139.6 601.4 138.5Q603.6 137.4 604.8 135.3Q606.0 133.3 606.0 130.5L606.0 130.5L607.9 130.8L596.6 130.8L596.6 123.8L614.9 123.8L614.9 129.3Q614.9 135.1 612.4 139.2Q610.0 143.3 605.7 145.5Q601.5 147.8 596.0 147.8L596.0 147.8Q589.9 147.8 585.2 145.0Q580.6 142.3 578.0 137.3Q575.4 132.3 575.4 125.4L575.4 125.4Q575.4 120.1 576.9 115.9Q578.5 111.7 581.3 108.9Q584.1 106.0 587.8 104.4Q591.5 102.9 595.8 102.9L595.8 102.9Q599.5 102.9 602.7 104.0Q605.9 105.1 608.4 107.0Q610.9 109.0 612.4 111.7Q614.0 114.4 614.5 117.6L614.5 117.6ZM640.6 133.2L640.6 133.2L640.6 114.4L649.7 114.4L649.7 147.2L641.0 147.2L641.0 141.2L640.6 141.2Q639.5 144.1 637.0 145.8Q634.4 147.6 630.7 147.6L630.7 147.6Q627.4 147.6 624.9 146.1Q622.4 144.6 621.0 141.9Q619.6 139.1 619.6 135.3L619.6 135.3L619.6 114.4L628.7 114.4L628.7 133.7Q628.7 136.5 630.3 138.2Q631.8 139.9 634.4 139.9L634.4 139.9Q636.0 139.9 637.4 139.2Q638.9 138.4 639.7 136.9Q640.6 135.4 640.6 133.2ZM664.0 147.2L654.9 147.2L654.9 114.4L664.0 114.4L664.0 147.2ZM659.5 110.2L659.5 110.2Q657.5 110.2 656.0 108.9Q654.6 107.5 654.6 105.6L654.6 105.6Q654.6 103.7 656.0 102.4Q657.5 101.0 659.5 101.0L659.5 101.0Q661.5 101.0 663.0 102.4Q664.4 103.7 664.4 105.6L664.4 105.6Q664.4 107.5 663.0 108.9Q661.5 110.2 659.5 110.2ZM681.3 147.7L681.3 147.7Q677.6 147.7 674.6 145.8Q671.6 143.8 669.8 140.1Q668.0 136.3 668.0 130.8L668.0 130.8Q668.0 125.2 669.8 121.5Q671.7 117.7 674.7 115.9Q677.7 114.0 681.3 114.0L681.3 114.0Q684.0 114.0 685.9 114.9Q687.7 115.9 688.9 117.2Q690.0 118.6 690.6 119.9L690.6 119.9L690.9 119.9L690.9 103.5L699.9 103.5L699.9 147.2L691.0 147.2L691.0 141.9L690.6 141.9Q690.0 143.3 688.8 144.6Q687.6 145.9 685.8 146.8Q684.0 147.7 681.3 147.7ZM684.2 140.5L684.2 140.5Q686.4 140.5 687.9 139.3Q689.4 138.1 690.2 135.9Q691.1 133.7 691.1 130.8L691.1 130.8Q691.1 127.9 690.3 125.7Q689.5 123.6 687.9 122.4Q686.4 121.2 684.2 121.2L684.2 121.2Q682.0 121.2 680.4 122.4Q678.9 123.7 678.1 125.8Q677.3 128.0 677.3 130.8L677.3 130.8Q677.3 133.7 678.1 135.8Q678.9 138.0 680.4 139.2Q682.0 140.5 684.2 140.5ZM720.3 147.8L720.3 147.8Q715.2 147.8 711.6 145.7Q708.0 143.7 706.0 139.9Q704.0 136.1 704.0 130.9L704.0 130.9Q704.0 125.9 706.0 122.1Q708.0 118.3 711.5 116.1Q715.1 114.0 719.9 114.0L719.9 114.0Q723.2 114.0 726.0 115.0Q728.8 116.1 730.9 118.1Q733.0 120.2 734.1 123.3Q735.3 126.5 735.3 130.6L735.3 130.6L735.3 133.1L707.7 133.1L707.7 127.5L726.8 127.5Q726.8 125.5 725.9 124.0Q725.1 122.5 723.6 121.6Q722.1 120.8 720.1 120.8L720.1 120.8Q718.0 120.8 716.4 121.7Q714.8 122.7 713.9 124.3Q713.0 125.9 713.0 127.8L713.0 127.8L713.0 133.1Q713.0 135.6 713.9 137.3Q714.8 139.1 716.5 140.1Q718.2 141.0 720.4 141.0L720.4 141.0Q721.9 141.0 723.2 140.6Q724.5 140.2 725.4 139.3Q726.3 138.5 726.7 137.2L726.7 137.2L735.1 137.8Q734.5 140.8 732.5 143.1Q730.5 145.3 727.4 146.6Q724.3 147.8 720.3 147.8Z "/></clipPath><defs><pattern id="satori_pattern_id-0_0" x="0" y="0" width="1" height="1" patternUnits="objectBoundingBox"><linearGradient id="satori_biid-0_0" x1="0" y1="0" x2="1" y2="0"><stop offset="0%" stop-color="rgb(0,124,240)"/><stop offset="100%" stop-color="rgb(0,223,216)"/></linearGradient><rect x="0" y="0" width="670" height="73" fill="url(#satori_biid-0_0)"/></pattern></defs><mask id="satori_om-id-0"><rect x="65" y="91" width="670" height="73" fill="#fff"/></mask><rect x="65" y="91" width="670" height="73" fill="url(#satori_pattern_id-0_0)" clip-path="url(#satori_bct-id-0)"/><clipPath id="satori_bct-id-1"><path d="M201.3 187.4L221.0 187.4L221.0 194.3L201.3 194.3L201.3 187.4ZM205.8 211.3L205.8 179.6L214.9 179.6L214.9 210.1Q214.9 211.4 215.3 212.1Q215.6 212.7 216.3 213.0Q217.0 213.3 217.9 213.3L217.9 213.3Q218.6 213.3 219.2 213.2Q219.9 213.1 220.2 213.0L220.2 213.0L221.6 219.8Q220.9 220.0 219.7 220.3Q218.5 220.5 216.7 220.6L216.7 220.6Q213.4 220.7 211.0 219.7Q208.5 218.7 207.1 216.6Q205.8 214.5 205.8 211.3L205.8 211.3ZM239.4 220.8L239.4 220.8Q234.4 220.8 230.8 218.7Q227.2 216.6 225.2 212.8Q223.3 209.0 223.3 203.9L223.3 203.9Q223.3 198.9 225.2 195.1Q227.2 191.2 230.8 189.1Q234.4 187.0 239.4 187.0L239.4 187.0Q244.3 187.0 248.0 189.1Q251.6 191.2 253.5 195.1Q255.5 198.9 255.5 203.9L255.5 203.9Q255.5 209.0 253.5 212.8Q251.6 216.6 248.0 218.7Q244.3 220.8 239.4 220.8ZM239.4 213.8L239.4 213.8Q241.7 213.8 243.2 212.5Q244.7 211.2 245.5 209.0Q246.3 206.7 246.3 203.9L246.3 203.9Q246.3 201.0 245.5 198.8Q244.7 196.5 243.2 195.2Q241.7 193.9 239.4 193.9L239.4 193.9Q237.1 193.9 235.6 195.2Q234.1 196.5 233.3 198.8Q232.5 201.0 232.5 203.9L232.5 203.9Q232.5 206.7 233.3 209.0Q234.1 211.2 235.6 212.5Q237.1 213.8 239.4 213.8Z M299.8 220.2L271.8 220.2L271.8 176.5L281.1 176.5L281.1 212.6L299.8 212.6L299.8 220.2ZM318.6 220.8L318.6 220.8Q313.6 220.8 309.9 218.7Q306.3 216.7 304.4 212.9Q302.4 209.1 302.4 203.9L302.4 203.9Q302.4 198.9 304.4 195.1Q306.3 191.3 309.9 189.1Q313.4 187.0 318.3 187.0L318.3 187.0Q321.5 187.0 324.3 188.0Q327.1 189.1 329.2 191.1Q331.3 193.2 332.5 196.3Q333.6 199.5 333.6 203.6L333.6 203.6L333.6 206.1L306.0 206.1L306.0 200.5L325.1 200.5Q325.1 198.5 324.3 197.0Q323.4 195.5 321.9 194.6Q320.4 193.8 318.4 193.8L318.4 193.8Q316.3 193.8 314.8 194.7Q313.2 195.7 312.3 197.3Q311.4 198.9 311.4 200.8L311.4 200.8L311.4 206.1Q311.4 208.6 312.3 210.3Q313.2 212.1 314.8 213.1Q316.5 214.0 318.8 214.0L318.8 214.0Q320.3 214.0 321.5 213.6Q322.8 213.2 323.7 212.3Q324.6 211.5 325.1 210.2L325.1 210.2L333.5 210.8Q332.8 213.8 330.8 216.1Q328.9 218.3 325.8 219.6Q322.7 220.8 318.6 220.8ZM346.9 220.8L346.9 220.8Q343.8 220.8 341.3 219.7Q338.9 218.6 337.5 216.4Q336.0 214.3 336.0 211.0L336.0 211.0Q336.0 208.3 337.0 206.4Q338.0 204.6 339.8 203.5Q341.5 202.3 343.7 201.8Q345.9 201.2 348.3 200.9L348.3 200.9Q351.2 200.6 352.9 200.4Q354.7 200.1 355.5 199.6Q356.3 199.0 356.3 198.0L356.3 198.0L356.3 197.9Q356.3 195.8 355.0 194.7Q353.7 193.6 351.4 193.6L351.4 193.6Q348.9 193.6 347.5 194.7Q346.1 195.8 345.6 197.4L345.6 197.4L337.2 196.7Q337.8 193.7 339.7 191.6Q341.6 189.4 344.5 188.2Q347.5 187.0 351.4 187.0L351.4 187.0Q354.2 187.0 356.7 187.6Q359.2 188.3 361.1 189.6Q363.1 191.0 364.2 193.1Q365.3 195.2 365.3 198.1L365.3 198.1L365.3 220.2L356.7 220.2L356.7 215.6L356.5 215.6Q355.7 217.2 354.4 218.3Q353.0 219.5 351.2 220.1Q349.3 220.8 346.9 220.8ZM349.5 214.5L349.5 214.5Q351.5 214.5 353.0 213.7Q354.6 212.9 355.4 211.6Q356.3 210.2 356.3 208.5L356.3 208.5L356.3 205.0Q355.9 205.3 355.2 205.5Q354.4 205.7 353.5 205.9Q352.6 206.1 351.7 206.2Q350.8 206.4 350.0 206.5L350.0 206.5Q348.4 206.7 347.2 207.2Q346.0 207.7 345.4 208.6Q344.7 209.4 344.7 210.7L344.7 210.7Q344.7 212.6 346.1 213.5Q347.4 214.5 349.5 214.5ZM379.5 220.2L370.4 220.2L370.4 187.4L379.2 187.4L379.2 193.1L379.5 193.1Q380.4 190.1 382.5 188.5Q384.6 187.0 387.4 187.0L387.4 187.0Q388.1 187.0 388.9 187.0Q389.6 187.1 390.2 187.3L390.2 187.3L390.2 195.3Q389.6 195.1 388.5 195.0Q387.3 194.8 386.4 194.8L386.4 194.8Q384.4 194.8 382.8 195.7Q381.3 196.6 380.4 198.1Q379.5 199.6 379.5 201.6L379.5 201.6L379.5 220.2ZM402.0 201.2L402.0 201.2L402.0 220.2L392.9 220.2L392.9 187.4L401.6 187.4L401.6 193.2L401.9 193.2Q403.0 190.4 405.6 188.7Q408.1 187.0 411.8 187.0L411.8 187.0Q415.2 187.0 417.7 188.5Q420.3 190.0 421.7 192.7Q423.1 195.5 423.1 199.3L423.1 199.3L423.1 220.2L414.0 220.2L414.0 200.9Q414.0 197.9 412.5 196.2Q410.9 194.5 408.2 194.5L408.2 194.5Q406.4 194.5 405.0 195.3Q403.6 196.1 402.8 197.6Q402.0 199.1 402.0 201.2ZM437.3 220.2L428.2 220.2L428.2 187.4L437.3 187.4L437.3 220.2ZM432.8 183.2L432.8 183.2Q430.8 183.2 429.3 181.9Q427.9 180.5 427.9 178.6L427.9 178.6Q427.9 176.7 429.3 175.4Q430.8 174.0 432.8 174.0L432.8 174.0Q434.8 174.0 436.2 175.4Q437.7 176.7 437.7 178.6L437.7 178.6Q437.7 180.5 436.2 181.9Q434.8 183.2 432.8 183.2ZM451.6 201.2L451.6 201.2L451.6 220.2L442.5 220.2L442.5 187.4L451.2 187.4L451.2 193.2L451.6 193.2Q452.7 190.4 455.2 188.7Q457.8 187.0 461.4 187.0L461.4 187.0Q464.8 187.0 467.4 188.5Q469.9 190.0 471.3 192.7Q472.7 195.5 472.7 199.3L472.7 199.3L472.7 220.2L463.6 220.2L463.6 200.9Q463.7 197.9 462.1 196.2Q460.5 194.5 457.8 194.5L457.8 194.5Q456.0 194.5 454.6 195.3Q453.2 196.1 452.4 197.6Q451.6 199.1 451.6 201.2ZM492.6 233.1L492.6 233.1Q488.2 233.1 485.0 231.9Q481.9 230.7 480.0 228.6Q478.2 226.6 477.6 224.0L477.6 224.0L486.0 222.9Q486.4 223.8 487.2 224.7Q488.1 225.6 489.4 226.1Q490.8 226.6 492.8 226.6L492.8 226.6Q495.8 226.6 497.7 225.2Q499.6 223.7 499.6 220.4L499.6 220.4L499.6 214.4L499.2 214.4Q498.6 215.7 497.5 216.9Q496.3 218.2 494.4 218.9Q492.5 219.7 489.9 219.7L489.9 219.7Q486.2 219.7 483.2 218.0Q480.2 216.3 478.4 212.7Q476.6 209.2 476.6 203.7L476.6 203.7Q476.6 198.2 478.4 194.4Q480.3 190.7 483.3 188.9Q486.3 187.0 489.9 187.0L489.9 187.0Q492.6 187.0 494.5 187.9Q496.3 188.9 497.5 190.2Q498.6 191.6 499.2 192.9L499.2 192.9L499.6 192.9L499.6 187.4L508.6 187.4L508.6 220.5Q508.6 224.7 506.5 227.5Q504.5 230.3 500.9 231.7Q497.3 233.1 492.6 233.1ZM492.8 212.9L492.8 212.9Q495.0 212.9 496.5 211.8Q498.0 210.7 498.8 208.6Q499.7 206.6 499.7 203.7L499.7 203.7Q499.7 200.8 498.9 198.7Q498.0 196.6 496.5 195.4Q495.0 194.2 492.8 194.2L492.8 194.2Q490.5 194.2 489.0 195.4Q487.5 196.6 486.7 198.8Q485.9 200.9 485.9 203.7L485.9 203.7Q485.9 206.5 486.7 208.6Q487.5 210.6 489.0 211.8Q490.5 212.9 492.8 212.9Z M564.2 190.6L554.9 190.6Q554.4 189.1 553.6 187.9Q552.8 186.7 551.6 185.8Q550.5 185.0 549.0 184.5Q547.5 184.1 545.7 184.1L545.7 184.1Q542.4 184.1 539.8 185.7Q537.3 187.4 535.9 190.6Q534.5 193.7 534.5 198.3L534.5 198.3Q534.5 202.9 535.9 206.1Q537.3 209.3 539.8 210.9Q542.3 212.6 545.8 212.6L545.8 212.6Q548.9 212.6 551.2 211.5Q553.4 210.4 554.6 208.3Q555.8 206.3 555.8 203.5L555.8 203.5L557.6 203.8L546.4 203.8L546.4 196.8L564.6 196.8L564.6 202.3Q564.6 208.1 562.2 212.2Q559.8 216.3 555.5 218.5Q551.3 220.8 545.8 220.8L545.8 220.8Q539.6 220.8 535.0 218.0Q530.3 215.3 527.7 210.3Q525.2 205.3 525.2 198.4L525.2 198.4Q525.2 193.1 526.7 188.9Q528.2 184.7 531.0 181.9Q533.8 179.0 537.5 177.4Q541.2 175.9 545.6 175.9L545.6 175.9Q549.3 175.9 552.5 177.0Q555.7 178.1 558.1 180.0Q560.6 182.0 562.2 184.7Q563.8 187.4 564.2 190.6L564.2 190.6ZM584.2 220.8L584.2 220.8Q579.2 220.8 575.6 218.7Q572.0 216.6 570.0 212.8Q568.1 209.0 568.1 203.9L568.1 203.9Q568.1 198.9 570.0 195.1Q572.0 191.2 575.6 189.1Q579.2 187.0 584.2 187.0L584.2 187.0Q589.1 187.0 592.8 189.1Q596.4 191.2 598.3 195.1Q600.3 198.9 600.3 203.9L600.3 203.9Q600.3 209.0 598.3 212.8Q596.4 216.6 592.8 218.7Q589.1 220.8 584.2 220.8ZM584.2 213.8L584.2 213.8Q586.5 213.8 588.0 212.5Q589.5 211.2 590.3 209.0Q591.1 206.7 591.1 203.9L591.1 203.9Q591.1 201.0 590.3 198.8Q589.5 196.5 588.0 195.2Q586.5 193.9 584.2 193.9L584.2 193.9Q581.9 193.9 580.4 195.2Q578.9 196.5 578.1 198.8Q577.3 201.0 577.3 203.9L577.3 203.9Q577.3 206.7 578.1 209.0Q578.9 211.2 580.4 212.5Q581.9 213.8 584.2 213.8Z "/></clipPath><defs><pattern id="satori_pattern_id-1_0" x="0" y="0" width="1" height="1" patternUnits="objectBoundingBox"><linearGradient id="satori_biid-1_0" x1="0" y1="0" x2="1" y2="0"><stop offset="0%" stop-color="rgb(121,40,202)"/><stop offset="100%" stop-color="rgb(255,0,128)"/></linearGradient><rect x="0" y="0" width="400" height="72" fill="url(#satori_biid-1_0)"/></pattern></defs><mask id="satori_om-id-1"><rect x="200" y="164" width="400" height="72" fill="#fff"/></mask><rect x="200" y="164" width="400" height="72" fill="url(#satori_pattern_id-1_0)" clip-path="url(#satori_bct-id-1)"/><clipPath id="satori_bct-id-2"><path d="M82.0 292.2L72.8 292.2L72.8 248.5L90.0 248.5Q95.0 248.5 98.5 250.4Q102.0 252.3 103.8 255.6Q105.6 259.0 105.6 263.3L105.6 263.3Q105.6 267.7 103.8 271.0Q101.9 274.3 98.4 276.2Q94.8 278.0 89.8 278.0L89.8 278.0L78.8 278.0L78.8 270.6L88.3 270.6Q90.9 270.6 92.7 269.7Q94.4 268.8 95.3 267.1Q96.1 265.5 96.1 263.3L96.1 263.3Q96.1 261.1 95.3 259.5Q94.4 257.9 92.7 257.0Q90.9 256.1 88.2 256.1L88.2 256.1L82.0 256.1L82.0 292.2ZM118.6 292.2L109.5 292.2L109.5 259.4L118.3 259.4L118.3 265.1L118.6 265.1Q119.5 262.1 121.6 260.5Q123.7 259.0 126.5 259.0L126.5 259.0Q127.2 259.0 128.0 259.0Q128.7 259.1 129.3 259.3L129.3 259.3L129.3 267.3Q128.7 267.1 127.6 267.0Q126.4 266.8 125.5 266.8L125.5 266.8Q123.5 266.8 121.9 267.7Q120.4 268.6 119.5 270.1Q118.6 271.6 118.6 273.6L118.6 273.6L118.6 292.2ZM145.3 292.8L145.3 292.8Q140.3 292.8 136.7 290.7Q133.1 288.6 131.1 284.8Q129.2 281.0 129.2 275.9L129.2 275.9Q129.2 270.9 131.1 267.1Q133.1 263.2 136.7 261.1Q140.3 259.0 145.3 259.0L145.3 259.0Q150.2 259.0 153.8 261.1Q157.5 263.2 159.4 267.1Q161.4 270.9 161.4 275.9L161.4 275.9Q161.4 281.0 159.4 284.8Q157.5 288.6 153.8 290.7Q150.2 292.8 145.3 292.8ZM145.3 285.8L145.3 285.8Q147.6 285.8 149.1 284.5Q150.6 283.2 151.4 281.0Q152.1 278.7 152.1 275.9L152.1 275.9Q152.1 273.0 151.4 270.8Q150.6 268.5 149.1 267.2Q147.6 265.9 145.3 265.9L145.3 265.9Q143.0 265.9 141.5 267.2Q139.9 268.5 139.2 270.8Q138.4 273.0 138.4 275.9L138.4 275.9Q138.4 278.7 139.2 281.0Q139.9 283.2 141.5 284.5Q143.0 285.8 145.3 285.8ZM180.0 305.1L180.0 305.1Q175.6 305.1 172.5 303.9Q169.3 302.7 167.5 300.6Q165.6 298.6 165.1 296.0L165.1 296.0L173.5 294.9Q173.9 295.8 174.7 296.7Q175.5 297.6 176.9 298.1Q178.3 298.6 180.3 298.6L180.3 298.6Q183.2 298.6 185.1 297.2Q187.1 295.7 187.1 292.4L187.1 292.4L187.1 286.4L186.7 286.4Q186.1 287.7 184.9 288.9Q183.7 290.2 181.8 290.9Q180.0 291.7 177.4 291.7L177.4 291.7Q173.7 291.7 170.7 290.0Q167.6 288.3 165.9 284.7Q164.1 281.2 164.1 275.7L164.1 275.7Q164.1 270.2 165.9 266.4Q167.7 262.7 170.7 260.9Q173.7 259.0 177.3 259.0L177.3 259.0Q180.1 259.0 181.9 259.9Q183.8 260.9 184.9 262.2Q186.1 263.6 186.7 264.9L186.7 264.9L187.0 264.9L187.0 259.4L196.0 259.4L196.0 292.5Q196.0 296.7 194.0 299.5Q191.9 302.3 188.3 303.7Q184.7 305.1 180.0 305.1ZM180.2 284.9L180.2 284.9Q182.4 284.9 183.9 283.8Q185.5 282.7 186.3 280.6Q187.1 278.6 187.1 275.7L187.1 275.7Q187.1 272.8 186.3 270.7Q185.5 268.6 184.0 267.4Q182.4 266.2 180.2 266.2L180.2 266.2Q178.0 266.2 176.5 267.4Q174.9 268.6 174.1 270.8Q173.3 272.9 173.3 275.7L173.3 275.7Q173.3 278.5 174.1 280.6Q174.9 282.6 176.5 283.8Q178.0 284.9 180.2 284.9ZM210.4 292.2L201.3 292.2L201.3 259.4L210.1 259.4L210.1 265.1L210.4 265.1Q211.3 262.1 213.4 260.5Q215.5 259.0 218.3 259.0L218.3 259.0Q219.0 259.0 219.8 259.0Q220.5 259.1 221.1 259.3L221.1 259.3L221.1 267.3Q220.5 267.1 219.4 267.0Q218.2 266.8 217.3 266.8L217.3 266.8Q215.3 266.8 213.7 267.7Q212.2 268.6 211.3 270.1Q210.4 271.6 210.4 273.6L210.4 273.6L210.4 292.2ZM232.2 292.8L232.2 292.8Q229.1 292.8 226.6 291.7Q224.2 290.6 222.8 288.4Q221.4 286.3 221.4 283.0L221.4 283.0Q221.4 280.3 222.4 278.4Q223.4 276.6 225.1 275.5Q226.8 274.3 229.0 273.8Q231.2 273.2 233.7 272.9L233.7 272.9Q236.5 272.6 238.3 272.4Q240.0 272.1 240.8 271.6Q241.6 271.0 241.6 270.0L241.6 270.0L241.6 269.9Q241.6 267.8 240.3 266.7Q239.0 265.6 236.7 265.6L236.7 265.6Q234.3 265.6 232.8 266.7Q231.4 267.8 230.9 269.4L230.9 269.4L222.5 268.7Q223.1 265.7 225.0 263.6Q226.9 261.4 229.9 260.2Q232.8 259.0 236.8 259.0L236.8 259.0Q239.5 259.0 242.0 259.6Q244.5 260.3 246.4 261.6Q248.4 263.0 249.5 265.1Q250.7 267.2 250.7 270.1L250.7 270.1L250.7 292.2L242.0 292.2L242.0 287.6L241.8 287.6Q241.0 289.2 239.7 290.3Q238.4 291.5 236.5 292.1Q234.7 292.8 232.2 292.8ZM234.8 286.5L234.8 286.5Q236.8 286.5 238.4 285.7Q239.9 284.9 240.8 283.6Q241.6 282.2 241.6 280.5L241.6 280.5L241.6 277.0Q241.2 277.3 240.5 277.5Q239.7 277.7 238.8 277.9Q237.9 278.1 237.0 278.2Q236.1 278.4 235.3 278.5L235.3 278.5Q233.7 278.7 232.5 279.2Q231.4 279.7 230.7 280.6Q230.0 281.4 230.0 282.7L230.0 282.7Q230.0 284.6 231.4 285.5Q232.7 286.5 234.8 286.5ZM264.8 292.2L255.7 292.2L255.7 259.4L264.4 259.4L264.4 265.2L264.7 265.2Q265.8 262.3 268.2 260.7Q270.5 259.0 273.9 259.0L273.9 259.0Q277.2 259.0 279.6 260.7Q282.0 262.4 282.7 265.2L282.7 265.2L283.1 265.2Q284.1 262.4 286.7 260.7Q289.4 259.0 293.0 259.0L293.0 259.0Q297.5 259.0 300.4 261.9Q303.3 264.8 303.3 270.2L303.3 270.2L303.3 292.2L294.2 292.2L294.2 271.9Q294.2 269.2 292.8 267.8Q291.3 266.5 289.1 266.5L289.1 266.5Q286.7 266.5 285.3 268.1Q283.9 269.6 283.9 272.2L283.9 272.2L283.9 292.2L275.1 292.2L275.1 271.7Q275.1 269.3 273.7 267.9Q272.3 266.5 270.1 266.5L270.1 266.5Q268.6 266.5 267.4 267.2Q266.2 268.0 265.5 269.4Q264.8 270.7 264.8 272.5L264.8 272.5L264.8 292.2ZM317.5 292.2L308.4 292.2L308.4 259.4L317.1 259.4L317.1 265.2L317.5 265.2Q318.5 262.3 320.9 260.7Q323.3 259.0 326.6 259.0L326.6 259.0Q329.9 259.0 332.3 260.7Q334.7 262.4 335.5 265.2L335.5 265.2L335.8 265.2Q336.8 262.4 339.4 260.7Q342.1 259.0 345.7 259.0L345.7 259.0Q350.2 259.0 353.1 261.9Q356.0 264.8 356.0 270.2L356.0 270.2L356.0 292.2L346.9 292.2L346.9 271.9Q346.9 269.2 345.5 267.8Q344.0 266.5 341.9 266.5L341.9 266.5Q339.4 266.5 338.0 268.1Q336.6 269.6 336.6 272.2L336.6 272.2L336.6 292.2L327.8 292.2L327.8 271.7Q327.8 269.3 326.4 267.9Q325.1 266.5 322.8 266.5L322.8 266.5Q321.3 266.5 320.1 267.2Q318.9 268.0 318.2 269.4Q317.5 270.7 317.5 272.5L317.5 272.5L317.5 292.2ZM370.2 292.2L361.1 292.2L361.1 259.4L370.2 259.4L370.2 292.2ZM365.7 255.2L365.7 255.2Q363.7 255.2 362.2 253.9Q360.8 252.5 360.8 250.6L360.8 250.6Q360.8 248.7 362.2 247.4Q363.7 246.0 365.7 246.0L365.7 246.0Q367.7 246.0 369.2 247.4Q370.6 248.7 370.6 250.6L370.6 250.6Q370.6 252.5 369.2 253.9Q367.7 255.2 365.7 255.2ZM384.5 273.2L384.5 273.2L384.5 292.2L375.5 292.2L375.5 259.4L384.1 259.4L384.1 265.2L384.5 265.2Q385.6 262.4 388.1 260.7Q390.7 259.0 394.3 259.0L394.3 259.0Q397.7 259.0 400.3 260.5Q402.8 262.0 404.2 264.7Q405.6 267.5 405.6 271.3L405.6 271.3L405.6 292.2L396.6 292.2L396.6 272.9Q396.6 269.9 395.0 268.2Q393.5 266.5 390.7 266.5L390.7 266.5Q388.9 266.5 387.5 267.3Q386.1 268.1 385.3 269.6Q384.6 271.1 384.5 273.2ZM425.5 305.1L425.5 305.1Q421.1 305.1 418.0 303.9Q414.8 302.7 413.0 300.6Q411.1 298.6 410.6 296.0L410.6 296.0L419.0 294.9Q419.3 295.8 420.2 296.7Q421.0 297.6 422.4 298.1Q423.7 298.6 425.7 298.6L425.7 298.6Q428.7 298.6 430.6 297.2Q432.5 295.7 432.5 292.4L432.5 292.4L432.5 286.4L432.2 286.4Q431.6 287.7 430.4 288.9Q429.2 290.2 427.3 290.9Q425.4 291.7 422.8 291.7L422.8 291.7Q419.1 291.7 416.1 290.0Q413.1 288.3 411.3 284.7Q409.6 281.2 409.6 275.7L409.6 275.7Q409.6 270.2 411.4 266.4Q413.2 262.7 416.2 260.9Q419.2 259.0 422.8 259.0L422.8 259.0Q425.6 259.0 427.4 259.9Q429.3 260.9 430.4 262.2Q431.5 263.6 432.2 264.9L432.2 264.9L432.5 264.9L432.5 259.4L441.5 259.4L441.5 292.5Q441.5 296.7 439.5 299.5Q437.4 302.3 433.8 303.7Q430.2 305.1 425.5 305.1ZM425.7 284.9L425.7 284.9Q427.9 284.9 429.4 283.8Q430.9 282.7 431.8 280.6Q432.6 278.6 432.6 275.7L432.6 275.7Q432.6 272.8 431.8 270.7Q431.0 268.6 429.4 267.4Q427.9 266.2 425.7 266.2L425.7 266.2Q423.5 266.2 421.9 267.4Q420.4 268.6 419.6 270.8Q418.8 272.9 418.8 275.7L418.8 275.7Q418.8 278.5 419.6 280.6Q420.4 282.6 421.9 283.8Q423.5 284.9 425.7 284.9Z M489.2 292.2L461.3 292.2L461.3 248.5L470.5 248.5L470.5 284.6L489.2 284.6L489.2 292.2ZM502.5 292.8L502.5 292.8Q499.4 292.8 496.9 291.7Q494.5 290.6 493.1 288.4Q491.6 286.3 491.6 283.0L491.6 283.0Q491.6 280.3 492.6 278.4Q493.6 276.6 495.4 275.5Q497.1 274.3 499.3 273.8Q501.5 273.2 503.9 272.9L503.9 272.9Q506.8 272.6 508.5 272.4Q510.3 272.1 511.1 271.6Q511.9 271.0 511.9 270.0L511.9 270.0L511.9 269.9Q511.9 267.8 510.6 266.7Q509.3 265.6 507.0 265.6L507.0 265.6Q504.5 265.6 503.1 266.7Q501.7 267.8 501.2 269.4L501.2 269.4L492.8 268.7Q493.4 265.7 495.3 263.6Q497.2 261.4 500.1 260.2Q503.1 259.0 507.0 259.0L507.0 259.0Q509.8 259.0 512.3 259.6Q514.8 260.3 516.7 261.6Q518.7 263.0 519.8 265.1Q520.9 267.2 520.9 270.1L520.9 270.1L520.9 292.2L512.3 292.2L512.3 287.6L512.1 287.6Q511.3 289.2 510.0 290.3Q508.6 291.5 506.8 292.1Q504.9 292.8 502.5 292.8ZM505.1 286.5L505.1 286.5Q507.1 286.5 508.6 285.7Q510.2 284.9 511.0 283.6Q511.9 282.2 511.9 280.5L511.9 280.5L511.9 277.0Q511.5 277.3 510.8 277.5Q510.0 277.7 509.1 277.9Q508.2 278.1 507.3 278.2Q506.4 278.4 505.6 278.5L505.6 278.5Q504.0 278.7 502.8 279.2Q501.6 279.7 501.0 280.6Q500.3 281.4 500.3 282.7L500.3 282.7Q500.3 284.6 501.7 285.5Q503.0 286.5 505.1 286.5ZM535.1 273.2L535.1 273.2L535.1 292.2L526.0 292.2L526.0 259.4L534.6 259.4L534.6 265.2L535.0 265.2Q536.1 262.4 538.7 260.7Q541.2 259.0 544.9 259.0L544.9 259.0Q548.3 259.0 550.8 260.5Q553.3 262.0 554.8 264.7Q556.2 267.5 556.2 271.3L556.2 271.3L556.2 292.2L547.1 292.2L547.1 272.9Q547.1 269.9 545.5 268.2Q544.0 266.5 541.3 266.5L541.3 266.5Q539.4 266.5 538.0 267.3Q536.6 268.1 535.9 269.6Q535.1 271.1 535.1 273.2ZM576.0 305.1L576.0 305.1Q571.6 305.1 568.5 303.9Q565.3 302.7 563.5 300.6Q561.6 298.6 561.1 296.0L561.1 296.0L569.5 294.9Q569.9 295.8 570.7 296.7Q571.5 297.6 572.9 298.1Q574.3 298.6 576.3 298.6L576.3 298.6Q579.2 298.6 581.1 297.2Q583.1 295.7 583.1 292.4L583.1 292.4L583.1 286.4L582.7 286.4Q582.1 287.7 580.9 288.9Q579.7 290.2 577.8 290.9Q576.0 291.7 573.4 291.7L573.4 291.7Q569.7 291.7 566.7 290.0Q563.6 288.3 561.9 284.7Q560.1 281.2 560.1 275.7L560.1 275.7Q560.1 270.2 561.9 266.4Q563.7 262.7 566.7 260.9Q569.7 259.0 573.3 259.0L573.3 259.0Q576.1 259.0 577.9 259.9Q579.8 260.9 580.9 262.2Q582.1 263.6 582.7 264.9L582.7 264.9L583.0 264.9L583.0 259.4L592.0 259.4L592.0 292.5Q592.0 296.7 590.0 299.5Q587.9 302.3 584.3 303.7Q580.7 305.1 576.0 305.1ZM576.2 284.9L576.2 284.9Q578.4 284.9 579.9 283.8Q581.5 282.7 582.3 280.6Q583.1 278.6 583.1 275.7L583.1 275.7Q583.1 272.8 582.3 270.7Q581.5 268.6 580.0 267.4Q578.4 266.2 576.2 266.2L576.2 266.2Q574.0 266.2 572.5 267.4Q570.9 268.6 570.1 270.8Q569.3 272.9 569.3 275.7L569.3 275.7Q569.3 278.5 570.1 280.6Q570.9 282.6 572.5 283.8Q574.0 284.9 576.2 284.9ZM618.3 278.2L618.3 278.2L618.3 259.4L627.3 259.4L627.3 292.2L618.6 292.2L618.6 286.2L618.3 286.2Q617.2 289.1 614.6 290.8Q612.0 292.6 608.4 292.6L608.4 292.6Q605.1 292.6 602.6 291.1Q600.1 289.6 598.7 286.9Q597.3 284.1 597.3 280.3L597.3 280.3L597.3 259.4L606.4 259.4L606.4 278.7Q606.4 281.5 607.9 283.2Q609.5 284.9 612.0 284.9L612.0 284.9Q613.7 284.9 615.1 284.2Q616.5 283.4 617.4 281.9Q618.3 280.4 618.3 278.2ZM641.9 292.8L641.9 292.8Q638.8 292.8 636.3 291.7Q633.9 290.6 632.5 288.4Q631.1 286.3 631.1 283.0L631.1 283.0Q631.1 280.3 632.1 278.4Q633.1 276.6 634.8 275.5Q636.5 274.3 638.7 273.8Q640.9 273.2 643.4 272.9L643.4 272.9Q646.2 272.6 648.0 272.4Q649.7 272.1 650.5 271.6Q651.3 271.0 651.3 270.0L651.3 270.0L651.3 269.9Q651.3 267.8 650.0 266.7Q648.7 265.6 646.4 265.6L646.4 265.6Q644.0 265.6 642.5 266.7Q641.1 267.8 640.6 269.4L640.6 269.4L632.2 268.7Q632.8 265.7 634.7 263.6Q636.6 261.4 639.6 260.2Q642.5 259.0 646.5 259.0L646.5 259.0Q649.2 259.0 651.7 259.6Q654.2 260.3 656.1 261.6Q658.1 263.0 659.2 265.1Q660.4 267.2 660.4 270.1L660.4 270.1L660.4 292.2L651.7 292.2L651.7 287.6L651.5 287.6Q650.7 289.2 649.4 290.3Q648.1 291.5 646.2 292.1Q644.4 292.8 641.9 292.8ZM644.5 286.5L644.5 286.5Q646.5 286.5 648.1 285.7Q649.6 284.9 650.5 283.6Q651.3 282.2 651.3 280.5L651.3 280.5L651.3 277.0Q650.9 277.3 650.2 277.5Q649.4 277.7 648.5 277.9Q647.6 278.1 646.7 278.2Q645.8 278.4 645.0 278.5L645.0 278.5Q643.4 278.7 642.2 279.2Q641.1 279.7 640.4 280.6Q639.7 281.4 639.7 282.7L639.7 282.7Q639.7 284.6 641.1 285.5Q642.4 286.5 644.5 286.5ZM680.2 305.1L680.2 305.1Q675.7 305.1 672.6 303.9Q669.5 302.7 667.6 300.6Q665.7 298.6 665.2 296.0L665.2 296.0L673.6 294.9Q674.0 295.8 674.8 296.7Q675.6 297.6 677.0 298.1Q678.4 298.6 680.4 298.6L680.4 298.6Q683.3 298.6 685.3 297.2Q687.2 295.7 687.2 292.4L687.2 292.4L687.2 286.4L686.8 286.4Q686.2 287.7 685.0 288.9Q683.8 290.2 681.9 290.9Q680.1 291.7 677.5 291.7L677.5 291.7Q673.8 291.7 670.8 290.0Q667.8 288.3 666.0 284.7Q664.2 281.2 664.2 275.7L664.2 275.7Q664.2 270.2 666.0 266.4Q667.8 262.7 670.8 260.9Q673.8 259.0 677.4 259.0L677.4 259.0Q680.2 259.0 682.0 259.9Q683.9 260.9 685.0 262.2Q686.2 263.6 686.8 264.9L686.8 264.9L687.1 264.9L687.1 259.4L696.2 259.4L696.2 292.5Q696.2 296.7 694.1 299.5Q692.1 302.3 688.5 303.7Q684.8 305.1 680.2 305.1ZM680.3 284.9L680.3 284.9Q682.5 284.9 684.1 283.8Q685.6 282.7 686.4 280.6Q687.2 278.6 687.2 275.7L687.2 275.7Q687.2 272.8 686.4 270.7Q685.6 268.6 684.1 267.4Q682.5 266.2 680.3 266.2L680.3 266.2Q678.1 266.2 676.6 267.4Q675.0 268.6 674.3 270.8Q673.5 272.9 673.5 275.7L673.5 275.7Q673.5 278.5 674.3 280.6Q675.1 282.6 676.6 283.8Q678.1 284.9 680.3 284.9ZM716.3 292.8L716.3 292.8Q711.3 292.8 707.6 290.7Q704.0 288.7 702.0 284.9Q700.1 281.1 700.1 275.9L700.1 275.9Q700.1 270.9 702.0 267.1Q704.0 263.3 707.6 261.1Q711.1 259.0 716.0 259.0L716.0 259.0Q719.2 259.0 722.0 260.0Q724.8 261.1 726.9 263.1Q729.0 265.2 730.2 268.3Q731.3 271.5 731.3 275.6L731.3 275.6L731.3 278.1L703.7 278.1L703.7 272.5L722.8 272.5Q722.8 270.5 721.9 269.0Q721.1 267.5 719.6 266.6Q718.1 265.8 716.1 265.8L716.1 265.8Q714.0 265.8 712.4 266.7Q710.9 267.7 710.0 269.3Q709.1 270.9 709.0 272.8L709.0 272.8L709.0 278.1Q709.0 280.6 710.0 282.3Q710.9 284.1 712.5 285.1Q714.2 286.0 716.5 286.0L716.5 286.0Q718.0 286.0 719.2 285.6Q720.5 285.2 721.4 284.3Q722.3 283.5 722.7 282.2L722.7 282.2L731.1 282.8Q730.5 285.8 728.5 288.1Q726.6 290.3 723.5 291.6Q720.4 292.8 716.3 292.8Z "/></clipPath><defs><pattern id="satori_pattern_id-2_0" x="0" y="0" width="1" height="1" patternUnits="objectBoundingBox"><linearGradient id="satori_biid-2_0" x1="0" y1="0" x2="1" y2="0"><stop offset="0%" stop-color="rgb(255,77,77)"/><stop offset="100%" stop-color="rgb(249,203,40)"/></linearGradient><rect x="0" y="0" width="662" height="73" fill="url(#satori_biid-2_0)"/></pattern></defs><mask id="satori_om-id-2"><rect x="69" y="236" width="662" height="73" fill="#fff"/></mask><rect x="69" y="236" width="662" height="73" fill="url(#satori_pattern_id-2_0)" clip-path="url(#satori_bct-id-2)"/></svg>