<svg width="800" height="400" viewBox="0 0 800 400" xmlns="http://www.w3.org/2000/svg"><mask id="satori_om-id"><rect x="0" y="0" width="800" height="400" fill="#fff"/></mask><rect x="0" y="0" width="800" height="400" fill="none"/><clipPath id="satori_bct-id-0"><path d="M231.1 117.6L221.7 117.6Q221.3 116.1 220.5 114.9Q219.7 113.7 218.5 112.8Q217.3 112.0 215.9 111.5Q214.4 111.1 212.6 111.1L212.6 111.1Q209.2 111.1 206.7 112.7Q204.2 114.4 202.8 117.6Q201.4 120.7 201.4 125.3L201.4 125.3Q201.4 129.9 202.8 133.1Q204.1 136.3 206.7 137.9Q209.2 139.6 212.7 139.6L212.7 139.6Q215.8 139.6 218.0 138.5Q220.3 137.4 221.4 135.3Q222.6 133.3 222.6 130.5L222.6 130.5L224.5 130.8L213.2 130.8L213.2 123.8L231.5 123.8L231.5 129.3Q231.5 135.1 229.1 139.2Q226.6 143.3 222.4 145.5Q218.1 147.8 212.6 147.8L212.6 147.8Q206.5 147.8 201.8 145.0Q197.2 142.3 194.6 137.3Q192.0 132.3 192.0 125.4L192.0 125.4Q192.0 120.1 193.6 115.9Q195.1 111.7 197.9 108.9Q200.7 106.0 204.4 104.4Q208.1 102.9 212.4 102.9L212.4 102.9Q216.1 102.9 219.3 104.0Q222.5 105.1 225.0 107.0Q227.5 109.0 229.1 111.7Q230.7 114.4 231.1 117.6L231.1 117.6ZM251.2 147.8L251.2 147.8Q246.1 147.8 242.5 145.7Q238.9 143.7 236.9 139.9Q234.9 136.1 234.9 130.9L234.9 130.9Q234.9 125.9 236.9 122.1Q238.9 118.3 242.4 116.1Q246.0 114.0 250.8 114.0L250.8 114.0Q254.1 114.0 256.9 115.0Q259.7 116.1 261.8 118.1Q263.9 120.2 265.0 123.3Q266.2 126.5 266.2 130.6L266.2 130.6L266.2 133.1L238.6 133.1L238.6 127.5L257.7 127.5Q257.7 125.5 256.8 124.0Q255.9 122.5 254.4 121.6Q252.9 120.8 251.0 120.8L251.0 120.8Q248.9 120.8 247.3 121.7Q245.7 122.7 244.8 124.3Q243.9 125.9 243.9 127.8L243.9 127.8L243.9 133.1Q243.9 135.6 244.8 137.3Q245.7 139.1 247.4 140.1Q249.0 141.0 251.3 141.0L251.3 141.0Q252.8 141.0 254.1 140.6Q255.4 140.2 256.2 139.3Q257.1 138.5 257.6 137.2L257.6 137.2L266.0 137.8Q265.4 140.8 263.4 143.1Q261.4 145.3 258.3 146.6Q255.2 147.8 251.2 147.8ZM267.8 114.4L287.5 114.4L287.5 121.3L267.8 121.3L267.8 114.4ZM272.3 138.3L272.3 106.6L281.4 106.6L281.4 137.1Q281.4 138.4 281.8 139.1Q282.1 139.7 282.8 140.0Q283.5 140.3 284.4 140.3L284.4 140.3Q285.1 140.3 285.7 140.2Q286.4 140.1 286.7 140.0L286.7 140.0L288.1 146.8Q287.4 147.0 286.2 147.3Q285.0 147.5 283.2 147.6L283.2 147.6Q279.9 147.7 277.5 146.7Q275 145.7 273.6 143.6Q272.3 141.5 272.3 138.3L272.3 138.3ZM289.1 114.4L308.8 114.4L308.8 121.3L289.1 121.3L289.1 114.4ZM293.6 138.3L293.6 106.6L302.7 106.6L302.7 137.1Q302.7 138.4 303.1 139.1Q303.4 139.7 304.1 140.0Q304.8 140.3 305.7 140.3L305.7 140.3Q306.4 140.3 307.0 140.2Q307.7 140.1 308.0 140.0L308.0 140.0L309.4 146.8Q308.8 147.0 307.5 147.3Q306.3 147.5 304.5 147.6L304.5 147.6Q301.2 147.7 298.8 146.7Q296.3 145.7 294.9 143.6Q293.6 141.5 293.6 138.3L293.6 138.3ZM321.8 147.2L312.7 147.2L312.7 114.4L321.8 114.4L321.8 147.2ZM317.3 110.2L317.3 110.2Q315.3 110.2 313.8 108.9Q312.4 107.5 312.4 105.6L312.4 105.6Q312.4 103.7 313.8 102.4Q315.3 101.0 317.3 101.0L317.3 101.0Q319.3 101.0 320.8 102.4Q322.2 103.7 322.2 105.6L322.2 105.6Q322.2 107.5 320.8 108.9Q319.3 110.2 317.3 110.2ZM336.1 128.2L336.1 128.2L336.1 147.2L327.1 147.2L327.1 114.4L335.7 114.4L335.7 120.2L336.1 120.2Q337.2 117.4 339.7 115.7Q342.3 114.0 345.9 114.0L345.9 114.0Q349.3 114.0 351.9 115.5Q354.4 117.0 355.8 119.7Q357.2 122.5 357.2 126.3L357.2 126.3L357.2 147.2L348.2 147.2L348.2 127.9Q348.2 124.9 346.6 123.2Q345.1 121.5 342.3 121.5L342.3 121.5Q340.5 121.5 339.1 122.3Q337.7 123.1 336.9 124.6Q336.2 126.1 336.1 128.2ZM377.1 160.1L377.1 160.1Q372.7 160.1 369.6 158.9Q366.4 157.7 364.6 155.6Q362.7 153.6 362.2 151.0L362.2 151.0L370.6 149.9Q370.9 150.8 371.8 151.7Q372.6 152.6 374.0 153.1Q375.3 153.6 377.3 153.6L377.3 153.6Q380.3 153.6 382.2 152.2Q384.1 150.7 384.1 147.4L384.1 147.4L384.1 141.4L383.8 141.4Q383.2 142.7 382.0 143.9Q380.8 145.2 378.9 145.9Q377.0 146.7 374.4 146.7L374.4 146.7Q370.7 146.7 367.7 145.0Q364.7 143.3 362.9 139.7Q361.2 136.2 361.2 130.7L361.2 130.7Q361.2 125.2 363.0 121.4Q364.8 117.7 367.8 115.9Q370.8 114.0 374.4 114.0L374.4 114.0Q377.2 114.0 379.0 114.9Q380.9 115.9 382.0 117.2Q383.1 118.6 383.8 119.9L383.8 119.9L384.1 119.9L384.1 114.4L393.1 114.4L393.1 147.5Q393.1 151.7 391.1 154.5Q389.0 157.3 385.4 158.7Q381.8 160.1 377.1 160.1ZM377.3 139.9L377.3 139.9Q379.5 139.9 381.0 138.8Q382.5 137.7 383.4 135.6Q384.2 133.6 384.2 130.7L384.2 130.7Q384.2 127.8 383.4 125.7Q382.6 123.6 381.0 122.4Q379.5 121.2 377.3 121.2L377.3 121.2Q375.1 121.2 373.5 122.4Q372.0 123.6 371.2 125.8Q370.4 127.9 370.4 130.7L370.4 130.7Q370.4 133.5 371.2 135.6Q372.0 137.6 373.5 138.8Q375.1 139.9 377.3 139.9Z M443.0 116.1L434.1 116.1Q433.9 113.5 431.9 112.1Q430.0 110.6 426.7 110.6L426.7 110.6Q424.4 110.6 422.8 111.3Q421.3 111.9 420.5 113.0Q419.6 114.1 419.6 115.5L419.6 115.5Q419.6 116.7 420.1 117.6Q420.7 118.4 421.7 119.1Q422.6 119.7 423.9 120.2Q425.1 120.6 426.6 120.9L426.6 120.9L430.5 121.9Q433.3 122.5 435.7 123.6Q438.1 124.6 439.8 126.2Q441.6 127.7 442.6 129.9Q443.5 132.0 443.6 134.7L443.6 134.7Q443.5 138.7 441.5 141.6Q439.5 144.6 435.7 146.2Q431.9 147.8 426.6 147.8L426.6 147.8Q421.3 147.8 417.4 146.2Q413.5 144.5 411.3 141.4Q409.1 138.2 409.0 133.5L409.0 133.5L418.0 133.5Q418.1 135.7 419.2 137.1Q420.4 138.6 422.2 139.3Q424.1 140.0 426.5 140.0L426.5 140.0Q428.9 140.0 430.6 139.4Q432.3 138.7 433.3 137.5Q434.2 136.3 434.2 134.7L434.2 134.7Q434.2 133.2 433.4 132.2Q432.5 131.2 430.9 130.5Q429.2 129.8 426.8 129.2L426.8 129.2L422.1 128.0Q416.6 126.7 413.4 123.8Q410.2 121.0 410.2 116.1L410.2 116.1Q410.2 112.2 412.3 109.2Q414.4 106.3 418.2 104.6Q421.9 102.9 426.7 102.9L426.7 102.9Q431.6 102.9 435.2 104.6Q438.8 106.3 440.9 109.2Q442.9 112.2 443.0 116.1L443.0 116.1ZM445.3 114.4L465.0 114.4L465.0 121.3L445.3 121.3L445.3 114.4ZM449.7 138.3L449.7 106.6L458.8 106.6L458.8 137.1Q458.8 138.4 459.2 139.1Q459.6 139.7 460.3 140.0Q461.0 140.3 461.9 140.3L461.9 140.3Q462.5 140.3 463.2 140.2Q463.8 140.1 464.1 140.0L464.1 140.0L465.6 146.8Q464.9 147.0 463.6 147.3Q462.4 147.5 460.6 147.6L460.6 147.6Q457.4 147.7 454.9 146.7Q452.4 145.7 451.1 143.6Q449.7 141.5 449.7 138.3L449.7 138.3ZM478.2 147.8L478.2 147.8Q475.1 147.8 472.6 146.7Q470.2 145.6 468.8 143.4Q467.3 141.3 467.3 138.0L467.3 138.0Q467.3 135.3 468.3 133.4Q469.3 131.6 471.1 130.5Q472.8 129.3 475.0 128.8Q477.2 128.2 479.6 127.9L479.6 127.9Q482.5 127.6 484.2 127.4Q486.0 127.1 486.8 126.6Q487.6 126.0 487.6 125.0L487.6 125.0L487.6 124.9Q487.6 122.8 486.3 121.7Q485.0 120.6 482.7 120.6L482.7 120.6Q480.3 120.6 478.8 121.7Q477.4 122.8 476.9 124.4L476.9 124.4L468.5 123.7Q469.1 120.7 471.0 118.6Q472.9 116.4 475.9 115.2Q478.8 114.0 482.7 114.0L482.7 114.0Q485.5 114.0 488.0 114.6Q490.5 115.3 492.4 116.6Q494.4 118.0 495.5 120.1Q496.6 122.2 496.6 125.1L496.6 125.1L496.6 147.2L488.0 147.2L488.0 142.6L487.8 142.6Q487.0 144.2 485.7 145.3Q484.3 146.5 482.5 147.1Q480.6 147.8 478.2 147.8ZM480.8 141.5L480.8 141.5Q482.8 141.5 484.3 140.7Q485.9 139.9 486.7 138.6Q487.6 137.2 487.6 135.5L487.6 135.5L487.6 132.0Q487.2 132.3 486.5 132.5Q485.7 132.7 484.8 132.9Q483.9 133.1 483.0 133.2Q482.1 133.4 481.3 133.5L481.3 133.5Q479.7 133.7 478.5 134.2Q477.3 134.7 476.7 135.6Q476.0 136.4 476.0 137.7L476.0 137.7Q476.0 139.6 477.4 140.5Q478.7 141.5 480.8 141.5ZM510.8 147.2L501.7 147.2L501.7 114.4L510.5 114.4L510.5 120.1L510.8 120.1Q511.7 117.1 513.8 115.5Q515.9 114.0 518.7 114.0L518.7 114.0Q519.4 114.0 520.2 114.0Q520.9 114.1 521.5 114.3L521.5 114.3L521.5 122.3Q520.9 122.1 519.8 122.0Q518.6 121.8 517.7 121.8L517.7 121.8Q515.7 121.8 514.1 122.7Q512.6 123.6 511.7 125.1Q510.8 126.6 510.8 128.6L510.8 128.6L510.8 147.2ZM523.6 114.4L543.3 114.4L543.3 121.3L523.6 121.3L523.6 114.4ZM528.0 138.3L528.0 106.6L537.1 106.6L537.1 137.1Q537.1 138.4 537.5 139.1Q537.9 139.7 538.6 140.0Q539.3 140.3 540.2 140.3L540.2 140.3Q540.8 140.3 541.4 140.2Q542.1 140.1 542.4 140.0L542.4 140.0L543.9 146.8Q543.2 147.0 541.9 147.3Q540.7 147.5 538.9 147.6L538.9 147.6Q535.7 147.7 533.2 146.7Q530.7 145.7 529.4 143.6Q528.0 141.5 528.0 138.3L528.0 138.3ZM561.7 147.8L561.7 147.8Q556.7 147.8 553.1 145.7Q549.4 143.7 547.5 139.9Q545.5 136.1 545.5 130.9L545.5 130.9Q545.5 125.9 547.5 122.1Q549.4 118.3 553.0 116.1Q556.6 114.0 561.4 114.0L561.4 114.0Q564.6 114.0 567.4 115.0Q570.2 116.1 572.3 118.1Q574.4 120.2 575.6 123.3Q576.8 126.5 576.8 130.6L576.8 130.6L576.8 133.1L549.1 133.1L549.1 127.5L568.2 127.5Q568.2 125.5 567.4 124.0Q566.5 122.5 565.0 121.6Q563.5 120.8 561.5 120.8L561.5 120.8Q559.5 120.8 557.9 121.7Q556.3 122.7 555.4 124.3Q554.5 125.9 554.5 127.8L554.5 127.8L554.5 133.1Q554.5 135.6 555.4 137.3Q556.3 139.1 557.9 140.1Q559.6 141.0 561.9 141.0L561.9 141.0Q563.4 141.0 564.7 140.6Q565.9 140.2 566.8 139.3Q567.7 138.5 568.2 137.2L568.2 137.2L576.6 137.8Q575.9 140.8 574.0 143.1Q572.0 145.3 568.9 146.6Q565.8 147.8 561.7 147.8ZM592.7 147.7L592.7 147.7Q589.0 147.7 586.0 145.8Q583.0 143.8 581.2 140.1Q579.5 136.3 579.5 130.8L579.5 130.8Q579.5 125.2 581.3 121.5Q583.1 117.7 586.1 115.9Q589.1 114.0 592.7 114.0L592.7 114.0Q595.5 114.0 597.3 114.9Q599.2 115.9 600.3 117.2Q601.4 118.6 602.0 119.9L602.0 119.9L602.3 119.9L602.3 103.5L611.4 103.5L611.4 147.2L602.4 147.2L602.4 141.9L602.0 141.9Q601.4 143.3 600.2 144.6Q599.1 145.9 597.2 146.8Q595.4 147.7 592.7 147.7ZM595.6 140.5L595.6 140.5Q597.8 140.5 599.3 139.3Q600.9 138.1 601.7 135.9Q602.5 133.7 602.5 130.8L602.5 130.8Q602.5 127.9 601.7 125.7Q600.9 123.6 599.3 122.4Q597.8 121.2 595.6 121.2L595.6 121.2Q593.4 121.2 591.8 122.4Q590.3 123.7 589.5 125.8Q588.7 128.0 588.7 130.8L588.7 130.8Q588.7 133.7 589.5 135.8Q590.3 138.0 591.9 139.2Q593.4 140.5 595.6 140.5Z "/></clipPath><defs><pattern id="satori_pattern_id-0_0" x="0" y="0" width="1" height="1" patternUnits="objectBoundingBox"><linearGradient id="satori_biid-0_0" x1="0" y1="0" x2="1" y2="0"><stop offset="0%" stop-color="rgb(0,124,240)"/><stop offset="100%" stop-color="rgb(0,223,216)"/></linearGradient><rect x="0" y="0" width="422" height="73" fill="url(#satori_biid-0_0)"/></pattern></defs><mask id="satori_om-id-0"><rect x="189" y="91" width="422" height="73" fill="#fff"/></mask><rect x="189" y="91" width="422" height="73" fill="url(#satori_pattern_id-0_0)" clip-path="url(#satori_bct-id-0)"/><clipPath id="satori_bct-id-1"><path d="M359.7 220.2L350.1 220.2L341.2 187.4L350.4 187.4L355.4 209.4L355.7 209.4L361.0 187.4L370.0 187.4L375.4 209.3L375.7 209.3L380.7 187.4L389.8 187.4L380.9 220.2L371.3 220.2L365.7 199.6L365.3 199.6L359.7 220.2ZM401.7 220.2L392.6 220.2L392.6 187.4L401.7 187.4L401.7 220.2ZM397.2 183.2L397.2 183.2Q395.2 183.2 393.7 181.9Q392.3 180.5 392.3 178.6L392.3 178.6Q392.3 176.7 393.7 175.4Q395.2 174.0 397.2 174.0L397.2 174.0Q399.2 174.0 400.7 175.4Q402.1 176.7 402.1 178.6L402.1 178.6Q402.1 180.5 400.7 181.9Q399.2 183.2 397.2 183.2ZM404.7 187.4L424.4 187.4L424.4 194.3L404.7 194.3L404.7 187.4ZM409.1 211.3L409.1 179.6L418.2 179.6L418.2 210.1Q418.2 211.4 418.6 212.1Q419.0 212.7 419.7 213.0Q420.4 213.3 421.3 213.3L421.3 213.3Q421.9 213.3 422.5 213.2Q423.2 213.1 423.5 213.0L423.5 213.0L425.0 219.8Q424.3 220.0 423.0 220.3Q421.8 220.5 420.0 220.6L420.0 220.6Q416.8 220.7 414.3 219.7Q411.8 218.7 410.5 216.6Q409.1 214.5 409.1 211.3L409.1 211.3ZM438.0 201.2L438.0 201.2L438.0 220.2L428.9 220.2L428.9 176.5L437.8 176.5L437.8 193.2L438.1 193.2Q439.3 190.3 441.7 188.7Q444.2 187.0 447.9 187.0L447.9 187.0Q451.3 187.0 453.9 188.5Q456.4 190.0 457.8 192.7Q459.3 195.5 459.2 199.3L459.2 199.3L459.2 220.2L450.2 220.2L450.2 200.9Q450.2 197.9 448.6 196.2Q447.1 194.5 444.3 194.5L444.3 194.5Q442.5 194.5 441.1 195.3Q439.6 196.1 438.8 197.6Q438.0 199.1 438.0 201.2Z "/></clipPath><defs><pattern id="satori_pattern_id-1_0" x="0" y="0" width="1" height="1" patternUnits="objectBoundingBox"><linearGradient id="satori_biid-1_0" x1="0" y1="0" x2="1" y2="0"><stop offset="0%" stop-color="rgb(121,40,202)"/><stop offset="100%" stop-color="rgb(255,0,128)"/></linearGradient><rect x="0" y="0" width="120" height="72" fill="url(#satori_biid-1_0)"/></pattern></defs><mask id="satori_om-id-1"><rect x="340" y="164" width="120" height="72" fill="#fff"/></mask><rect x="340" y="164" width="120" height="72" fill="url(#satori_pattern_id-1_0)" clip-path="url(#satori_bct-id-1)"/><clipPath id="satori_bct-id-2"><path d="M106.1 262.6L96.7 262.6Q96.3 261.1 95.5 259.9Q94.7 258.7 93.5 257.8Q92.3 257.0 90.9 256.5Q89.4 256.1 87.6 256.1L87.6 256.1Q84.2 256.1 81.7 257.7Q79.2 259.4 77.8 262.6Q76.4 265.7 76.4 270.3L76.4 270.3Q76.4 274.9 77.8 278.1Q79.1 281.3 81.7 282.9Q84.2 284.6 87.7 284.6L87.7 284.6Q90.8 284.6 93.0 283.5Q95.3 282.4 96.4 280.3Q97.6 278.3 97.6 275.5L97.6 275.5L99.5 275.8L88.2 275.8L88.2 268.8L106.5 268.8L106.5 274.3Q106.5 280.1 104.1 284.2Q101.6 288.3 97.4 290.5Q93.1 292.8 87.6 292.8L87.6 292.8Q81.5 292.8 76.8 290.0Q72.2 287.3 69.6 282.3Q67.0 277.3 67.0 270.4L67.0 270.4Q67.0 265.1 68.6 260.9Q70.1 256.7 72.9 253.9Q75.7 251.0 79.4 249.4Q83.1 247.9 87.4 247.9L87.4 247.9Q91.1 247.9 94.3 249.0Q97.5 250.1 100.0 252.0Q102.5 254.0 104.1 256.7Q105.7 259.4 106.1 262.6L106.1 262.6ZM126.0 292.8L126.0 292.8Q121.1 292.8 117.5 290.7Q113.9 288.6 111.9 284.8Q109.9 281.0 109.9 275.9L109.9 275.9Q109.9 270.9 111.9 267.1Q113.9 263.2 117.5 261.1Q121.1 259.0 126.0 259.0L126.0 259.0Q131.0 259.0 134.6 261.1Q138.2 263.2 140.2 267.1Q142.2 270.9 142.2 275.9L142.2 275.9Q142.2 281.0 140.2 284.8Q138.2 288.6 134.6 290.7Q131.0 292.8 126.0 292.8ZM126.1 285.8L126.1 285.8Q128.3 285.8 129.9 284.5Q131.4 283.2 132.2 281.0Q132.9 278.7 132.9 275.9L132.9 275.9Q132.9 273.0 132.2 270.8Q131.4 268.5 129.9 267.2Q128.3 265.9 126.1 265.9L126.1 265.9Q123.8 265.9 122.3 267.2Q120.7 268.5 119.9 270.8Q119.2 273.0 119.2 275.9L119.2 275.9Q119.2 278.7 119.9 281.0Q120.7 283.2 122.3 284.5Q123.8 285.8 126.1 285.8ZM160.9 292.8L160.9 292.8Q155.9 292.8 152.3 290.7Q148.7 288.6 146.7 284.8Q144.8 281.0 144.8 275.9L144.8 275.9Q144.8 270.9 146.7 267.1Q148.7 263.2 152.3 261.1Q155.9 259.0 160.9 259.0L160.9 259.0Q165.8 259.0 169.4 261.1Q173.1 263.2 175.0 267.1Q177.0 270.9 177.0 275.9L177.0 275.9Q177.0 281.0 175.0 284.8Q173.1 288.6 169.4 290.7Q165.8 292.8 160.9 292.8ZM160.9 285.8L160.9 285.8Q163.2 285.8 164.7 284.5Q166.2 283.2 167.0 281.0Q167.7 278.7 167.7 275.9L167.7 275.9Q167.7 273.0 167.0 270.8Q166.2 268.5 164.7 267.2Q163.2 265.9 160.9 265.9L160.9 265.9Q158.6 265.9 157.1 267.2Q155.5 268.5 154.8 270.8Q154.0 273.0 154.0 275.9L154.0 275.9Q154.0 278.7 154.8 281.0Q155.5 283.2 157.1 284.5Q158.6 285.8 160.9 285.8ZM195.6 305.1L195.6 305.1Q191.2 305.1 188.1 303.9Q184.9 302.7 183.1 300.6Q181.2 298.6 180.7 296.0L180.7 296.0L189.1 294.9Q189.5 295.8 190.3 296.7Q191.1 297.6 192.5 298.1Q193.9 298.6 195.9 298.6L195.9 298.6Q198.8 298.6 200.7 297.2Q202.7 295.7 202.7 292.4L202.7 292.4L202.7 286.4L202.3 286.4Q201.7 287.7 200.5 288.9Q199.3 290.2 197.4 290.9Q195.6 291.7 193.0 291.7L193.0 291.7Q189.3 291.7 186.3 290.0Q183.2 288.3 181.5 284.7Q179.7 281.2 179.7 275.7L179.7 275.7Q179.7 270.2 181.5 266.4Q183.3 262.7 186.3 260.9Q189.3 259.0 192.9 259.0L192.9 259.0Q195.7 259.0 197.5 259.9Q199.4 260.9 200.5 262.2Q201.7 263.6 202.3 264.9L202.3 264.9L202.6 264.9L202.6 259.4L211.6 259.4L211.6 292.5Q211.6 296.7 209.6 299.5Q207.6 302.3 203.9 303.7Q200.3 305.1 195.6 305.1ZM195.8 284.9L195.8 284.9Q198.0 284.9 199.6 283.8Q201.1 282.7 201.9 280.6Q202.7 278.6 202.7 275.7L202.7 275.7Q202.7 272.8 201.9 270.7Q201.1 268.6 199.6 267.4Q198.0 266.2 195.8 266.2L195.8 266.2Q193.6 266.2 192.1 267.4Q190.5 268.6 189.7 270.8Q189.0 272.9 189.0 275.7L189.0 275.7Q189.0 278.5 189.8 280.6Q190.5 282.6 192.1 283.8Q193.6 284.9 195.8 284.9ZM216.9 248.5L226.0 248.5L226.0 292.2L216.9 292.2L216.9 248.5ZM246.1 292.8L246.1 292.8Q241.1 292.8 237.4 290.7Q233.8 288.7 231.8 284.9Q229.9 281.1 229.9 275.9L229.9 275.9Q229.9 270.9 231.8 267.1Q233.8 263.3 237.4 261.1Q240.9 259.0 245.8 259.0L245.8 259.0Q249 259.0 251.8 260.0Q254.6 261.1 256.7 263.1Q258.8 265.2 260.0 268.3Q261.1 271.5 261.1 275.6L261.1 275.6L261.1 278.1L233.5 278.1L233.5 272.5L252.6 272.5Q252.6 270.5 251.7 269.0Q250.9 267.5 249.4 266.6Q247.9 265.8 245.9 265.8L245.9 265.8Q243.8 265.8 242.3 266.7Q240.7 267.7 239.8 269.3Q238.9 270.9 238.9 272.8L238.9 272.8L238.9 278.1Q238.9 280.6 239.8 282.3Q240.7 284.1 242.3 285.1Q244.0 286.0 246.3 286.0L246.3 286.0Q247.8 286.0 249.0 285.6Q250.3 285.2 251.2 284.3Q252.1 283.5 252.6 282.2L252.6 282.2L261.0 282.8Q260.3 285.8 258.3 288.1Q256.4 290.3 253.3 291.6Q250.2 292.8 246.1 292.8Z M309.7 261.1L300.8 261.1Q300.6 258.5 298.6 257.1Q296.7 255.6 293.4 255.6L293.4 255.6Q291.1 255.6 289.6 256.3Q288.0 256.9 287.2 258.0Q286.4 259.1 286.4 260.5L286.4 260.5Q286.3 261.7 286.9 262.6Q287.4 263.4 288.4 264.1Q289.3 264.7 290.6 265.2Q291.8 265.6 293.3 265.9L293.3 265.9L297.2 266.9Q300.0 267.5 302.4 268.6Q304.8 269.6 306.6 271.2Q308.3 272.7 309.3 274.9Q310.2 277.0 310.3 279.7L310.3 279.7Q310.2 283.7 308.2 286.6Q306.2 289.6 302.4 291.2Q298.7 292.8 293.3 292.8L293.3 292.8Q288.0 292.8 284.1 291.2Q280.2 289.5 278.0 286.4Q275.9 283.2 275.7 278.5L275.7 278.5L284.7 278.5Q284.8 280.7 285.9 282.1Q287.1 283.6 288.9 284.3Q290.8 285.0 293.2 285.0L293.2 285.0Q295.6 285.0 297.3 284.4Q299.0 283.7 300.0 282.5Q301.0 281.3 301.0 279.7L301.0 279.7Q301.0 278.2 300.1 277.2Q299.2 276.2 297.6 275.5Q295.9 274.8 293.5 274.2L293.5 274.2L288.8 273.0Q283.3 271.7 280.1 268.8Q276.9 266.0 276.9 261.1L276.9 261.1Q276.9 257.2 279.0 254.2Q281.2 251.3 284.9 249.6Q288.7 247.9 293.4 247.9L293.4 247.9Q298.3 247.9 301.9 249.6Q305.6 251.3 307.6 254.2Q309.6 257.2 309.7 261.1L309.7 261.1ZM335.3 278.2L335.3 278.2L335.3 259.4L344.3 259.4L344.3 292.2L335.6 292.2L335.6 286.2L335.3 286.2Q334.2 289.1 331.6 290.8Q329.0 292.6 325.4 292.6L325.4 292.6Q322.1 292.6 319.6 291.1Q317.1 289.6 315.7 286.9Q314.3 284.1 314.3 280.3L314.3 280.3L314.3 259.4L323.3 259.4L323.3 278.7Q323.4 281.5 324.9 283.2Q326.4 284.9 329.0 284.9L329.0 284.9Q330.7 284.9 332.1 284.2Q333.5 283.4 334.4 281.9Q335.3 280.4 335.3 278.2ZM358.7 292.2L349.6 292.2L349.6 259.4L358.2 259.4L358.2 265.2L358.6 265.2Q359.6 262.3 362.0 260.7Q364.4 259.0 367.7 259.0L367.7 259.0Q371.1 259.0 373.5 260.7Q375.8 262.4 376.6 265.2L376.6 265.2L377.0 265.2Q378.0 262.4 380.6 260.7Q383.2 259.0 386.8 259.0L386.8 259.0Q391.4 259.0 394.3 261.9Q397.1 264.8 397.1 270.2L397.1 270.2L397.1 292.2L388.1 292.2L388.1 271.9Q388.1 269.2 386.6 267.8Q385.2 266.5 383.0 266.5L383.0 266.5Q380.5 266.5 379.2 268.1Q377.8 269.6 377.8 272.2L377.8 272.2L377.8 292.2L369.0 292.2L369.0 271.7Q369.0 269.3 367.6 267.9Q366.2 266.5 364.0 266.5L364.0 266.5Q362.5 266.5 361.3 267.2Q360.1 268.0 359.4 269.4Q358.7 270.7 358.7 272.5L358.7 272.5L358.7 292.2ZM411.4 292.2L402.3 292.2L402.3 259.4L410.9 259.4L410.9 265.2L411.3 265.2Q412.4 262.3 414.7 260.7Q417.1 259.0 420.4 259.0L420.4 259.0Q423.8 259.0 426.2 260.7Q428.5 262.4 429.3 265.2L429.3 265.2L429.7 265.2Q430.7 262.4 433.3 260.7Q435.9 259.0 439.5 259.0L439.5 259.0Q444.1 259.0 447.0 261.9Q449.9 264.8 449.9 270.2L449.9 270.2L449.9 292.2L440.8 292.2L440.8 271.9Q440.8 269.2 439.3 267.8Q437.9 266.5 435.7 266.5L435.7 266.5Q433.3 266.5 431.9 268.1Q430.5 269.6 430.5 272.2L430.5 272.2L430.5 292.2L421.7 292.2L421.7 271.7Q421.7 269.3 420.3 267.9Q418.9 266.5 416.7 266.5L416.7 266.5Q415.2 266.5 414.0 267.2Q412.8 268.0 412.1 269.4Q411.4 270.7 411.4 272.5L411.4 272.5L411.4 292.2ZM469.9 292.8L469.9 292.8Q464.9 292.8 461.2 290.7Q457.6 288.7 455.7 284.9Q453.7 281.1 453.7 275.9L453.7 275.9Q453.7 270.9 455.7 267.1Q457.6 263.3 461.2 261.1Q464.7 259.0 469.6 259.0L469.6 259.0Q472.8 259.0 475.6 260.0Q478.4 261.1 480.5 263.1Q482.6 265.2 483.8 268.3Q484.9 271.5 484.9 275.6L484.9 275.6L484.9 278.1L457.3 278.1L457.3 272.5L476.4 272.5Q476.4 270.5 475.6 269.0Q474.7 267.5 473.2 266.6Q471.7 265.8 469.7 265.8L469.7 265.8Q467.6 265.8 466.1 266.7Q464.5 267.7 463.6 269.3Q462.7 270.9 462.7 272.8L462.7 272.8L462.7 278.1Q462.7 280.6 463.6 282.3Q464.5 284.1 466.1 285.1Q467.8 286.0 470.1 286.0L470.1 286.0Q471.6 286.0 472.8 285.6Q474.1 285.2 475.0 284.3Q475.9 283.5 476.4 282.2L476.4 282.2L484.8 282.8Q484.1 285.8 482.1 288.1Q480.2 290.3 477.1 291.6Q474.0 292.8 469.9 292.8ZM497.9 292.2L488.9 292.2L488.9 259.4L497.7 259.4L497.7 265.1L498.0 265.1Q498.9 262.1 501.0 260.5Q503.1 259.0 505.9 259.0L505.9 259.0Q506.6 259.0 507.3 259.0Q508.1 259.1 508.7 259.3L508.7 259.3L508.7 267.3Q508.1 267.1 507.0 267.0Q505.8 266.8 504.9 266.8L504.9 266.8Q502.9 266.8 501.3 267.7Q499.8 268.6 498.9 270.1Q497.9 271.6 497.9 273.6L497.9 273.6L497.9 292.2Z M538.1 292.8L538.1 292.8Q533.1 292.8 529.5 290.7Q525.9 288.6 523.9 284.8Q522.0 281.0 522.0 275.9L522.0 275.9Q522.0 270.9 523.9 267.1Q525.9 263.2 529.5 261.1Q533.1 259.0 538.1 259.0L538.1 259.0Q543.1 259.0 546.7 261.1Q550.3 263.2 552.2 267.1Q554.2 270.9 554.2 275.9L554.2 275.9Q554.2 281.0 552.2 284.8Q550.3 288.6 546.7 290.7Q543.1 292.8 538.1 292.8ZM538.1 285.8L538.1 285.8Q540.4 285.8 541.9 284.5Q543.4 283.2 544.2 281.0Q545.0 278.7 545.0 275.9L545.0 275.9Q545.0 273.0 544.2 270.8Q543.4 268.5 541.9 267.2Q540.4 265.9 538.1 265.9L538.1 265.9Q535.9 265.9 534.3 267.2Q532.8 268.5 532.0 270.8Q531.2 273.0 531.2 275.9L531.2 275.9Q531.2 278.7 532.0 281.0Q532.8 283.2 534.3 284.5Q535.9 285.8 538.1 285.8ZM555.5 259.4L575.7 259.4L575.7 266.3L555.5 266.3L555.5 259.4ZM569.2 292.2L560.2 292.2L560.2 257.1Q560.2 253.5 561.5 251.2Q562.9 248.8 565.4 247.7Q567.8 246.5 570.9 246.5L570.9 246.5Q573.0 246.5 574.7 246.8Q576.5 247.1 577.3 247.4L577.3 247.4L575.7 254.2Q575.2 254.0 574.4 253.9Q573.6 253.7 572.8 253.7L572.8 253.7Q570.8 253.7 570.0 254.6Q569.2 255.6 569.2 257.2L569.2 257.2L569.2 292.2Z M629.9 263.8L629.9 263.8L620.5 263.8Q620.3 262.0 619.5 260.6Q618.7 259.2 617.5 258.2Q616.2 257.2 614.6 256.6Q613.0 256.1 611.1 256.1L611.1 256.1Q607.7 256.1 605.2 257.8Q602.7 259.4 601.3 262.6Q599.9 265.8 599.9 270.3L599.9 270.3Q599.9 275.0 601.3 278.2Q602.7 281.4 605.2 283.0Q607.8 284.6 611.1 284.6L611.1 284.6Q612.9 284.6 614.5 284.1Q616.1 283.6 617.3 282.7Q618.6 281.7 619.4 280.4Q620.2 279.0 620.5 277.2L620.5 277.2L629.9 277.3Q629.5 280.3 628.1 283.1Q626.6 285.9 624.2 288.0Q621.8 290.2 618.4 291.5Q615.1 292.8 610.9 292.8L610.9 292.8Q605.1 292.8 600.5 290.1Q595.9 287.5 593.2 282.5Q590.6 277.5 590.6 270.3L590.6 270.3Q590.6 263.2 593.3 258.2Q596.0 253.2 600.6 250.6Q605.2 247.9 610.9 247.9L610.9 247.9Q614.7 247.9 618.0 249.0Q621.2 250.1 623.7 252.1Q626.2 254.1 627.8 257.1Q629.4 260.0 629.9 263.8ZM649.1 292.8L649.1 292.8Q644.1 292.8 640.5 290.7Q636.9 288.6 634.9 284.8Q633.0 281.0 633.0 275.9L633.0 275.9Q633.0 270.9 634.9 267.1Q636.9 263.2 640.5 261.1Q644.1 259.0 649.1 259.0L649.1 259.0Q654.1 259.0 657.7 261.1Q661.3 263.2 663.2 267.1Q665.2 270.9 665.2 275.9L665.2 275.9Q665.2 281.0 663.2 284.8Q661.3 288.6 657.7 290.7Q654.1 292.8 649.1 292.8ZM649.1 285.8L649.1 285.8Q651.4 285.8 652.9 284.5Q654.4 283.2 655.2 281.0Q656.0 278.7 656.0 275.9L656.0 275.9Q656.0 273.0 655.2 270.8Q654.4 268.5 652.9 267.2Q651.4 265.9 649.1 265.9L649.1 265.9Q646.9 265.9 645.3 267.2Q643.8 268.5 643.0 270.8Q642.2 273.0 642.2 275.9L642.2 275.9Q642.2 278.7 643.0 281.0Q643.8 283.2 645.3 284.5Q646.9 285.8 649.1 285.8ZM681.2 292.7L681.2 292.7Q677.5 292.7 674.4 290.8Q671.4 288.8 669.7 285.1Q667.9 281.3 667.9 275.8L667.9 275.8Q667.9 270.2 669.7 266.5Q671.5 262.7 674.5 260.9Q677.6 259.0 681.2 259.0L681.2 259.0Q683.9 259.0 685.8 259.9Q687.6 260.9 688.7 262.2Q689.9 263.6 690.5 264.9L690.5 264.9L690.8 264.9L690.8 248.5L699.8 248.5L699.8 292.2L690.9 292.2L690.9 286.9L690.5 286.9Q689.8 288.3 688.7 289.6Q687.5 290.9 685.7 291.8Q683.8 292.7 681.2 292.7ZM684.1 285.5L684.1 285.5Q686.3 285.5 687.8 284.3Q689.3 283.1 690.1 280.9Q690.9 278.7 690.9 275.8L690.9 275.8Q690.9 272.9 690.1 270.7Q689.3 268.6 687.8 267.4Q686.3 266.2 684.1 266.2L684.1 266.2Q681.8 266.2 680.3 267.4Q678.8 268.7 678.0 270.8Q677.2 273.0 677.2 275.8L677.2 275.8Q677.2 278.7 678.0 280.8Q678.8 283.0 680.3 284.2Q681.8 285.5 684.1 285.5ZM720.2 292.8L720.2 292.8Q715.1 292.8 711.5 290.7Q707.8 288.7 705.9 284.9Q703.9 281.1 703.9 275.9L703.9 275.9Q703.9 270.9 705.9 267.1Q707.8 263.3 711.4 261.1Q715.0 259.0 719.8 259.0L719.8 259.0Q723.0 259.0 725.8 260.0Q728.6 261.1 730.7 263.1Q732.8 265.2 734.0 268.3Q735.2 271.5 735.2 275.6L735.2 275.6L735.2 278.1L707.5 278.1L707.5 272.5L726.6 272.5Q726.6 270.5 725.8 269.0Q724.9 267.5 723.4 266.6Q721.9 265.8 719.9 265.8L719.9 265.8Q717.9 265.8 716.3 266.7Q714.7 267.7 713.8 269.3Q712.9 270.9 712.9 272.8L712.9 272.8L712.9 278.1Q712.9 280.6 713.8 282.3Q714.7 284.1 716.4 285.1Q718.0 286.0 720.3 286.0L720.3 286.0Q721.8 286.0 723.1 285.6Q724.3 285.2 725.2 284.3Q726.1 283.5 726.6 282.2L726.6 282.2L735.0 282.8Q734.3 285.8 732.4 288.1Q730.4 290.3 727.3 291.6Q724.2 292.8 720.2 292.8Z "/></clipPath><defs><pattern id="satori_pattern_id-2_0" x="0" y="0" width="1" height="1" patternUnits="objectBoundingBox"><linearGradient id="satori_biid-2_0" x1="0" y1="0" x2="1" y2="0"><stop offset="0%" stop-color="rgb(255,77,77)"/><stop offset="100%" stop-color="rgb(249,203,40)"/></linearGradient><rect x="0" y="0" width="672" height="73" fill="url(#satori_biid-2_0)"/></pattern></defs><mask id="satori_om-id-2"><rect x="64" y="236" width="672" height="73" fill="#fff"/></mask><rect x="64" y="236" width="672" height="73" fill="url(#satori_pattern_id-2_0)" clip-path="url(#satori_bct-id-2)"/></svg>