<svg width="800" height="400" viewBox="0 0 800 400" xmlns="http://www.w3.org/2000/svg"><mask id="satori_om-id"><rect x="0" y="0" width="800" height="400" fill="#fff"/></mask><rect x="0" y="0" width="800" height="400" fill="none"/><clipPath id="satori_bct-id-0"><path d="M131.8 103.5L141.0 103.5L141.0 147.2L131.8 147.2L131.8 103.5ZM155.5 147.2L146.5 147.2L146.5 114.4L155.1 114.4L155.1 120.2L155.5 120.2Q156.5 117.3 158.9 115.7Q161.3 114.0 164.6 114.0L164.6 114.0Q168.0 114.0 170.3 115.7Q172.7 117.4 173.5 120.2L173.5 120.2L173.8 120.2Q174.8 117.4 177.5 115.7Q180.1 114.0 183.7 114.0L183.7 114.0Q188.3 114.0 191.1 116.9Q194.0 119.8 194.0 125.2L194.0 125.2L194.0 147.2L185.0 147.2L185.0 126.9Q185.0 124.2 183.5 122.8Q182.1 121.5 179.9 121.5L179.9 121.5Q177.4 121.5 176.0 123.1Q174.6 124.6 174.6 127.2L174.6 127.2L174.6 147.2L165.8 147.2L165.8 126.7Q165.8 124.3 164.5 122.9Q163.1 121.5 160.9 121.5L160.9 121.5Q159.3 121.5 158.1 122.2Q156.9 123.0 156.2 124.4Q155.5 125.7 155.5 127.5L155.5 127.5L155.5 147.2ZM208.2 159.4L199.2 159.4L199.2 114.4L208.1 114.4L208.1 119.9L208.5 119.9Q209.1 118.6 210.3 117.2Q211.4 115.9 213.2 114.9Q215.1 114.0 217.8 114.0L217.8 114.0Q221.4 114.0 224.4 115.9Q227.5 117.7 229.3 121.5Q231.1 125.2 231.1 130.8L231.1 130.8Q231.1 136.3 229.3 140.1Q227.6 143.8 224.6 145.8Q221.5 147.7 217.8 147.7L217.8 147.7Q215.2 147.7 213.3 146.8Q211.5 145.9 210.3 144.6Q209.1 143.3 208.5 141.9L208.5 141.9L208.2 141.9L208.2 159.4ZM208.1 130.8L208.1 130.8Q208.1 133.7 208.9 135.9Q209.7 138.1 211.2 139.3Q212.7 140.5 214.9 140.5L214.9 140.5Q217.2 140.5 218.7 139.2Q220.2 138.0 221.0 135.8Q221.8 133.7 221.8 130.8L221.8 130.8Q221.8 128.0 221.0 125.8Q220.2 123.7 218.7 122.4Q217.2 121.2 214.9 121.2L214.9 121.2Q212.7 121.2 211.2 122.4Q209.7 123.6 208.9 125.7Q208.1 127.9 208.1 130.8ZM244.2 147.2L235.1 147.2L235.1 114.4L243.9 114.4L243.9 120.1L244.3 120.1Q245.2 117.1 247.3 115.5Q249.4 114.0 252.1 114.0L252.1 114.0Q252.8 114.0 253.6 114.0Q254.4 114.1 255.0 114.3L255.0 114.3L255.0 122.3Q254.3 122.1 253.2 122.0Q252.1 121.8 251.1 121.8L251.1 121.8Q249.1 121.8 247.6 122.7Q246.0 123.6 245.1 125.1Q244.2 126.6 244.2 128.6L244.2 128.6L244.2 147.2ZM270.9 147.8L270.9 147.8Q265.9 147.8 262.3 145.7Q258.7 143.6 256.7 139.8Q254.8 136.0 254.8 130.9L254.8 130.9Q254.8 125.9 256.7 122.1Q258.7 118.2 262.3 116.1Q265.9 114.0 270.9 114.0L270.9 114.0Q275.9 114.0 279.5 116.1Q283.1 118.2 285.0 122.1Q287.0 125.9 287.0 130.9L287.0 130.9Q287.0 136.0 285.0 139.8Q283.1 143.6 279.5 145.7Q275.9 147.8 270.9 147.8ZM270.9 140.8L270.9 140.8Q273.2 140.8 274.7 139.5Q276.2 138.2 277.0 136.0Q277.8 133.7 277.8 130.9L277.8 130.9Q277.8 128.0 277.0 125.8Q276.2 123.5 274.7 122.2Q273.2 120.9 270.9 120.9L270.9 120.9Q268.7 120.9 267.1 122.2Q265.6 123.5 264.8 125.8Q264.0 128.0 264.0 130.9L264.0 130.9Q264.0 133.7 264.8 136.0Q265.6 138.2 267.1 139.5Q268.7 140.8 270.9 140.8ZM310.7 114.4L320.4 114.4L308.9 147.2L298.7 147.2L287.2 114.4L296.8 114.4L303.6 137.8L304.0 137.8L310.7 114.4ZM332.1 147.2L323.0 147.2L323.0 114.4L332.1 114.4L332.1 147.2ZM327.6 110.2L327.6 110.2Q325.5 110.2 324.1 108.9Q322.7 107.5 322.7 105.6L322.7 105.6Q322.7 103.7 324.1 102.4Q325.5 101.0 327.6 101.0L327.6 101.0Q329.6 101.0 331.0 102.4Q332.5 103.7 332.5 105.6L332.5 105.6Q332.5 107.5 331.0 108.9Q329.6 110.2 327.6 110.2ZM346.4 128.2L346.4 128.2L346.4 147.2L337.3 147.2L337.3 114.4L346.0 114.4L346.0 120.2L346.4 120.2Q347.4 117.4 350.0 115.7Q352.6 114.0 356.2 114.0L356.2 114.0Q359.6 114.0 362.1 115.5Q364.7 117.0 366.1 119.7Q367.5 122.5 367.5 126.3L367.5 126.3L367.5 147.2L358.4 147.2L358.4 127.9Q358.4 124.9 356.9 123.2Q355.3 121.5 352.6 121.5L352.6 121.5Q350.8 121.5 349.4 122.3Q348.0 123.1 347.2 124.6Q346.4 126.1 346.4 128.2ZM387.4 160.1L387.4 160.1Q383.0 160.1 379.8 158.9Q376.7 157.7 374.8 155.6Q373.0 153.6 372.4 151.0L372.4 151.0L380.8 149.9Q381.2 150.8 382.0 151.7Q382.9 152.6 384.2 153.1Q385.6 153.6 387.6 153.6L387.6 153.6Q390.5 153.6 392.5 152.2Q394.4 150.7 394.4 147.4L394.4 147.4L394.4 141.4L394.0 141.4Q393.4 142.7 392.2 143.9Q391.0 145.2 389.2 145.9Q387.3 146.7 384.7 146.7L384.7 146.7Q381.0 146.7 378.0 145.0Q375.0 143.3 373.2 139.7Q371.4 136.2 371.4 130.7L371.4 130.7Q371.4 125.2 373.2 121.4Q375.0 117.7 378.0 115.9Q381.1 114.0 384.7 114.0L384.7 114.0Q387.4 114.0 389.3 114.9Q391.1 115.9 392.3 117.2Q393.4 118.6 394.0 119.9L394.0 119.9L394.4 119.9L394.4 114.4L403.4 114.4L403.4 147.5Q403.4 151.7 401.3 154.5Q399.3 157.3 395.7 158.7Q392.1 160.1 387.4 160.1ZM387.6 139.9L387.6 139.9Q389.8 139.9 391.3 138.8Q392.8 137.7 393.6 135.6Q394.4 133.6 394.4 130.7L394.4 130.7Q394.4 127.8 393.6 125.7Q392.8 123.6 391.3 122.4Q389.8 121.2 387.6 121.2L387.6 121.2Q385.3 121.2 383.8 122.4Q382.3 123.6 381.5 125.8Q380.7 127.9 380.7 130.7L380.7 130.7Q380.7 133.5 381.5 135.6Q382.3 137.6 383.8 138.8Q385.3 139.9 387.6 139.9Z M455.8 116.1L447.0 116.1Q446.7 113.5 444.8 112.1Q442.9 110.6 439.5 110.6L439.5 110.6Q437.3 110.6 435.7 111.3Q434.2 111.9 433.3 113.0Q432.5 114.1 432.5 115.5L432.5 115.5Q432.5 116.7 433.0 117.6Q433.6 118.4 434.5 119.1Q435.5 119.7 436.7 120.2Q438.0 120.6 439.4 120.9L439.4 120.9L443.3 121.9Q446.2 122.5 448.6 123.6Q451.0 124.6 452.7 126.2Q454.5 127.7 455.4 129.9Q456.4 132.0 456.4 134.7L456.4 134.7Q456.4 138.7 454.4 141.6Q452.4 144.6 448.6 146.2Q444.8 147.8 439.5 147.8L439.5 147.8Q434.2 147.8 430.3 146.2Q426.4 144.5 424.2 141.4Q422.0 138.2 421.9 133.5L421.9 133.5L430.8 133.5Q431.0 135.7 432.1 137.1Q433.2 138.6 435.1 139.3Q437.0 140.0 439.4 140.0L439.4 140.0Q441.7 140.0 443.5 139.4Q445.2 138.7 446.2 137.5Q447.1 136.3 447.1 134.7L447.1 134.7Q447.1 133.2 446.3 132.2Q445.4 131.2 443.7 130.5Q442.1 129.8 439.7 129.2L439.7 129.2L435.0 128.0Q429.4 126.7 426.2 123.8Q423.0 121.0 423.1 116.1L423.1 116.1Q423.0 112.2 425.2 109.2Q427.3 106.3 431.1 104.6Q434.8 102.9 439.6 102.9L439.6 102.9Q444.5 102.9 448.1 104.6Q451.7 106.3 453.7 109.2Q455.8 112.2 455.8 116.1L455.8 116.1ZM475.2 147.8L475.2 147.8Q470.3 147.8 466.6 145.7Q463.0 143.6 461.1 139.8Q459.1 136.0 459.1 130.9L459.1 130.9Q459.1 125.9 461.1 122.1Q463.0 118.2 466.6 116.1Q470.3 114.0 475.2 114.0L475.2 114.0Q480.2 114.0 483.8 116.1Q487.4 118.2 489.4 122.1Q491.3 125.9 491.3 130.9L491.3 130.9Q491.3 136.0 489.4 139.8Q487.4 143.6 483.8 145.7Q480.2 147.8 475.2 147.8ZM475.3 140.8L475.3 140.8Q477.5 140.8 479.0 139.5Q480.6 138.2 481.3 136.0Q482.1 133.7 482.1 130.9L482.1 130.9Q482.1 128.0 481.3 125.8Q480.6 123.5 479.0 122.2Q477.5 120.9 475.3 120.9L475.3 120.9Q473.0 120.9 471.4 122.2Q469.9 123.5 469.1 125.8Q468.3 128.0 468.3 130.9L468.3 130.9Q468.3 133.7 469.1 136.0Q469.9 138.2 471.4 139.5Q473.0 140.8 475.3 140.8ZM492.7 114.4L512.9 114.4L512.9 121.3L492.7 121.3L492.7 114.4ZM506.3 147.2L497.3 147.2L497.3 112.1Q497.3 108.5 498.7 106.2Q500.1 103.8 502.5 102.7Q504.9 101.5 508.0 101.5L508.0 101.5Q510.1 101.5 511.8 101.8Q513.6 102.1 514.4 102.4L514.4 102.4L512.8 109.2Q512.3 109.0 511.5 108.9Q510.7 108.7 509.9 108.7L509.9 108.7Q507.9 108.7 507.1 109.6Q506.3 110.6 506.3 112.2L506.3 112.2L506.3 147.2ZM514.1 114.4L533.8 114.4L533.8 121.3L514.1 121.3L514.1 114.4ZM518.6 138.3L518.6 106.6L527.6 106.6L527.6 137.1Q527.6 138.4 528.0 139.1Q528.4 139.7 529.1 140.0Q529.8 140.3 530.7 140.3L530.7 140.3Q531.4 140.3 532.0 140.2Q532.6 140.1 533.0 140.0L533.0 140.0L534.4 146.8Q533.7 147.0 532.5 147.3Q531.2 147.5 529.5 147.6L529.5 147.6Q526.2 147.7 523.7 146.7Q521.3 145.7 519.9 143.6Q518.5 141.5 518.6 138.3L518.6 138.3ZM553.8 147.2L544.2 147.2L535.3 114.4L544.4 114.4L549.5 136.4L549.8 136.4L555.1 114.4L564.1 114.4L569.5 136.3L569.8 136.3L574.7 114.4L583.9 114.4L575.0 147.2L565.4 147.2L559.8 126.6L559.4 126.6L553.8 147.2ZM596.0 147.8L596.0 147.8Q592.9 147.8 590.5 146.7Q588.0 145.6 586.6 143.4Q585.2 141.3 585.2 138.0L585.2 138.0Q585.2 135.3 586.2 133.4Q587.2 131.6 588.9 130.5Q590.6 129.3 592.8 128.8Q595.0 128.2 597.5 127.9L597.5 127.9Q600.3 127.6 602.1 127.4Q603.8 127.1 604.6 126.6Q605.4 126.0 605.4 125.0L605.4 125.0L605.4 124.9Q605.4 122.8 604.1 121.7Q602.9 120.6 600.5 120.6L600.5 120.6Q598.1 120.6 596.6 121.7Q595.2 122.8 594.7 124.4L594.7 124.4L586.3 123.7Q587.0 120.7 588.8 118.6Q590.7 116.4 593.7 115.2Q596.7 114.0 600.6 114.0L600.6 114.0Q603.3 114.0 605.8 114.6Q608.3 115.3 610.3 116.6Q612.2 118.0 613.3 120.1Q614.5 122.2 614.5 125.1L614.5 125.1L614.5 147.2L605.9 147.2L605.9 142.6L605.6 142.6Q604.8 144.2 603.5 145.3Q602.2 146.5 600.3 147.1Q598.5 147.8 596.0 147.8ZM598.6 141.5L598.6 141.5Q600.6 141.5 602.2 140.7Q603.7 139.9 604.6 138.6Q605.5 137.2 605.5 135.5L605.5 135.5L605.5 132.0Q605.0 132.3 604.3 132.5Q603.6 132.7 602.7 132.9Q601.7 133.1 600.8 133.2Q599.9 133.4 599.2 133.5L599.2 133.5Q597.6 133.7 596.4 134.2Q595.2 134.7 594.5 135.6Q593.9 136.4 593.9 137.7L593.9 137.7Q593.9 139.6 595.2 140.5Q596.6 141.5 598.6 141.5ZM628.6 147.2L619.5 147.2L619.5 114.4L628.3 114.4L628.3 120.1L628.7 120.1Q629.6 117.1 631.7 115.5Q633.8 114.0 636.5 114.0L636.5 114.0Q637.2 114.0 638.0 114.0Q638.8 114.1 639.4 114.3L639.4 114.3L639.4 122.3Q638.7 122.1 637.6 122.0Q636.5 121.8 635.6 121.8L635.6 121.8Q633.5 121.8 632.0 122.7Q630.4 123.6 629.5 125.1Q628.6 126.6 628.6 128.6L628.6 128.6L628.6 147.2ZM655.4 147.8L655.4 147.8Q650.4 147.8 646.8 145.7Q643.1 143.7 641.2 139.9Q639.2 136.1 639.2 130.9L639.2 130.9Q639.2 125.9 641.2 122.1Q643.1 118.3 646.7 116.1Q650.3 114.0 655.1 114.0L655.1 114.0Q658.3 114.0 661.1 115.0Q663.9 116.1 666.0 118.1Q668.1 120.2 669.3 123.3Q670.5 126.5 670.5 130.6L670.5 130.6L670.5 133.1L642.8 133.1L642.8 127.5L661.9 127.5Q661.9 125.5 661.1 124.0Q660.2 122.5 658.7 121.6Q657.2 120.8 655.2 120.8L655.2 120.8Q653.2 120.8 651.6 121.7Q650.0 122.7 649.1 124.3Q648.2 125.9 648.2 127.8L648.2 127.8L648.2 133.1Q648.2 135.6 649.1 137.3Q650.0 139.1 651.6 140.1Q653.3 141.0 655.6 141.0L655.6 141.0Q657.1 141.0 658.4 140.6Q659.6 140.2 660.5 139.3Q661.4 138.5 661.9 137.2L661.9 137.2L670.3 137.8Q669.6 140.8 667.7 143.1Q665.7 145.3 662.6 146.6Q659.5 147.8 655.4 147.8Z "/></clipPath><defs><pattern id="satori_pattern_id-0_0" x="0" y="0" width="1" height="1" patternUnits="objectBoundingBox"><linearGradient id="satori_biid-0_0" x1="0" y1="0" x2="1" y2="0"><stop offset="0%" stop-color="rgb(0,124,240)"/><stop offset="100%" stop-color="rgb(0,223,216)"/></linearGradient><rect x="0" y="0" width="544" height="73" fill="url(#satori_biid-0_0)"/></pattern></defs><mask id="satori_om-id-0"><rect x="128" y="91" width="544" height="73" fill="#fff"/></mask><rect x="128" y="91" width="544" height="73" fill="url(#satori_pattern_id-0_0)" clip-path="url(#satori_bct-id-0)"/><clipPath id="satori_bct-id-1"><path d="M167.0 220.2L157.8 220.2L157.8 176.5L175.0 176.5Q180.0 176.5 183.5 178.4Q187.0 180.3 188.8 183.6Q190.6 187.0 190.6 191.3L190.6 191.3Q190.6 195.7 188.8 199.0Q186.9 202.3 183.4 204.2Q179.8 206.0 174.8 206.0L174.8 206.0L163.8 206.0L163.8 198.6L173.3 198.6Q175.9 198.6 177.7 197.7Q179.4 196.8 180.3 195.1Q181.1 193.5 181.1 191.3L181.1 191.3Q181.1 189.1 180.3 187.5Q179.4 185.9 177.7 185.0Q175.9 184.1 173.2 184.1L173.2 184.1L167.0 184.1L167.0 220.2ZM208.8 220.8L208.8 220.8Q203.8 220.8 200.2 218.7Q196.5 216.7 194.6 212.9Q192.6 209.1 192.6 203.9L192.6 203.9Q192.6 198.9 194.6 195.1Q196.5 191.3 200.1 189.1Q203.7 187.0 208.5 187.0L208.5 187.0Q211.7 187.0 214.5 188.0Q217.3 189.1 219.4 191.1Q221.5 193.2 222.7 196.3Q223.9 199.5 223.9 203.6L223.9 203.6L223.9 206.1L196.2 206.1L196.2 200.5L215.3 200.5Q215.3 198.5 214.5 197.0Q213.6 195.5 212.1 194.6Q210.6 193.8 208.6 193.8L208.6 193.8Q206.6 193.8 205.0 194.7Q203.4 195.7 202.5 197.3Q201.6 198.9 201.6 200.8L201.6 200.8L201.6 206.1Q201.6 208.6 202.5 210.3Q203.4 212.1 205.1 213.1Q206.7 214.0 209.0 214.0L209.0 214.0Q210.5 214.0 211.8 213.6Q213.0 213.2 213.9 212.3Q214.8 211.5 215.3 210.2L215.3 210.2L223.7 210.8Q223.0 213.8 221.1 216.1Q219.1 218.3 216.0 219.6Q212.9 220.8 208.8 220.8ZM236.9 220.2L227.8 220.2L227.8 187.4L236.6 187.4L236.6 193.1L236.9 193.1Q237.8 190.1 239.9 188.5Q242.0 187.0 244.8 187.0L244.8 187.0Q245.5 187.0 246.3 187.0Q247.1 187.1 247.6 187.3L247.6 187.3L247.6 195.3Q247.0 195.1 245.9 195.0Q244.8 194.8 243.8 194.8L243.8 194.8Q241.8 194.8 240.2 195.7Q238.7 196.6 237.8 198.1Q236.9 199.6 236.9 201.6L236.9 201.6L236.9 220.2ZM249.4 187.4L269.6 187.4L269.6 194.3L249.4 194.3L249.4 187.4ZM263.0 220.2L254.0 220.2L254.0 185.1Q254.0 181.5 255.4 179.2Q256.8 176.8 259.2 175.7Q261.6 174.5 264.7 174.5L264.7 174.5Q266.8 174.5 268.5 174.8Q270.3 175.1 271.1 175.4L271.1 175.4L269.5 182.2Q269.0 182.0 268.2 181.9Q267.4 181.7 266.6 181.7L266.6 181.7Q264.6 181.7 263.8 182.6Q263.0 183.6 263.0 185.2L263.0 185.2L263.0 220.2ZM286.7 220.8L286.7 220.8Q281.8 220.8 278.2 218.7Q274.5 216.6 272.6 212.8Q270.6 209.0 270.6 203.9L270.6 203.9Q270.6 198.9 272.6 195.1Q274.5 191.2 278.2 189.1Q281.8 187.0 286.7 187.0L286.7 187.0Q291.7 187.0 295.3 189.1Q298.9 191.2 300.9 195.1Q302.8 198.9 302.8 203.9L302.8 203.9Q302.8 209.0 300.9 212.8Q298.9 216.6 295.3 218.7Q291.7 220.8 286.7 220.8ZM286.8 213.8L286.8 213.8Q289.0 213.8 290.5 212.5Q292.1 211.2 292.8 209.0Q293.6 206.7 293.6 203.9L293.6 203.9Q293.6 201.0 292.8 198.8Q292.1 196.5 290.5 195.2Q289.0 193.9 286.8 193.9L286.8 193.9Q284.5 193.9 282.9 195.2Q281.4 196.5 280.6 198.8Q279.8 201.0 279.8 203.9L279.8 203.9Q279.8 206.7 280.6 209.0Q281.4 211.2 282.9 212.5Q284.5 213.8 286.8 213.8ZM315.8 220.2L306.8 220.2L306.8 187.4L315.6 187.4L315.6 193.1L315.9 193.1Q316.8 190.1 318.9 188.5Q321.0 187.0 323.8 187.0L323.8 187.0Q324.4 187.0 325.2 187.0Q326.0 187.1 326.6 187.3L326.6 187.3L326.6 195.3Q326.0 195.1 324.9 195.0Q323.7 194.8 322.8 194.8L322.8 194.8Q320.8 194.8 319.2 195.7Q317.7 196.6 316.7 198.1Q315.8 199.6 315.8 201.6L315.8 201.6L315.8 220.2ZM338.4 220.2L329.3 220.2L329.3 187.4L337.9 187.4L337.9 193.2L338.3 193.2Q339.3 190.3 341.7 188.7Q344.1 187.0 347.4 187.0L347.4 187.0Q350.8 187.0 353.2 188.7Q355.5 190.4 356.3 193.2L356.3 193.2L356.7 193.2Q357.7 190.4 360.3 188.7Q362.9 187.0 366.5 187.0L366.5 187.0Q371.1 187.0 374.0 189.9Q376.8 192.8 376.8 198.2L376.8 198.2L376.8 220.2L367.8 220.2L367.8 199.9Q367.8 197.2 366.3 195.8Q364.9 194.5 362.7 194.5L362.7 194.5Q360.2 194.5 358.9 196.1Q357.5 197.6 357.5 200.2L357.5 200.2L357.5 220.2L348.7 220.2L348.7 199.7Q348.7 197.3 347.3 195.9Q345.9 194.5 343.7 194.5L343.7 194.5Q342.2 194.5 341.0 195.2Q339.8 196.0 339.1 197.4Q338.4 198.7 338.4 200.5L338.4 200.5L338.4 220.2ZM391.3 220.8L391.3 220.8Q388.2 220.8 385.8 219.7Q383.3 218.6 381.9 216.4Q380.5 214.3 380.5 211.0L380.5 211.0Q380.5 208.3 381.5 206.4Q382.5 204.6 384.2 203.5Q385.9 202.3 388.1 201.8Q390.3 201.2 392.8 200.9L392.8 200.9Q395.6 200.6 397.4 200.4Q399.1 200.1 399.9 199.6Q400.7 199.0 400.7 198.0L400.7 198.0L400.7 197.9Q400.7 195.8 399.4 194.7Q398.2 193.6 395.8 193.6L395.8 193.6Q393.4 193.6 391.9 194.7Q390.5 195.8 390.0 197.4L390.0 197.4L381.6 196.7Q382.3 193.7 384.1 191.6Q386.0 189.4 389.0 188.2Q392.0 187.0 395.9 187.0L395.9 187.0Q398.6 187.0 401.1 187.6Q403.6 188.3 405.6 189.6Q407.5 191.0 408.6 193.1Q409.8 195.2 409.8 198.1L409.8 198.1L409.8 220.2L401.2 220.2L401.2 215.6L400.9 215.6Q400.1 217.2 398.8 218.3Q397.5 219.5 395.6 220.1Q393.8 220.8 391.3 220.8ZM393.9 214.5L393.9 214.5Q395.9 214.5 397.5 213.7Q399.0 212.9 399.9 211.6Q400.8 210.2 400.8 208.5L400.8 208.5L400.8 205.0Q400.3 205.3 399.6 205.5Q398.9 205.7 397.9 205.9Q397.0 206.1 396.1 206.2Q395.2 206.4 394.4 206.5L394.4 206.5Q392.8 206.7 391.7 207.2Q390.5 207.7 389.8 208.6Q389.1 209.4 389.1 210.7L389.1 210.7Q389.1 212.6 390.5 213.5Q391.8 214.5 393.9 214.5ZM423.9 201.2L423.9 201.2L423.9 220.2L414.8 220.2L414.8 187.4L423.5 187.4L423.5 193.2L423.9 193.2Q424.9 190.4 427.5 188.7Q430.1 187.0 433.7 187.0L433.7 187.0Q437.1 187.0 439.6 188.5Q442.2 190.0 443.6 192.7Q445.0 195.5 445.0 199.3L445.0 199.3L445.0 220.2L435.9 220.2L435.9 200.9Q435.9 197.9 434.4 196.2Q432.8 194.5 430.1 194.5L430.1 194.5Q428.3 194.5 426.9 195.3Q425.5 196.1 424.7 197.6Q423.9 199.1 423.9 201.2ZM464.9 220.8L464.9 220.8Q459.9 220.8 456.3 218.7Q452.7 216.5 450.7 212.7Q448.8 208.9 448.8 203.9L448.8 203.9Q448.8 198.9 450.8 195.1Q452.7 191.3 456.3 189.1Q459.9 187.0 464.9 187.0L464.9 187.0Q469.2 187.0 472.4 188.6Q475.6 190.1 477.5 192.9Q479.3 195.7 479.5 199.5L479.5 199.5L471.0 199.5Q470.6 197.1 469.1 195.6Q467.5 194.1 465.0 194.1L465.0 194.1Q462.9 194.1 461.3 195.2Q459.8 196.4 458.9 198.5Q458.0 200.7 458.0 203.8L458.0 203.8Q458.0 206.9 458.9 209.1Q459.8 211.3 461.3 212.5Q462.9 213.6 465.0 213.6L465.0 213.6Q466.6 213.6 467.8 213.0Q469.1 212.3 469.9 211.1Q470.7 209.9 471.0 208.2L471.0 208.2L479.5 208.2Q479.3 211.9 477.5 214.8Q475.7 217.6 472.5 219.2Q469.3 220.8 464.9 220.8ZM498.3 220.8L498.3 220.8Q493.2 220.8 489.6 218.7Q486.0 216.7 484.0 212.9Q482.0 209.1 482.0 203.9L482.0 203.9Q482.0 198.9 484.0 195.1Q486.0 191.3 489.5 189.1Q493.1 187.0 497.9 187.0L497.9 187.0Q501.2 187.0 504.0 188.0Q506.8 189.1 508.9 191.1Q511.0 193.2 512.1 196.3Q513.3 199.5 513.3 203.6L513.3 203.6L513.3 206.1L485.7 206.1L485.7 200.5L504.8 200.5Q504.8 198.5 503.9 197.0Q503.1 195.5 501.6 194.6Q500.1 193.8 498.1 193.8L498.1 193.8Q496.0 193.8 494.4 194.7Q492.8 195.7 491.9 197.3Q491.0 198.9 491.0 200.8L491.0 200.8L491.0 206.1Q491.0 208.6 491.9 210.3Q492.8 212.1 494.5 213.1Q496.2 214.0 498.4 214.0L498.4 214.0Q499.9 214.0 501.2 213.6Q502.5 213.2 503.4 212.3Q504.2 211.5 504.7 210.2L504.7 210.2L513.1 210.8Q512.5 213.8 510.5 216.1Q508.5 218.3 505.4 219.6Q502.3 220.8 498.3 220.8Z M545.2 220.2L535.7 220.2L526.8 187.4L535.9 187.4L541.0 209.4L541.3 209.4L546.6 187.4L555.6 187.4L561.0 209.3L561.2 209.3L566.2 187.4L575.4 187.4L566.5 220.2L556.9 220.2L551.3 199.6L550.9 199.6L545.2 220.2ZM587.3 220.2L578.2 220.2L578.2 187.4L587.3 187.4L587.3 220.2ZM582.8 183.2L582.8 183.2Q580.7 183.2 579.3 181.9Q577.9 180.5 577.9 178.6L577.9 178.6Q577.9 176.7 579.3 175.4Q580.7 174.0 582.8 174.0L582.8 174.0Q584.8 174.0 586.2 175.4Q587.7 176.7 587.7 178.6L587.7 178.6Q587.7 180.5 586.2 181.9Q584.8 183.2 582.8 183.2ZM590.2 187.4L609.9 187.4L609.9 194.3L590.2 194.3L590.2 187.4ZM594.7 211.3L594.7 179.6L603.8 179.6L603.8 210.1Q603.8 211.4 604.2 212.1Q604.6 212.7 605.2 213.0Q605.9 213.3 606.9 213.3L606.9 213.3Q607.5 213.3 608.1 213.2Q608.8 213.1 609.1 213.0L609.1 213.0L610.5 219.8Q609.9 220.0 608.6 220.3Q607.4 220.5 605.6 220.6L605.6 220.6Q602.3 220.7 599.9 219.7Q597.4 218.7 596.0 216.6Q594.7 214.5 594.7 211.3L594.7 211.3ZM623.6 201.2L623.6 201.2L623.6 220.2L614.5 220.2L614.5 176.5L623.3 176.5L623.3 193.2L623.7 193.2Q624.8 190.3 627.3 188.7Q629.8 187.0 633.5 187.0L633.5 187.0Q636.9 187.0 639.5 188.5Q642.0 190.0 643.4 192.7Q644.8 195.5 644.8 199.3L644.8 199.3L644.8 220.2L635.7 220.2L635.7 200.9Q635.8 197.9 634.2 196.2Q632.7 194.5 629.9 194.5L629.9 194.5Q628.1 194.5 626.6 195.3Q625.2 196.1 624.4 197.6Q623.6 199.1 623.6 201.2Z "/></clipPath><defs><pattern id="satori_pattern_id-1_0" x="0" y="0" width="1" height="1" patternUnits="objectBoundingBox"><linearGradient id="satori_biid-1_0" x1="0" y1="0" x2="1" y2="0"><stop offset="0%" stop-color="rgb(121,40,202)"/><stop offset="100%" stop-color="rgb(255,0,128)"/></linearGradient><rect x="0" y="0" width="492" height="72" fill="url(#satori_biid-1_0)"/></pattern></defs><mask id="satori_om-id-1"><rect x="154" y="164" width="492" height="72" fill="#fff"/></mask><rect x="154" y="164" width="492" height="72" fill="url(#satori_pattern_id-1_0)" clip-path="url(#satori_bct-id-1)"/><clipPath id="satori_bct-id-2"><path d="M320.4 292.2L301.8 292.2L301.8 248.5L319.3 248.5Q324.1 248.5 327.3 250.0Q330.5 251.4 332.1 253.9Q333.8 256.4 333.8 259.7L333.8 259.7Q333.8 262.3 332.7 264.2Q331.7 266.1 329.9 267.3Q328.1 268.6 325.9 269.1L325.9 269.1L325.9 269.5Q328.4 269.6 330.5 270.9Q332.7 272.2 334.1 274.6Q335.5 276.9 335.5 280.1L335.5 280.1Q335.5 283.6 333.7 286.3Q332.0 289.0 328.7 290.6Q325.3 292.2 320.4 292.2L320.4 292.2ZM311.0 273.0L311.0 284.6L318.5 284.6Q322.4 284.6 324.2 283.1Q325.9 281.7 325.9 279.2L325.9 279.2Q325.9 277.4 325.1 276.0Q324.2 274.6 322.6 273.8Q321.0 273.0 318.8 273.0L318.8 273.0L311.0 273.0ZM311.0 256.0L311.0 266.8L317.9 266.8Q319.8 266.8 321.2 266.1Q322.7 265.4 323.6 264.2Q324.4 263.0 324.4 261.2L324.4 261.2Q324.4 258.9 322.8 257.4Q321.1 256.0 318.0 256.0L318.0 256.0L311.0 256.0ZM360.3 278.2L360.3 278.2L360.3 259.4L369.3 259.4L369.3 292.2L360.6 292.2L360.6 286.2L360.3 286.2Q359.2 289.1 356.6 290.8Q354.0 292.6 350.4 292.6L350.4 292.6Q347.1 292.6 344.6 291.1Q342.1 289.6 340.7 286.9Q339.3 284.1 339.3 280.3L339.3 280.3L339.3 259.4L348.4 259.4L348.4 278.7Q348.4 281.5 349.9 283.2Q351.4 284.9 354.0 284.9L354.0 284.9Q355.7 284.9 357.1 284.2Q358.5 283.4 359.4 281.9Q360.3 280.4 360.3 278.2ZM372.0 259.4L392.2 259.4L392.2 266.3L372.0 266.3L372.0 259.4ZM385.7 292.2L376.6 292.2L376.6 257.1Q376.6 253.5 378.0 251.2Q379.4 248.8 381.8 247.7Q384.3 246.5 387.3 246.5L387.3 246.5Q389.4 246.5 391.2 246.8Q392.9 247.1 393.8 247.4L393.8 247.4L392.1 254.2Q391.6 254.0 390.8 253.9Q390.1 253.7 389.2 253.7L389.2 253.7Q387.2 253.7 386.5 254.6Q385.7 255.6 385.7 257.2L385.7 257.2L385.7 292.2ZM393.1 259.4L413.3 259.4L413.3 266.3L393.1 266.3L393.1 259.4ZM406.8 292.2L397.7 292.2L397.7 257.1Q397.7 253.5 399.1 251.2Q400.5 248.8 403.0 247.7Q405.4 246.5 408.5 246.5L408.5 246.5Q410.6 246.5 412.3 246.8Q414.0 247.1 414.9 247.4L414.9 247.4L413.3 254.2Q412.7 254.0 412.0 253.9Q411.2 253.7 410.4 253.7L410.4 253.7Q408.4 253.7 407.6 254.6Q406.8 255.6 406.8 257.2L406.8 257.2L406.8 292.2ZM430.6 292.8L430.6 292.8Q425.6 292.8 421.9 290.7Q418.3 288.7 416.3 284.9Q414.4 281.1 414.4 275.9L414.4 275.9Q414.4 270.9 416.3 267.1Q418.3 263.3 421.9 261.1Q425.4 259.0 430.3 259.0L430.3 259.0Q433.5 259.0 436.3 260.0Q439.1 261.1 441.2 263.1Q443.3 265.2 444.5 268.3Q445.6 271.5 445.6 275.6L445.6 275.6L445.6 278.1L418.0 278.1L418.0 272.5L437.1 272.5Q437.1 270.5 436.3 269.0Q435.4 267.5 433.9 266.6Q432.4 265.8 430.4 265.8L430.4 265.8Q428.3 265.8 426.8 266.7Q425.2 267.7 424.3 269.3Q423.4 270.9 423.4 272.8L423.4 272.8L423.4 278.1Q423.4 280.6 424.3 282.3Q425.2 284.1 426.8 285.1Q428.5 286.0 430.8 286.0L430.8 286.0Q432.3 286.0 433.5 285.6Q434.8 285.2 435.7 284.3Q436.6 283.5 437.1 282.2L437.1 282.2L445.5 282.8Q444.8 285.8 442.8 288.1Q440.9 290.3 437.8 291.6Q434.7 292.8 430.6 292.8ZM458.6 292.2L449.6 292.2L449.6 259.4L458.4 259.4L458.4 265.1L458.7 265.1Q459.6 262.1 461.7 260.5Q463.8 259.0 466.6 259.0L466.6 259.0Q467.3 259.0 468.0 259.0Q468.8 259.1 469.4 259.3L469.4 259.3L469.4 267.3Q468.8 267.1 467.7 267.0Q466.5 266.8 465.6 266.8L465.6 266.8Q463.6 266.8 462.0 267.7Q460.5 268.6 459.6 270.1Q458.6 271.6 458.6 273.6L458.6 273.6L458.6 292.2ZM499.3 268.8L499.3 268.8L491.0 269.3Q490.8 268.2 490.1 267.3Q489.4 266.5 488.3 266.0Q487.1 265.4 485.5 265.4L485.5 265.4Q483.4 265.4 482.0 266.3Q480.5 267.2 480.5 268.7L480.5 268.7Q480.5 269.9 481.5 270.7Q482.4 271.5 484.7 272.0L484.7 272.0L490.6 273.2Q495.4 274.1 497.7 276.3Q500.1 278.5 500.1 282.0L500.1 282.0Q500.1 285.2 498.2 287.7Q496.3 290.1 493.0 291.4Q489.8 292.8 485.5 292.8L485.5 292.8Q479.0 292.8 475.2 290.1Q471.3 287.4 470.6 282.7L470.6 282.7L479.6 282.2Q480.0 284.2 481.5 285.2Q483.1 286.3 485.5 286.3L485.5 286.3Q487.9 286.3 489.4 285.3Q490.8 284.4 490.8 282.9L490.8 282.9Q490.8 281.7 489.8 280.9Q488.8 280.1 486.6 279.7L486.6 279.7L481.0 278.5Q476.2 277.6 473.9 275.2Q471.5 272.9 471.5 269.2L471.5 269.2Q471.5 266.0 473.2 263.8Q474.9 261.5 478.1 260.2Q481.2 259.0 485.4 259.0L485.4 259.0Q491.6 259.0 495.2 261.6Q498.7 264.2 499.3 268.8Z "/></clipPath><defs><pattern id="satori_pattern_id-2_0" x="0" y="0" width="1" height="1" patternUnits="objectBoundingBox"><linearGradient id="satori_biid-2_0" x1="0" y1="0" x2="1" y2="0"><stop offset="0%" stop-color="rgb(255,77,77)"/><stop offset="100%" stop-color="rgb(249,203,40)"/></linearGradient><rect x="0" y="0" width="204" height="73" fill="url(#satori_biid-2_0)"/></pattern></defs><mask id="satori_om-id-2"><rect x="298" y="236" width="204" height="73" fill="#fff"/></mask><rect x="298" y="236" width="204" height="73" fill="url(#satori_pattern_id-2_0)" clip-path="url(#satori_bct-id-2)"/></svg>