<svg width="800" height="400" viewBox="0 0 800 400" xmlns="http://www.w3.org/2000/svg"><mask id="satori_om-id"><rect x="0" y="0" width="800" height="400" fill="#fff"/></mask><rect x="0" y="0" width="800" height="400" fill="none"/><clipPath id="satori_bct-id-0"><path d="M235.3 147.2L235.3 147.2L219.8 147.2L219.8 103.5L235.4 103.5Q242.0 103.5 246.7 106.1Q251.5 108.7 254.0 113.6Q256.6 118.5 256.6 125.3L256.6 125.3Q256.6 132.1 254.0 137.0Q251.5 141.9 246.7 144.5Q241.9 147.2 235.3 147.2ZM229.0 111.4L229.0 139.3L234.9 139.3Q239.0 139.3 241.8 137.8Q244.6 136.3 246.0 133.3Q247.4 130.2 247.4 125.3L247.4 125.3Q247.4 120.5 246.0 117.4Q244.6 114.3 241.8 112.9Q239.0 111.4 234.9 111.4L234.9 111.4L229.0 111.4ZM276.2 147.8L276.2 147.8Q271.1 147.8 267.5 145.7Q263.9 143.7 261.9 139.9Q259.9 136.1 259.9 130.9L259.9 130.9Q259.9 125.9 261.9 122.1Q263.9 118.3 267.4 116.1Q271.0 114.0 275.8 114.0L275.8 114.0Q279.0 114.0 281.9 115.0Q284.7 116.1 286.8 118.1Q288.9 120.2 290.0 123.3Q291.2 126.5 291.2 130.6L291.2 130.6L291.2 133.1L263.6 133.1L263.6 127.5L282.7 127.5Q282.7 125.5 281.8 124.0Q280.9 122.5 279.4 121.6Q277.9 120.8 276.0 120.8L276.0 120.8Q273.9 120.8 272.3 121.7Q270.7 122.7 269.8 124.3Q268.9 125.9 268.9 127.8L268.9 127.8L268.9 133.1Q268.9 135.6 269.8 137.3Q270.7 139.1 272.4 140.1Q274.0 141.0 276.3 141.0L276.3 141.0Q277.8 141.0 279.1 140.6Q280.3 140.2 281.2 139.3Q282.1 138.5 282.6 137.2L282.6 137.2L291.0 137.8Q290.4 140.8 288.4 143.1Q286.4 145.3 283.3 146.6Q280.2 147.8 276.2 147.8ZM304.2 147.2L295.1 147.2L295.1 114.4L303.8 114.4L303.8 120.2L304.2 120.2Q305.2 117.3 307.6 115.7Q309.9 114.0 313.3 114.0L313.3 114.0Q316.6 114.0 319.0 115.7Q321.4 117.4 322.2 120.2L322.2 120.2L322.5 120.2Q323.5 117.4 326.1 115.7Q328.8 114.0 332.4 114.0L332.4 114.0Q336.9 114.0 339.8 116.9Q342.7 119.8 342.7 125.2L342.7 125.2L342.7 147.2L333.6 147.2L333.6 126.9Q333.6 124.2 332.2 122.8Q330.7 121.5 328.5 121.5L328.5 121.5Q326.1 121.5 324.7 123.1Q323.3 124.6 323.3 127.2L323.3 127.2L323.3 147.2L314.5 147.2L314.5 126.7Q314.5 124.3 313.1 122.9Q311.8 121.5 309.5 121.5L309.5 121.5Q308.0 121.5 306.8 122.2Q305.6 123.0 304.9 124.4Q304.2 125.7 304.2 127.5L304.2 127.5L304.2 147.2ZM352.2 159.4L352.2 159.4Q350.5 159.4 349.0 159.2Q347.5 158.9 346.5 158.5L346.5 158.5L348.6 151.7Q350.2 152.2 351.5 152.3Q352.8 152.3 353.7 151.7Q354.7 151.0 355.2 149.5L355.2 149.5L355.8 148.1L344.0 114.4L353.6 114.4L360.4 138.5L360.7 138.5L367.5 114.4L377.2 114.4L364.4 150.7Q363.5 153.3 361.9 155.3Q360.4 157.3 358.0 158.4Q355.6 159.4 352.2 159.4ZM407.0 123.8L407.0 123.8L398.7 124.3Q398.5 123.2 397.8 122.3Q397.1 121.5 396.0 121.0Q394.8 120.4 393.2 120.4L393.2 120.4Q391.1 120.4 389.7 121.3Q388.2 122.2 388.2 123.7L388.2 123.7Q388.2 124.9 389.2 125.7Q390.1 126.5 392.4 127.0L392.4 127.0L398.3 128.2Q403.1 129.1 405.4 131.3Q407.8 133.5 407.8 137.0L407.8 137.0Q407.8 140.2 405.9 142.7Q404.0 145.1 400.7 146.4Q397.5 147.8 393.2 147.8L393.2 147.8Q386.7 147.8 382.9 145.1Q379.0 142.4 378.3 137.7L378.3 137.7L387.3 137.2Q387.7 139.2 389.2 140.2Q390.8 141.3 393.2 141.3L393.2 141.3Q395.6 141.3 397.1 140.3Q398.5 139.4 398.5 137.9L398.5 137.9Q398.5 136.7 397.5 135.9Q396.5 135.1 394.3 134.7L394.3 134.7L388.7 133.5Q383.9 132.6 381.6 130.2Q379.2 127.9 379.2 124.2L379.2 124.2Q379.2 121.0 380.9 118.8Q382.7 116.5 385.8 115.2Q388.9 114.0 393.1 114.0L393.1 114.0Q399.3 114.0 402.9 116.6Q406.4 119.2 407.0 123.8ZM409.2 114.4L428.9 114.4L428.9 121.3L409.2 121.3L409.2 114.4ZM413.7 138.3L413.7 106.6L422.8 106.6L422.8 137.1Q422.8 138.4 423.1 139.1Q423.5 139.7 424.2 140.0Q424.9 140.3 425.8 140.3L425.8 140.3Q426.5 140.3 427.1 140.2Q427.7 140.1 428.1 140.0L428.1 140.0L429.5 146.8Q428.8 147.0 427.6 147.3Q426.4 147.5 424.6 147.6L424.6 147.6Q421.3 147.7 418.8 146.7Q416.4 145.7 415.0 143.6Q413.7 141.5 413.7 138.3L413.7 138.3ZM441.9 147.2L432.8 147.2L432.8 114.4L441.9 114.4L441.9 147.2ZM437.4 110.2L437.4 110.2Q435.3 110.2 433.9 108.9Q432.5 107.5 432.5 105.6L432.5 105.6Q432.5 103.7 433.9 102.4Q435.3 101.0 437.4 101.0L437.4 101.0Q439.4 101.0 440.8 102.4Q442.3 103.7 442.3 105.6L442.3 105.6Q442.3 107.5 440.8 108.9Q439.4 110.2 437.4 110.2ZM444.5 114.4L464.7 114.4L464.7 121.3L444.5 121.3L444.5 114.4ZM458.2 147.2L449.2 147.2L449.2 112.1Q449.2 108.5 450.6 106.2Q452.0 103.8 454.4 102.7Q456.8 101.5 459.9 101.5L459.9 101.5Q462.0 101.5 463.7 101.8Q465.5 102.1 466.3 102.4L466.3 102.4L464.7 109.2Q464.2 109.0 463.4 108.9Q462.6 108.7 461.8 108.7L461.8 108.7Q459.8 108.7 459.0 109.6Q458.2 110.6 458.2 112.2L458.2 112.2L458.2 147.2ZM473.9 159.4L473.9 159.4Q472.2 159.4 470.6 159.2Q469.1 158.9 468.2 158.5L468.2 158.5L470.2 151.7Q471.8 152.2 473.1 152.3Q474.4 152.3 475.3 151.7Q476.3 151.0 476.9 149.5L476.9 149.5L477.4 148.1L465.7 114.4L475.2 114.4L482.0 138.5L482.3 138.5L489.2 114.4L498.8 114.4L486.1 150.7Q485.1 153.3 483.6 155.3Q482.0 157.3 479.6 158.4Q477.2 159.4 473.9 159.4ZM510.5 147.2L501.4 147.2L501.4 114.4L510.5 114.4L510.5 147.2ZM506.0 110.2L506.0 110.2Q504.0 110.2 502.5 108.9Q501.1 107.5 501.1 105.6L501.1 105.6Q501.1 103.7 502.5 102.4Q504.0 101.0 506.0 101.0L506.0 101.0Q508.0 101.0 509.5 102.4Q510.9 103.7 510.9 105.6L510.9 105.6Q510.9 107.5 509.5 108.9Q508.0 110.2 506.0 110.2ZM524.8 128.2L524.8 128.2L524.8 147.2L515.8 147.2L515.8 114.4L524.4 114.4L524.4 120.2L524.8 120.2Q525.9 117.4 528.4 115.7Q531.0 114.0 534.6 114.0L534.6 114.0Q538.0 114.0 540.6 115.5Q543.1 117.0 544.5 119.7Q545.9 122.5 545.9 126.3L545.9 126.3L545.9 147.2L536.8 147.2L536.8 127.9Q536.9 124.9 535.3 123.2Q533.8 121.5 531.0 121.5L531.0 121.5Q529.2 121.5 527.8 122.3Q526.4 123.1 525.6 124.6Q524.8 126.1 524.8 128.2ZM565.8 160.1L565.8 160.1Q561.4 160.1 558.3 158.9Q555.1 157.7 553.3 155.6Q551.4 153.6 550.8 151.0L550.8 151.0L559.2 149.9Q559.6 150.8 560.5 151.7Q561.3 152.6 562.7 153.1Q564.0 153.6 566.0 153.6L566.0 153.6Q569.0 153.6 570.9 152.2Q572.8 150.7 572.8 147.4L572.8 147.4L572.8 141.4L572.5 141.4Q571.9 142.7 570.7 143.9Q569.5 145.2 567.6 145.9Q565.7 146.7 563.1 146.7L563.1 146.7Q559.4 146.7 556.4 145.0Q553.4 143.3 551.6 139.7Q549.8 136.2 549.8 130.7L549.8 130.7Q549.8 125.2 551.7 121.4Q553.5 117.7 556.5 115.9Q559.5 114.0 563.1 114.0L563.1 114.0Q565.8 114.0 567.7 114.9Q569.6 115.9 570.7 117.2Q571.8 118.6 572.5 119.9L572.5 119.9L572.8 119.9L572.8 114.4L581.8 114.4L581.8 147.5Q581.8 151.7 579.8 154.5Q577.7 157.3 574.1 158.7Q570.5 160.1 565.8 160.1ZM566.0 139.9L566.0 139.9Q568.2 139.9 569.7 138.8Q571.2 137.7 572.1 135.6Q572.9 133.6 572.9 130.7L572.9 130.7Q572.9 127.8 572.1 125.7Q571.3 123.6 569.7 122.4Q568.2 121.2 566.0 121.2L566.0 121.2Q563.8 121.2 562.2 122.4Q560.7 123.6 559.9 125.8Q559.1 127.9 559.1 130.7L559.1 130.7Q559.1 133.5 559.9 135.6Q560.7 137.6 562.2 138.8Q563.8 139.9 566.0 139.9Z "/></clipPath><defs><pattern id="satori_pattern_id-0_0" x="0" y="0" width="1" height="1" patternUnits="objectBoundingBox"><linearGradient id="satori_biid-0_0" x1="0" y1="0" x2="1" y2="0"><stop offset="0%" stop-color="rgb(0,124,240)"/><stop offset="100%" stop-color="rgb(0,223,216)"/></linearGradient><rect x="0" y="0" width="368" height="73" fill="url(#satori_biid-0_0)"/></pattern></defs><mask id="satori_om-id-0"><rect x="216" y="91" width="368" height="73" fill="#fff"/></mask><rect x="216" y="91" width="368" height="73" fill="url(#satori_pattern_id-0_0)" clip-path="url(#satori_bct-id-0)"/><clipPath id="satori_bct-id-1"><path d="M191.3 191.8L191.3 191.8L182.0 191.8Q181.7 190.0 180.9 188.6Q180.1 187.2 178.9 186.2Q177.7 185.2 176.0 184.6Q174.4 184.1 172.6 184.1L172.6 184.1Q169.2 184.1 166.7 185.8Q164.1 187.4 162.8 190.6Q161.4 193.8 161.4 198.3L161.4 198.3Q161.4 203.0 162.8 206.2Q164.2 209.4 166.7 211.0Q169.2 212.6 172.5 212.6L172.5 212.6Q174.4 212.6 175.9 212.1Q177.5 211.6 178.8 210.7Q180.0 209.7 180.8 208.4Q181.6 207.0 182.0 205.2L182.0 205.2L191.3 205.3Q190.9 208.3 189.5 211.1Q188.1 213.9 185.6 216.0Q183.2 218.2 179.9 219.5Q176.5 220.8 172.4 220.8L172.4 220.8Q166.5 220.8 161.9 218.1Q157.3 215.5 154.7 210.5Q152.0 205.5 152.0 198.3L152.0 198.3Q152.0 191.2 154.7 186.2Q157.4 181.2 162.0 178.6Q166.6 175.9 172.4 175.9L172.4 175.9Q176.1 175.9 179.4 177.0Q182.6 178.1 185.2 180.1Q187.7 182.1 189.3 185.1Q190.8 188.0 191.3 191.8ZM210.5 220.8L210.5 220.8Q205.6 220.8 202.0 218.7Q198.3 216.6 196.4 212.8Q194.4 209.0 194.4 203.9L194.4 203.9Q194.4 198.9 196.4 195.1Q198.3 191.2 202.0 189.1Q205.6 187.0 210.5 187.0L210.5 187.0Q215.5 187.0 219.1 189.1Q222.7 191.2 224.7 195.1Q226.6 198.9 226.6 203.9L226.6 203.9Q226.6 209.0 224.7 212.8Q222.7 216.6 219.1 218.7Q215.5 220.8 210.5 220.8ZM210.6 213.8L210.6 213.8Q212.8 213.8 214.4 212.5Q215.9 211.2 216.6 209.0Q217.4 206.7 217.4 203.9L217.4 203.9Q217.4 201.0 216.6 198.8Q215.9 196.5 214.4 195.2Q212.8 193.9 210.6 193.9L210.6 193.9Q208.3 193.9 206.8 195.2Q205.2 196.5 204.4 198.8Q203.7 201.0 203.7 203.9L203.7 203.9Q203.7 206.7 204.4 209.0Q205.2 211.2 206.8 212.5Q208.3 213.8 210.6 213.8ZM230.6 176.5L239.6 176.5L239.6 220.2L230.6 220.2L230.6 176.5ZM265.9 206.2L265.9 206.2L265.9 187.4L275.0 187.4L275.0 220.2L266.2 220.2L266.2 214.2L265.9 214.2Q264.8 217.1 262.2 218.8Q259.7 220.6 256.0 220.6L256.0 220.6Q252.7 220.6 250.2 219.1Q247.7 217.6 246.3 214.9Q244.9 212.1 244.9 208.3L244.9 208.3L244.9 187.4L254.0 187.4L254.0 206.7Q254.0 209.5 255.5 211.2Q257.1 212.9 259.6 212.9L259.6 212.9Q261.3 212.9 262.7 212.2Q264.1 211.4 265.0 209.9Q265.9 208.4 265.9 206.2ZM289.3 220.2L280.2 220.2L280.2 187.4L288.8 187.4L288.8 193.2L289.2 193.2Q290.3 190.3 292.6 188.7Q295.0 187.0 298.4 187.0L298.4 187.0Q301.7 187.0 304.1 188.7Q306.4 190.4 307.2 193.2L307.2 193.2L307.6 193.2Q308.6 190.4 311.2 188.7Q313.8 187.0 317.4 187.0L317.4 187.0Q322.0 187.0 324.9 189.9Q327.8 192.8 327.8 198.2L327.8 198.2L327.8 220.2L318.7 220.2L318.7 199.9Q318.7 197.2 317.3 195.8Q315.8 194.5 313.6 194.5L313.6 194.5Q311.2 194.5 309.8 196.1Q308.4 197.6 308.4 200.2L308.4 200.2L308.4 220.2L299.6 220.2L299.6 199.7Q299.6 197.3 298.2 195.9Q296.8 194.5 294.6 194.5L294.6 194.5Q293.1 194.5 291.9 195.2Q290.7 196.0 290.0 197.4Q289.3 198.7 289.3 200.5L289.3 200.5L289.3 220.2ZM342.0 201.2L342.0 201.2L342.0 220.2L332.9 220.2L332.9 187.4L341.6 187.4L341.6 193.2L341.9 193.2Q343.0 190.4 345.6 188.7Q348.1 187.0 351.8 187.0L351.8 187.0Q355.2 187.0 357.7 188.5Q360.3 190.0 361.7 192.7Q363.1 195.5 363.1 199.3L363.1 199.3L363.1 220.2L354.0 220.2L354.0 200.9Q354.0 197.9 352.5 196.2Q350.9 194.5 348.2 194.5L348.2 194.5Q346.4 194.5 345.0 195.3Q343.6 196.1 342.8 197.6Q342.0 199.1 342.0 201.2ZM377.6 220.8L377.6 220.8Q374.4 220.8 372.0 219.7Q369.5 218.6 368.1 216.4Q366.7 214.3 366.7 211.0L366.7 211.0Q366.7 208.3 367.7 206.4Q368.7 204.6 370.4 203.5Q372.1 202.3 374.3 201.8Q376.6 201.2 379.0 200.9L379.0 200.9Q381.8 200.6 383.6 200.4Q385.3 200.1 386.1 199.6Q386.9 199.0 386.9 198.0L386.9 198.0L386.9 197.9Q386.9 195.8 385.6 194.7Q384.4 193.6 382.0 193.6L382.0 193.6Q379.6 193.6 378.2 194.7Q376.7 195.8 376.2 197.4L376.2 197.4L367.8 196.7Q368.5 193.7 370.4 191.6Q372.2 189.4 375.2 188.2Q378.2 187.0 382.1 187.0L382.1 187.0Q384.8 187.0 387.3 187.6Q389.8 188.3 391.8 189.6Q393.7 191.0 394.9 193.1Q396.0 195.2 396.0 198.1L396.0 198.1L396.0 220.2L387.4 220.2L387.4 215.6L387.1 215.6Q386.3 217.2 385.0 218.3Q383.7 219.5 381.8 220.1Q380.0 220.8 377.6 220.8ZM380.2 214.5L380.2 214.5Q382.2 214.5 383.7 213.7Q385.2 212.9 386.1 211.6Q387.0 210.2 387.0 208.5L387.0 208.5L387.0 205.0Q386.5 205.3 385.8 205.5Q385.1 205.7 384.2 205.9Q383.2 206.1 382.3 206.2Q381.4 206.4 380.7 206.5L380.7 206.5Q379.1 206.7 377.9 207.2Q376.7 207.7 376.0 208.6Q375.4 209.4 375.4 210.7L375.4 210.7Q375.4 212.6 376.7 213.5Q378.1 214.5 380.2 214.5ZM410.1 220.2L401.0 220.2L401.0 187.4L409.8 187.4L409.8 193.1L410.2 193.1Q411.1 190.1 413.2 188.5Q415.3 187.0 418.0 187.0L418.0 187.0Q418.7 187.0 419.5 187.0Q420.3 187.1 420.9 187.3L420.9 187.3L420.9 195.3Q420.3 195.1 419.1 195.0Q418.0 194.8 417.1 194.8L417.1 194.8Q415.1 194.8 413.5 195.7Q411.9 196.6 411.0 198.1Q410.1 199.6 410.1 201.6L410.1 201.6L410.1 220.2Z M468.2 189.1L459.3 189.1Q459.1 186.5 457.1 185.1Q455.2 183.6 451.9 183.6L451.9 183.6Q449.6 183.6 448.0 184.3Q446.5 184.9 445.7 186.0Q444.8 187.1 444.8 188.5L444.8 188.5Q444.8 189.7 445.4 190.6Q445.9 191.4 446.9 192.1Q447.8 192.7 449.1 193.2Q450.3 193.6 451.8 193.9L451.8 193.9L455.7 194.9Q458.5 195.5 460.9 196.6Q463.3 197.6 465.0 199.2Q466.8 200.7 467.8 202.9Q468.7 205.0 468.8 207.7L468.8 207.7Q468.7 211.7 466.7 214.6Q464.7 217.6 460.9 219.2Q457.1 220.8 451.8 220.8L451.8 220.8Q446.5 220.8 442.6 219.2Q438.7 217.5 436.5 214.4Q434.3 211.2 434.2 206.5L434.2 206.5L443.2 206.5Q443.3 208.7 444.4 210.1Q445.6 211.6 447.4 212.3Q449.3 213.0 451.7 213.0L451.7 213.0Q454.1 213.0 455.8 212.4Q457.5 211.7 458.5 210.5Q459.4 209.3 459.4 207.7L459.4 207.7Q459.4 206.2 458.6 205.2Q457.7 204.2 456.1 203.5Q454.4 202.8 452.0 202.2L452.0 202.2L447.3 201.0Q441.8 199.7 438.6 196.8Q435.4 194.0 435.4 189.1L435.4 189.1Q435.4 185.2 437.5 182.2Q439.7 179.3 443.4 177.6Q447.2 175.9 451.9 175.9L451.9 175.9Q456.8 175.9 460.4 177.6Q464.0 179.3 466.1 182.2Q468.1 185.2 468.2 189.1L468.2 189.1ZM470.5 187.4L490.2 187.4L490.2 194.3L470.5 194.3L470.5 187.4ZM474.9 211.3L474.9 179.6L484.0 179.6L484.0 210.1Q484.0 211.4 484.4 212.1Q484.8 212.7 485.5 213.0Q486.2 213.3 487.1 213.3L487.1 213.3Q487.7 213.3 488.4 213.2Q489 213.1 489.3 213.0L489.3 213.0L490.8 219.8Q490.1 220.0 488.9 220.3Q487.6 220.5 485.8 220.6L485.8 220.6Q482.6 220.7 480.1 219.7Q477.6 218.7 476.3 216.6Q474.9 214.5 474.9 211.3L474.9 211.3ZM508.5 220.8L508.5 220.8Q503.6 220.8 499.9 218.7Q496.3 216.6 494.4 212.8Q492.4 209.0 492.4 203.9L492.4 203.9Q492.4 198.9 494.4 195.1Q496.3 191.2 499.9 189.1Q503.6 187.0 508.5 187.0L508.5 187.0Q513.5 187.0 517.1 189.1Q520.7 191.2 522.7 195.1Q524.6 198.9 524.6 203.9L524.6 203.9Q524.6 209.0 522.7 212.8Q520.7 216.6 517.1 218.7Q513.5 220.8 508.5 220.8ZM508.6 213.8L508.6 213.8Q510.8 213.8 512.3 212.5Q513.8 211.2 514.6 209.0Q515.4 206.7 515.4 203.9L515.4 203.9Q515.4 201.0 514.6 198.8Q513.8 196.5 512.3 195.2Q510.8 193.9 508.6 193.9L508.6 193.9Q506.3 193.9 504.7 195.2Q503.2 196.5 502.4 198.8Q501.6 201.0 501.6 203.9L501.6 203.9Q501.6 206.7 502.4 209.0Q503.2 211.2 504.7 212.5Q506.3 213.8 508.6 213.8ZM537.6 220.2L528.6 220.2L528.6 187.4L537.4 187.4L537.4 193.1L537.7 193.1Q538.6 190.1 540.7 188.5Q542.8 187.0 545.6 187.0L545.6 187.0Q546.2 187.0 547.0 187.0Q547.8 187.1 548.4 187.3L548.4 187.3L548.4 195.3Q547.8 195.1 546.6 195.0Q545.5 194.8 544.6 194.8L544.6 194.8Q542.6 194.8 541.0 195.7Q539.4 196.6 538.5 198.1Q537.6 199.6 537.6 201.6L537.6 201.6L537.6 220.2ZM559.5 220.8L559.5 220.8Q556.4 220.8 553.9 219.7Q551.5 218.6 550.0 216.4Q548.6 214.3 548.6 211.0L548.6 211.0Q548.6 208.3 549.6 206.4Q550.6 204.6 552.4 203.5Q554.1 202.3 556.3 201.8Q558.5 201.2 560.9 200.9L560.9 200.9Q563.8 200.6 565.5 200.4Q567.3 200.1 568.1 199.6Q568.8 199.0 568.8 198.0L568.8 198.0L568.8 197.9Q568.8 195.8 567.6 194.7Q566.3 193.6 564.0 193.6L564.0 193.6Q561.5 193.6 560.1 194.7Q558.6 195.8 558.2 197.4L558.2 197.4L549.8 196.7Q550.4 193.7 552.3 191.6Q554.2 189.4 557.1 188.2Q560.1 187.0 564.0 187.0L564.0 187.0Q566.8 187.0 569.3 187.6Q571.8 188.3 573.7 189.6Q575.7 191.0 576.8 193.1Q577.9 195.2 577.9 198.1L577.9 198.1L577.9 220.2L569.3 220.2L569.3 215.6L569.1 215.6Q568.3 217.2 566.9 218.3Q565.6 219.5 563.8 220.1Q561.9 220.8 559.5 220.8ZM562.1 214.5L562.1 214.5Q564.1 214.5 565.6 213.7Q567.2 212.9 568.0 211.6Q568.9 210.2 568.9 208.5L568.9 208.5L568.9 205.0Q568.5 205.3 567.7 205.5Q567.0 205.7 566.1 205.9Q565.2 206.1 564.3 206.2Q563.3 206.4 562.6 206.5L562.6 206.5Q561.0 206.7 559.8 207.2Q558.6 207.7 558.0 208.6Q557.3 209.4 557.3 210.7L557.3 210.7Q557.3 212.6 558.6 213.5Q560.0 214.5 562.1 214.5ZM597.7 233.1L597.7 233.1Q593.3 233.1 590.2 231.9Q587.0 230.7 585.2 228.6Q583.3 226.6 582.8 224.0L582.8 224.0L591.2 222.9Q591.5 223.8 592.4 224.7Q593.2 225.6 594.6 226.1Q596.0 226.6 597.9 226.6L597.9 226.6Q600.9 226.6 602.8 225.2Q604.8 223.7 604.8 220.4L604.8 220.4L604.8 214.4L604.4 214.4Q603.8 215.7 602.6 216.9Q601.4 218.2 599.5 218.9Q597.6 219.7 595.0 219.7L595.0 219.7Q591.3 219.7 588.3 218.0Q585.3 216.3 583.5 212.7Q581.8 209.2 581.8 203.7L581.8 203.7Q581.8 198.2 583.6 194.4Q585.4 190.7 588.4 188.9Q591.4 187.0 595.0 187.0L595.0 187.0Q597.8 187.0 599.6 187.9Q601.5 188.9 602.6 190.2Q603.7 191.6 604.4 192.9L604.4 192.9L604.7 192.9L604.7 187.4L613.7 187.4L613.7 220.5Q613.7 224.7 611.7 227.5Q609.6 230.3 606.0 231.7Q602.4 233.1 597.7 233.1ZM597.9 212.9L597.9 212.9Q600.1 212.9 601.6 211.8Q603.2 210.7 604.0 208.6Q604.8 206.6 604.8 203.7L604.8 203.7Q604.8 200.8 604.0 198.7Q603.2 196.6 601.6 195.4Q600.1 194.2 597.9 194.2L597.9 194.2Q595.7 194.2 594.1 195.4Q592.6 196.6 591.8 198.8Q591.0 200.9 591.0 203.7L591.0 203.7Q591.0 206.5 591.8 208.6Q592.6 210.6 594.1 211.8Q595.7 212.9 597.9 212.9ZM633.9 220.8L633.9 220.8Q628.8 220.8 625.2 218.7Q621.6 216.7 619.6 212.9Q617.6 209.1 617.6 203.9L617.6 203.9Q617.6 198.9 619.6 195.1Q621.6 191.3 625.1 189.1Q628.7 187.0 633.5 187.0L633.5 187.0Q636.8 187.0 639.6 188.0Q642.4 189.1 644.5 191.1Q646.6 193.2 647.7 196.3Q648.9 199.5 648.9 203.6L648.9 203.6L648.9 206.1L621.3 206.1L621.3 200.5L640.4 200.5Q640.4 198.5 639.5 197.0Q638.7 195.5 637.1 194.6Q635.6 193.8 633.7 193.8L633.7 193.8Q631.6 193.8 630.0 194.7Q628.4 195.7 627.5 197.3Q626.6 198.9 626.6 200.8L626.6 200.8L626.6 206.1Q626.6 208.6 627.5 210.3Q628.4 212.1 630.1 213.1Q631.7 214.0 634.0 214.0L634.0 214.0Q635.5 214.0 636.8 213.6Q638.1 213.2 639.0 212.3Q639.8 211.5 640.3 210.2L640.3 210.2L648.7 210.8Q648.1 213.8 646.1 216.1Q644.1 218.3 641.0 219.6Q637.9 220.8 633.9 220.8Z "/></clipPath><defs><pattern id="satori_pattern_id-1_0" x="0" y="0" width="1" height="1" patternUnits="objectBoundingBox"><linearGradient id="satori_biid-1_0" x1="0" y1="0" x2="1" y2="0"><stop offset="0%" stop-color="rgb(121,40,202)"/><stop offset="100%" stop-color="rgb(255,0,128)"/></linearGradient><rect x="0" y="0" width="502" height="72" fill="url(#satori_biid-1_0)"/></pattern></defs><mask id="satori_om-id-1"><rect x="149" y="164" width="502" height="72" fill="#fff"/></mask><rect x="149" y="164" width="502" height="72" fill="url(#satori_pattern_id-1_0)" clip-path="url(#satori_bct-id-1)"/><clipPath id="satori_bct-id-2"><path d="M317.8 292.2L317.8 248.5L329.2 248.5L341.2 277.8L341.7 277.8L353.7 248.5L365.1 248.5L365.1 292.2L356.1 292.2L356.1 263.8L355.8 263.8L344.5 291.9L338.4 291.9L327.1 263.7L326.7 263.7L326.7 292.2L317.8 292.2ZM385.3 292.8L385.3 292.8Q380.3 292.8 376.7 290.7Q373.1 288.6 371.1 284.8Q369.2 281.0 369.2 275.9L369.2 275.9Q369.2 270.9 371.1 267.1Q373.1 263.2 376.7 261.1Q380.3 259.0 385.3 259.0L385.3 259.0Q390.3 259.0 393.9 261.1Q397.5 263.2 399.4 267.1Q401.4 270.9 401.4 275.9L401.4 275.9Q401.4 281.0 399.4 284.8Q397.5 288.6 393.9 290.7Q390.3 292.8 385.3 292.8ZM385.3 285.8L385.3 285.8Q387.6 285.8 389.1 284.5Q390.6 283.2 391.4 281.0Q392.2 278.7 392.2 275.9L392.2 275.9Q392.2 273.0 391.4 270.8Q390.6 268.5 389.1 267.2Q387.6 265.9 385.3 265.9L385.3 265.9Q383.1 265.9 381.5 267.2Q380.0 268.5 379.2 270.8Q378.4 273.0 378.4 275.9L378.4 275.9Q378.4 278.7 379.2 281.0Q380.0 283.2 381.5 284.5Q383.1 285.8 385.3 285.8ZM417.4 292.7L417.4 292.7Q413.7 292.7 410.6 290.8Q407.6 288.8 405.9 285.1Q404.1 281.3 404.1 275.8L404.1 275.8Q404.1 270.2 405.9 266.5Q407.7 262.7 410.7 260.9Q413.8 259.0 417.4 259.0L417.4 259.0Q420.1 259.0 422.0 259.9Q423.8 260.9 424.9 262.2Q426.1 263.6 426.7 264.9L426.7 264.9L427.0 264.9L427.0 248.5L436.0 248.5L436.0 292.2L427.1 292.2L427.1 286.9L426.7 286.9Q426.0 288.3 424.9 289.6Q423.7 290.9 421.9 291.8Q420.0 292.7 417.4 292.7ZM420.3 285.5L420.3 285.5Q422.5 285.5 424.0 284.3Q425.5 283.1 426.3 280.9Q427.1 278.7 427.1 275.8L427.1 275.8Q427.1 272.9 426.3 270.7Q425.5 268.6 424.0 267.4Q422.5 266.2 420.3 266.2L420.3 266.2Q418.0 266.2 416.5 267.4Q415.0 268.7 414.2 270.8Q413.4 273.0 413.4 275.8L413.4 275.8Q413.4 278.7 414.2 280.8Q415.0 283.0 416.5 284.2Q418.0 285.5 420.3 285.5ZM456.4 292.8L456.4 292.8Q451.3 292.8 447.7 290.7Q444.0 288.7 442.1 284.9Q440.1 281.1 440.1 275.9L440.1 275.9Q440.1 270.9 442.1 267.1Q444.0 263.3 447.6 261.1Q451.2 259.0 456.0 259.0L456.0 259.0Q459.2 259.0 462.0 260.0Q464.8 261.1 466.9 263.1Q469.0 265.2 470.2 268.3Q471.4 271.5 471.4 275.6L471.4 275.6L471.4 278.1L443.7 278.1L443.7 272.5L462.8 272.5Q462.8 270.5 462.0 269.0Q461.1 267.5 459.6 266.6Q458.1 265.8 456.1 265.8L456.1 265.8Q454.1 265.8 452.5 266.7Q450.9 267.7 450.0 269.3Q449.1 270.9 449.1 272.8L449.1 272.8L449.1 278.1Q449.1 280.6 450.0 282.3Q450.9 284.1 452.6 285.1Q454.2 286.0 456.5 286.0L456.5 286.0Q458.0 286.0 459.3 285.6Q460.5 285.2 461.4 284.3Q462.3 283.5 462.8 282.2L462.8 282.2L471.2 282.8Q470.5 285.8 468.6 288.1Q466.6 290.3 463.5 291.6Q460.4 292.8 456.4 292.8ZM475.3 248.5L484.4 248.5L484.4 292.2L475.3 292.2L475.3 248.5Z "/></clipPath><defs><pattern id="satori_pattern_id-2_0" x="0" y="0" width="1" height="1" patternUnits="objectBoundingBox"><linearGradient id="satori_biid-2_0" x1="0" y1="0" x2="1" y2="0"><stop offset="0%" stop-color="rgb(255,77,77)"/><stop offset="100%" stop-color="rgb(249,203,40)"/></linearGradient><rect x="0" y="0" width="172" height="73" fill="url(#satori_biid-2_0)"/></pattern></defs><mask id="satori_om-id-2"><rect x="314" y="236" width="172" height="73" fill="#fff"/></mask><rect x="314" y="236" width="172" height="73" fill="url(#satori_pattern_id-2_0)" clip-path="url(#satori_bct-id-2)"/></svg>