<svg width="800" height="400" viewBox="0 0 800 400" xmlns="http://www.w3.org/2000/svg"><mask id="satori_om-id"><rect x="0" y="0" width="800" height="400" fill="#fff"/></mask><rect x="0" y="0" width="800" height="400" fill="none"/><clipPath id="satori_bct-id-0"><path d="M235.3 147.2L235.3 147.2L219.8 147.2L219.8 103.5L235.4 103.5Q242.0 103.5 246.7 106.1Q251.5 108.7 254.0 113.6Q256.6 118.5 256.6 125.3L256.6 125.3Q256.6 132.1 254.0 137.0Q251.5 141.9 246.7 144.5Q241.9 147.2 235.3 147.2ZM229.0 111.4L229.0 139.3L234.9 139.3Q239.0 139.3 241.8 137.8Q244.6 136.3 246.0 133.3Q247.4 130.2 247.4 125.3L247.4 125.3Q247.4 120.5 246.0 117.4Q244.6 114.3 241.8 112.9Q239.0 111.4 234.9 111.4L234.9 111.4L229.0 111.4ZM276.2 147.8L276.2 147.8Q271.1 147.8 267.5 145.7Q263.9 143.7 261.9 139.9Q259.9 136.1 259.9 130.9L259.9 130.9Q259.9 125.9 261.9 122.1Q263.9 118.3 267.4 116.1Q271.0 114.0 275.8 114.0L275.8 114.0Q279.0 114.0 281.9 115.0Q284.7 116.1 286.8 118.1Q288.9 120.2 290.0 123.3Q291.2 126.5 291.2 130.6L291.2 130.6L291.2 133.1L263.6 133.1L263.6 127.5L282.7 127.5Q282.7 125.5 281.8 124.0Q280.9 122.5 279.4 121.6Q277.9 120.8 276.0 120.8L276.0 120.8Q273.9 120.8 272.3 121.7Q270.7 122.7 269.8 124.3Q268.9 125.9 268.9 127.8L268.9 127.8L268.9 133.1Q268.9 135.6 269.8 137.3Q270.7 139.1 272.4 140.1Q274.0 141.0 276.3 141.0L276.3 141.0Q277.8 141.0 279.1 140.6Q280.3 140.2 281.2 139.3Q282.1 138.5 282.6 137.2L282.6 137.2L291.0 137.8Q290.4 140.8 288.4 143.1Q286.4 145.3 283.3 146.6Q280.2 147.8 276.2 147.8ZM304.2 147.2L295.1 147.2L295.1 114.4L303.8 114.4L303.8 120.2L304.2 120.2Q305.2 117.3 307.6 115.7Q309.9 114.0 313.3 114.0L313.3 114.0Q316.6 114.0 319.0 115.7Q321.4 117.4 322.2 120.2L322.2 120.2L322.5 120.2Q323.5 117.4 326.1 115.7Q328.8 114.0 332.4 114.0L332.4 114.0Q336.9 114.0 339.8 116.9Q342.7 119.8 342.7 125.2L342.7 125.2L342.7 147.2L333.6 147.2L333.6 126.9Q333.6 124.2 332.2 122.8Q330.7 121.5 328.5 121.5L328.5 121.5Q326.1 121.5 324.7 123.1Q323.3 124.6 323.3 127.2L323.3 127.2L323.3 147.2L314.5 147.2L314.5 126.7Q314.5 124.3 313.1 122.9Q311.8 121.5 309.5 121.5L309.5 121.5Q308.0 121.5 306.8 122.2Q305.6 123.0 304.9 124.4Q304.2 125.7 304.2 127.5L304.2 127.5L304.2 147.2ZM352.2 159.4L352.2 159.4Q350.5 159.4 349.0 159.2Q347.5 158.9 346.5 158.5L346.5 158.5L348.6 151.7Q350.2 152.2 351.5 152.3Q352.8 152.3 353.7 151.7Q354.7 151.0 355.2 149.5L355.2 149.5L355.8 148.1L344.0 114.4L353.6 114.4L360.4 138.5L360.7 138.5L367.5 114.4L377.2 114.4L364.4 150.7Q363.5 153.3 361.9 155.3Q360.4 157.3 358.0 158.4Q355.6 159.4 352.2 159.4ZM407.0 123.8L407.0 123.8L398.7 124.3Q398.5 123.2 397.8 122.3Q397.1 121.5 396.0 121.0Q394.8 120.4 393.2 120.4L393.2 120.4Q391.1 120.4 389.7 121.3Q388.2 122.2 388.2 123.7L388.2 123.7Q388.2 124.9 389.2 125.7Q390.1 126.5 392.4 127.0L392.4 127.0L398.3 128.2Q403.1 129.1 405.4 131.3Q407.8 133.5 407.8 137.0L407.8 137.0Q407.8 140.2 405.9 142.7Q404.0 145.1 400.7 146.4Q397.5 147.8 393.2 147.8L393.2 147.8Q386.7 147.8 382.9 145.1Q379.0 142.4 378.3 137.7L378.3 137.7L387.3 137.2Q387.7 139.2 389.2 140.2Q390.8 141.3 393.2 141.3L393.2 141.3Q395.6 141.3 397.1 140.3Q398.5 139.4 398.5 137.9L398.5 137.9Q398.5 136.7 397.5 135.9Q396.5 135.1 394.3 134.7L394.3 134.7L388.7 133.5Q383.9 132.6 381.6 130.2Q379.2 127.9 379.2 124.2L379.2 124.2Q379.2 121.0 380.9 118.8Q382.7 116.5 385.8 115.2Q388.9 114.0 393.1 114.0L393.1 114.0Q399.3 114.0 402.9 116.6Q406.4 119.2 407.0 123.8ZM409.2 114.4L428.9 114.4L428.9 121.3L409.2 121.3L409.2 114.4ZM413.7 138.3L413.7 106.6L422.8 106.6L422.8 137.1Q422.8 138.4 423.1 139.1Q423.5 139.7 424.2 140.0Q424.9 140.3 425.8 140.3L425.8 140.3Q426.5 140.3 427.1 140.2Q427.7 140.1 428.1 140.0L428.1 140.0L429.5 146.8Q428.8 147.0 427.6 147.3Q426.4 147.5 424.6 147.6L424.6 147.6Q421.3 147.7 418.8 146.7Q416.4 145.7 415.0 143.6Q413.7 141.5 413.7 138.3L413.7 138.3ZM441.9 147.2L432.8 147.2L432.8 114.4L441.9 114.4L441.9 147.2ZM437.4 110.2L437.4 110.2Q435.3 110.2 433.9 108.9Q432.5 107.5 432.5 105.6L432.5 105.6Q432.5 103.7 433.9 102.4Q435.3 101.0 437.4 101.0L437.4 101.0Q439.4 101.0 440.8 102.4Q442.3 103.7 442.3 105.6L442.3 105.6Q442.3 107.5 440.8 108.9Q439.4 110.2 437.4 110.2ZM444.5 114.4L464.7 114.4L464.7 121.3L444.5 121.3L444.5 114.4ZM458.2 147.2L449.2 147.2L449.2 112.1Q449.2 108.5 450.6 106.2Q452.0 103.8 454.4 102.7Q456.8 101.5 459.9 101.5L459.9 101.5Q462.0 101.5 463.7 101.8Q465.5 102.1 466.3 102.4L466.3 102.4L464.7 109.2Q464.2 109.0 463.4 108.9Q462.6 108.7 461.8 108.7L461.8 108.7Q459.8 108.7 459.0 109.6Q458.2 110.6 458.2 112.2L458.2 112.2L458.2 147.2ZM473.9 159.4L473.9 159.4Q472.2 159.4 470.6 159.2Q469.1 158.9 468.2 158.5L468.2 158.5L470.2 151.7Q471.8 152.2 473.1 152.3Q474.4 152.3 475.3 151.7Q476.3 151.0 476.9 149.5L476.9 149.5L477.4 148.1L465.7 114.4L475.2 114.4L482.0 138.5L482.3 138.5L489.2 114.4L498.8 114.4L486.1 150.7Q485.1 153.3 483.6 155.3Q482.0 157.3 479.6 158.4Q477.2 159.4 473.9 159.4ZM510.5 147.2L501.4 147.2L501.4 114.4L510.5 114.4L510.5 147.2ZM506.0 110.2L506.0 110.2Q504.0 110.2 502.5 108.9Q501.1 107.5 501.1 105.6L501.1 105.6Q501.1 103.7 502.5 102.4Q504.0 101.0 506.0 101.0L506.0 101.0Q508.0 101.0 509.5 102.4Q510.9 103.7 510.9 105.6L510.9 105.6Q510.9 107.5 509.5 108.9Q508.0 110.2 506.0 110.2ZM524.8 128.2L524.8 128.2L524.8 147.2L515.8 147.2L515.8 114.4L524.4 114.4L524.4 120.2L524.8 120.2Q525.9 117.4 528.4 115.7Q531.0 114.0 534.6 114.0L534.6 114.0Q538.0 114.0 540.6 115.5Q543.1 117.0 544.5 119.7Q545.9 122.5 545.9 126.3L545.9 126.3L545.9 147.2L536.8 147.2L536.8 127.9Q536.9 124.9 535.3 123.2Q533.8 121.5 531.0 121.5L531.0 121.5Q529.2 121.5 527.8 122.3Q526.4 123.1 525.6 124.6Q524.8 126.1 524.8 128.2ZM565.8 160.1L565.8 160.1Q561.4 160.1 558.3 158.9Q555.1 157.7 553.3 155.6Q551.4 153.6 550.8 151.0L550.8 151.0L559.2 149.9Q559.6 150.8 560.5 151.7Q561.3 152.6 562.7 153.1Q564.0 153.6 566.0 153.6L566.0 153.6Q569.0 153.6 570.9 152.2Q572.8 150.7 572.8 147.4L572.8 147.4L572.8 141.4L572.5 141.4Q571.9 142.7 570.7 143.9Q569.5 145.2 567.6 145.9Q565.7 146.7 563.1 146.7L563.1 146.7Q559.4 146.7 556.4 145.0Q553.4 143.3 551.6 139.7Q549.8 136.2 549.8 130.7L549.8 130.7Q549.8 125.2 551.7 121.4Q553.5 117.7 556.5 115.9Q559.5 114.0 563.1 114.0L563.1 114.0Q565.8 114.0 567.7 114.9Q569.6 115.9 570.7 117.2Q571.8 118.6 572.5 119.9L572.5 119.9L572.8 119.9L572.8 114.4L581.8 114.4L581.8 147.5Q581.8 151.7 579.8 154.5Q577.7 157.3 574.1 158.7Q570.5 160.1 565.8 160.1ZM566.0 139.9L566.0 139.9Q568.2 139.9 569.7 138.8Q571.2 137.7 572.1 135.6Q572.9 133.6 572.9 130.7L572.9 130.7Q572.9 127.8 572.1 125.7Q571.3 123.6 569.7 122.4Q568.2 121.2 566.0 121.2L566.0 121.2Q563.8 121.2 562.2 122.4Q560.7 123.6 559.9 125.8Q559.1 127.9 559.1 130.7L559.1 130.7Q559.1 133.5 559.9 135.6Q560.7 137.6 562.2 138.8Q563.8 139.9 566.0 139.9Z "/></clipPath><defs><pattern id="satori_pattern_id-0_0" x="0" y="0" width="1" height="1" patternUnits="objectBoundingBox"><linearGradient id="satori_biid-0_0" x1="0" y1="0" x2="1" y2="0"><stop offset="0%" stop-color="rgb(0,124,240)"/><stop offset="100%" stop-color="rgb(0,223,216)"/></linearGradient><rect x="0" y="0" width="368" height="73" fill="url(#satori_biid-0_0)"/></pattern></defs><mask id="satori_om-id-0"><rect x="216" y="91" width="368" height="73" fill="#fff"/></mask><rect x="216" y="91" width="368" height="73" fill="url(#satori_pattern_id-0_0)" clip-path="url(#satori_bct-id-0)"/><clipPath id="satori_bct-id-1"><path d="M296.3 220.2L296.3 220.2L280.8 220.2L280.8 176.5L296.4 176.5Q303.0 176.5 307.7 179.1Q312.5 181.7 315.0 186.6Q317.6 191.5 317.6 198.3L317.6 198.3Q317.6 205.1 315.0 210.0Q312.5 214.9 307.7 217.5Q302.9 220.2 296.3 220.2ZM290.0 184.4L290.0 212.3L295.9 212.3Q300.0 212.3 302.8 210.8Q305.6 209.3 307.0 206.3Q308.4 203.2 308.4 198.3L308.4 198.3Q308.4 193.5 307.0 190.4Q305.6 187.3 302.8 185.9Q300.0 184.4 295.9 184.4L295.9 184.4L290.0 184.4ZM331.6 220.8L331.6 220.8Q328.5 220.8 326.0 219.7Q323.6 218.6 322.1 216.4Q320.7 214.3 320.7 211.0L320.7 211.0Q320.7 208.3 321.7 206.4Q322.7 204.6 324.5 203.5Q326.2 202.3 328.4 201.8Q330.6 201.2 333.0 200.9L333.0 200.9Q335.9 200.6 337.6 200.4Q339.4 200.1 340.2 199.6Q340.9 199.0 340.9 198.0L340.9 198.0L340.9 197.9Q340.9 195.8 339.7 194.7Q338.4 193.6 336.1 193.6L336.1 193.6Q333.6 193.6 332.2 194.7Q330.7 195.8 330.3 197.4L330.3 197.4L321.9 196.7Q322.5 193.7 324.4 191.6Q326.3 189.4 329.2 188.2Q332.2 187.0 336.1 187.0L336.1 187.0Q338.9 187.0 341.4 187.6Q343.9 188.3 345.8 189.6Q347.8 191.0 348.9 193.1Q350.0 195.2 350.0 198.1L350.0 198.1L350.0 220.2L341.4 220.2L341.4 215.6L341.2 215.6Q340.4 217.2 339.0 218.3Q337.7 219.5 335.9 220.1Q334.0 220.8 331.6 220.8ZM334.2 214.5L334.2 214.5Q336.2 214.5 337.7 213.7Q339.3 212.9 340.1 211.6Q341.0 210.2 341.0 208.5L341.0 208.5L341.0 205.0Q340.6 205.3 339.8 205.5Q339.1 205.7 338.2 205.9Q337.3 206.1 336.4 206.2Q335.4 206.4 334.7 206.5L334.7 206.5Q333.1 206.7 331.9 207.2Q330.7 207.7 330.1 208.6Q329.4 209.4 329.4 210.7L329.4 210.7Q329.4 212.6 330.7 213.5Q332.1 214.5 334.2 214.5ZM364.2 201.2L364.2 201.2L364.2 220.2L355.1 220.2L355.1 187.4L363.7 187.4L363.7 193.2L364.1 193.2Q365.2 190.4 367.8 188.7Q370.3 187.0 374.0 187.0L374.0 187.0Q377.4 187.0 379.9 188.5Q382.4 190.0 383.8 192.7Q385.2 195.5 385.2 199.3L385.2 199.3L385.2 220.2L376.2 220.2L376.2 200.9Q376.2 197.9 374.6 196.2Q373.1 194.5 370.4 194.5L370.4 194.5Q368.5 194.5 367.1 195.3Q365.7 196.1 364.9 197.6Q364.2 199.1 364.2 201.2ZM405.1 233.1L405.1 233.1Q400.7 233.1 397.6 231.9Q394.4 230.7 392.6 228.6Q390.7 226.6 390.2 224.0L390.2 224.0L398.6 222.9Q398.9 223.8 399.8 224.7Q400.6 225.6 402.0 226.1Q403.4 226.6 405.3 226.6L405.3 226.6Q408.3 226.6 410.2 225.2Q412.2 223.7 412.2 220.4L412.2 220.4L412.2 214.4L411.8 214.4Q411.2 215.7 410.0 216.9Q408.8 218.2 406.9 218.9Q405.0 219.7 402.4 219.7L402.4 219.7Q398.8 219.7 395.7 218.0Q392.7 216.3 390.9 212.7Q389.2 209.2 389.2 203.7L389.2 203.7Q389.2 198.2 391.0 194.4Q392.8 190.7 395.8 188.9Q398.8 187.0 402.4 187.0L402.4 187.0Q405.2 187.0 407.0 187.9Q408.9 188.9 410.0 190.2Q411.2 191.6 411.8 192.9L411.8 192.9L412.1 192.9L412.1 187.4L421.1 187.4L421.1 220.5Q421.1 224.7 419.1 227.5Q417.0 230.3 413.4 231.7Q409.8 233.1 405.1 233.1ZM405.3 212.9L405.3 212.9Q407.5 212.9 409.0 211.8Q410.6 210.7 411.4 208.6Q412.2 206.6 412.2 203.7L412.2 203.7Q412.2 200.8 411.4 198.7Q410.6 196.6 409.0 195.4Q407.5 194.2 405.3 194.2L405.3 194.2Q403.1 194.2 401.5 195.4Q400.0 196.6 399.2 198.8Q398.4 200.9 398.4 203.7L398.4 203.7Q398.4 206.5 399.2 208.6Q400.0 210.6 401.6 211.8Q403.1 212.9 405.3 212.9ZM426.4 176.5L435.4 176.5L435.4 220.2L426.4 220.2L426.4 176.5ZM449.8 220.2L440.7 220.2L440.7 187.4L449.8 187.4L449.8 220.2ZM445.3 183.2L445.3 183.2Q443.2 183.2 441.8 181.9Q440.4 180.5 440.4 178.6L440.4 178.6Q440.4 176.7 441.8 175.4Q443.2 174.0 445.3 174.0L445.3 174.0Q447.3 174.0 448.7 175.4Q450.2 176.7 450.2 178.6L450.2 178.6Q450.2 180.5 448.7 181.9Q447.3 183.2 445.3 183.2ZM464.1 201.2L464.1 201.2L464.1 220.2L455.0 220.2L455.0 187.4L463.7 187.4L463.7 193.2L464.0 193.2Q465.1 190.4 467.7 188.7Q470.2 187.0 473.9 187.0L473.9 187.0Q477.3 187.0 479.8 188.5Q482.4 190.0 483.8 192.7Q485.2 195.5 485.2 199.3L485.2 199.3L485.2 220.2L476.1 220.2L476.1 200.9Q476.1 197.9 474.6 196.2Q473.0 194.5 470.3 194.5L470.3 194.5Q468.5 194.5 467.1 195.3Q465.7 196.1 464.9 197.6Q464.1 199.1 464.1 201.2ZM505.1 233.1L505.1 233.1Q500.7 233.1 497.5 231.9Q494.4 230.7 492.5 228.6Q490.7 226.6 490.1 224.0L490.1 224.0L498.5 222.9Q498.9 223.8 499.7 224.7Q500.5 225.6 501.9 226.1Q503.3 226.6 505.3 226.6L505.3 226.6Q508.2 226.6 510.2 225.2Q512.1 223.7 512.1 220.4L512.1 220.4L512.1 214.4L511.7 214.4Q511.1 215.7 509.9 216.9Q508.7 218.2 506.9 218.9Q505.0 219.7 502.4 219.7L502.4 219.7Q498.7 219.7 495.7 218.0Q492.7 216.3 490.9 212.7Q489.1 209.2 489.1 203.7L489.1 203.7Q489.1 198.2 490.9 194.4Q492.7 190.7 495.7 188.9Q498.8 187.0 502.4 187.0L502.4 187.0Q505.1 187.0 507.0 187.9Q508.8 188.9 510.0 190.2Q511.1 191.6 511.7 192.9L511.7 192.9L512.1 192.9L512.1 187.4L521.1 187.4L521.1 220.5Q521.1 224.7 519.0 227.5Q517.0 230.3 513.4 231.7Q509.8 233.1 505.1 233.1ZM505.3 212.9L505.3 212.9Q507.5 212.9 509.0 211.8Q510.5 210.7 511.3 208.6Q512.1 206.6 512.1 203.7L512.1 203.7Q512.1 200.8 511.3 198.7Q510.5 196.6 509.0 195.4Q507.5 194.2 505.3 194.2L505.3 194.2Q503.0 194.2 501.5 195.4Q500.0 196.6 499.2 198.8Q498.4 200.9 498.4 203.7L498.4 203.7Q498.4 206.5 499.2 208.6Q500.0 210.6 501.5 211.8Q503.0 212.9 505.3 212.9Z "/></clipPath><defs><pattern id="satori_pattern_id-1_0" x="0" y="0" width="1" height="1" patternUnits="objectBoundingBox"><linearGradient id="satori_biid-1_0" x1="0" y1="0" x2="1" y2="0"><stop offset="0%" stop-color="rgb(121,40,202)"/><stop offset="100%" stop-color="rgb(255,0,128)"/></linearGradient><rect x="0" y="0" width="246" height="72" fill="url(#satori_biid-1_0)"/></pattern></defs><mask id="satori_om-id-1"><rect x="277" y="164" width="246" height="72" fill="#fff"/></mask><rect x="277" y="164" width="246" height="72" fill="url(#satori_pattern_id-1_0)" clip-path="url(#satori_bct-id-1)"/><clipPath id="satori_bct-id-2"><path d="M298.0 292.2L288.8 292.2L288.8 248.5L306.0 248.5Q311.0 248.5 314.5 250.4Q318.0 252.3 319.8 255.6Q321.6 259.0 321.6 263.3L321.6 263.3Q321.6 267.7 319.8 271.0Q317.9 274.3 314.4 276.2Q310.8 278.0 305.8 278.0L305.8 278.0L294.8 278.0L294.8 270.6L304.3 270.6Q306.9 270.6 308.7 269.7Q310.4 268.8 311.3 267.1Q312.1 265.5 312.1 263.3L312.1 263.3Q312.1 261.1 311.3 259.5Q310.4 257.9 308.7 257.0Q306.9 256.1 304.2 256.1L304.2 256.1L298.0 256.1L298.0 292.2ZM339.7 292.8L339.7 292.8Q334.8 292.8 331.1 290.7Q327.5 288.6 325.6 284.8Q323.6 281.0 323.6 275.9L323.6 275.9Q323.6 270.9 325.6 267.1Q327.5 263.2 331.1 261.1Q334.8 259.0 339.7 259.0L339.7 259.0Q344.7 259.0 348.3 261.1Q351.9 263.2 353.9 267.1Q355.8 270.9 355.8 275.9L355.8 275.9Q355.8 281.0 353.9 284.8Q351.9 288.6 348.3 290.7Q344.7 292.8 339.7 292.8ZM339.8 285.8L339.8 285.8Q342.0 285.8 343.5 284.5Q345.0 283.2 345.8 281.0Q346.6 278.7 346.6 275.9L346.6 275.9Q346.6 273.0 345.8 270.8Q345.0 268.5 343.5 267.2Q342.0 265.9 339.8 265.9L339.8 265.9Q337.5 265.9 335.9 267.2Q334.4 268.5 333.6 270.8Q332.8 273.0 332.8 275.9L332.8 275.9Q332.8 278.7 333.6 281.0Q334.4 283.2 335.9 284.5Q337.5 285.8 339.8 285.8ZM368.8 292.2L359.8 292.2L359.8 259.4L368.8 259.4L368.8 292.2ZM364.3 255.2L364.3 255.2Q362.3 255.2 360.8 253.9Q359.4 252.5 359.4 250.6L359.4 250.6Q359.4 248.7 360.8 247.4Q362.3 246.0 364.3 246.0L364.3 246.0Q366.3 246.0 367.8 247.4Q369.2 248.7 369.2 250.6L369.2 250.6Q369.2 252.5 367.8 253.9Q366.3 255.2 364.3 255.2ZM383.1 273.2L383.1 273.2L383.1 292.2L374.1 292.2L374.1 259.4L382.7 259.4L382.7 265.2L383.1 265.2Q384.2 262.4 386.7 260.7Q389.3 259.0 392.9 259.0L392.9 259.0Q396.4 259.0 398.9 260.5Q401.4 262.0 402.8 264.7Q404.2 267.5 404.2 271.3L404.2 271.3L404.2 292.2L395.2 292.2L395.2 272.9Q395.2 269.9 393.6 268.2Q392.1 266.5 389.3 266.5L389.3 266.5Q387.5 266.5 386.1 267.3Q384.7 268.1 383.9 269.6Q383.2 271.1 383.1 273.2ZM407.1 259.4L426.8 259.4L426.8 266.3L407.1 266.3L407.1 259.4ZM411.6 283.3L411.6 251.6L420.6 251.6L420.6 282.1Q420.6 283.4 421.0 284.1Q421.4 284.7 422.1 285.0Q422.8 285.3 423.7 285.3L423.7 285.3Q424.3 285.3 425.0 285.2Q425.6 285.1 426.0 285.0L426.0 285.0L427.4 291.8Q426.7 292.0 425.5 292.3Q424.2 292.5 422.5 292.6L422.5 292.6Q419.2 292.7 416.7 291.7Q414.3 290.7 412.9 288.6Q411.5 286.5 411.6 283.3L411.6 283.3ZM445.3 292.8L445.3 292.8Q440.2 292.8 436.6 290.7Q432.9 288.7 431.0 284.9Q429.0 281.1 429.0 275.9L429.0 275.9Q429.0 270.9 431.0 267.1Q432.9 263.3 436.5 261.1Q440.1 259.0 444.9 259.0L444.9 259.0Q448.1 259.0 450.9 260.0Q453.7 261.1 455.8 263.1Q457.9 265.2 459.1 268.3Q460.3 271.5 460.3 275.6L460.3 275.6L460.3 278.1L432.6 278.1L432.6 272.5L451.7 272.5Q451.7 270.5 450.9 269.0Q450.0 267.5 448.5 266.6Q447.0 265.8 445.0 265.8L445.0 265.8Q443.0 265.8 441.4 266.7Q439.8 267.7 438.9 269.3Q438.0 270.9 438.0 272.8L438.0 272.8L438.0 278.1Q438.0 280.6 438.9 282.3Q439.8 284.1 441.5 285.1Q443.1 286.0 445.4 286.0L445.4 286.0Q446.9 286.0 448.2 285.6Q449.4 285.2 450.3 284.3Q451.2 283.5 451.7 282.2L451.7 282.2L460.1 282.8Q459.5 285.8 457.5 288.1Q455.5 290.3 452.4 291.6Q449.3 292.8 445.3 292.8ZM473.3 292.2L464.2 292.2L464.2 259.4L473.0 259.4L473.0 265.1L473.3 265.1Q474.2 262.1 476.4 260.5Q478.5 259.0 481.2 259.0L481.2 259.0Q481.9 259.0 482.7 259.0Q483.5 259.1 484.1 259.3L484.1 259.3L484.1 267.3Q483.4 267.1 482.3 267.0Q481.2 266.8 480.2 266.8L480.2 266.8Q478.2 266.8 476.7 267.7Q475.1 268.6 474.2 270.1Q473.3 271.6 473.3 273.6L473.3 273.6L473.3 292.2ZM514.0 268.8L514.0 268.8L505.7 269.3Q505.4 268.2 504.7 267.3Q504.0 266.5 502.9 266.0Q501.8 265.4 500.2 265.4L500.2 265.4Q498.1 265.4 496.6 266.3Q495.2 267.2 495.2 268.7L495.2 268.7Q495.2 269.9 496.1 270.7Q497.0 271.5 499.3 272.0L499.3 272.0L505.2 273.2Q510.0 274.1 512.4 276.3Q514.7 278.5 514.7 282.0L514.7 282.0Q514.7 285.2 512.8 287.7Q510.9 290.1 507.7 291.4Q504.4 292.8 500.1 292.8L500.1 292.8Q493.6 292.8 489.8 290.1Q485.9 287.4 485.3 282.7L485.3 282.7L494.2 282.2Q494.6 284.2 496.2 285.2Q497.7 286.3 500.2 286.3L500.2 286.3Q502.5 286.3 504.0 285.3Q505.5 284.4 505.5 282.9L505.5 282.9Q505.5 281.7 504.4 280.9Q503.4 280.1 501.3 279.7L501.3 279.7L495.6 278.5Q490.8 277.6 488.5 275.2Q486.2 272.9 486.2 269.2L486.2 269.2Q486.2 266.0 487.9 263.8Q489.6 261.5 492.7 260.2Q495.8 259.0 500.0 259.0L500.0 259.0Q506.2 259.0 509.8 261.6Q513.4 264.2 514.0 268.8Z "/></clipPath><defs><pattern id="satori_pattern_id-2_0" x="0" y="0" width="1" height="1" patternUnits="objectBoundingBox"><linearGradient id="satori_biid-2_0" x1="0" y1="0" x2="1" y2="0"><stop offset="0%" stop-color="rgb(255,77,77)"/><stop offset="100%" stop-color="rgb(249,203,40)"/></linearGradient><rect x="0" y="0" width="230" height="73" fill="url(#satori_biid-2_0)"/></pattern></defs><mask id="satori_om-id-2"><rect x="285" y="236" width="230" height="73" fill="#fff"/></mask><rect x="285" y="236" width="230" height="73" fill="url(#satori_pattern_id-2_0)" clip-path="url(#satori_bct-id-2)"/></svg>