<svg width="800" height="400" viewBox="0 0 800 400" xmlns="http://www.w3.org/2000/svg"><mask id="satori_om-id"><rect x="0" y="0" width="800" height="400" fill="#fff"/></mask><rect x="0" y="0" width="800" height="400" fill="none"/><clipPath id="satori_bct-id-0"><path d="M292.9 125.3L292.9 125.3Q292.9 132.5 290.2 137.5Q287.5 142.5 282.9 145.1Q278.2 147.8 272.5 147.8L272.5 147.8Q266.6 147.8 262.0 145.1Q257.4 142.5 254.7 137.5Q252.0 132.5 252.0 125.3L252.0 125.3Q252.0 118.2 254.7 113.2Q257.4 108.2 262.0 105.6Q266.6 102.9 272.5 102.9L272.5 102.9Q278.2 102.9 282.9 105.6Q287.5 108.2 290.2 113.2Q292.9 118.2 292.9 125.3ZM283.5 125.3L283.5 125.3Q283.5 120.7 282.2 117.5Q280.8 114.4 278.3 112.7Q275.8 111.1 272.5 111.1L272.5 111.1Q269.1 111.1 266.6 112.7Q264.1 114.4 262.8 117.5Q261.4 120.7 261.4 125.3L261.4 125.3Q261.4 130.0 262.8 133.1Q264.1 136.3 266.6 138.0Q269.1 139.6 272.5 139.6L272.5 139.6Q275.8 139.6 278.3 138.0Q280.8 136.3 282.2 133.1Q283.5 130.0 283.5 125.3ZM306.6 159.4L297.5 159.4L297.5 114.4L306.5 114.4L306.5 119.9L306.9 119.9Q307.5 118.6 308.6 117.2Q309.8 115.9 311.6 114.9Q313.5 114.0 316.2 114.0L316.2 114.0Q319.8 114.0 322.8 115.9Q325.8 117.7 327.6 121.5Q329.5 125.2 329.5 130.8L329.5 130.8Q329.5 136.3 327.7 140.1Q325.9 143.8 322.9 145.8Q319.9 147.7 316.2 147.7L316.2 147.7Q313.5 147.7 311.7 146.8Q309.9 145.9 308.7 144.6Q307.5 143.3 306.9 141.9L306.9 141.9L306.6 141.9L306.6 159.4ZM306.4 130.8L306.4 130.8Q306.4 133.7 307.2 135.9Q308.0 138.1 309.6 139.3Q311.1 140.5 313.3 140.5L313.3 140.5Q315.5 140.5 317.1 139.2Q318.6 138.0 319.4 135.8Q320.2 133.7 320.2 130.8L320.2 130.8Q320.2 128.0 319.4 125.8Q318.6 123.7 317.1 122.4Q315.5 121.2 313.3 121.2L313.3 121.2Q311.1 121.2 309.6 122.4Q308.0 123.6 307.2 125.7Q306.4 127.9 306.4 130.8ZM331.2 114.4L350.9 114.4L350.9 121.3L331.2 121.3L331.2 114.4ZM335.7 138.3L335.7 106.6L344.7 106.6L344.7 137.1Q344.7 138.4 345.1 139.1Q345.5 139.7 346.2 140.0Q346.9 140.3 347.8 140.3L347.8 140.3Q348.4 140.3 349.1 140.2Q349.7 140.1 350.1 140.0L350.1 140.0L351.5 146.8Q350.8 147.0 349.6 147.3Q348.3 147.5 346.6 147.6L346.6 147.6Q343.3 147.7 340.8 146.7Q338.4 145.7 337.0 143.6Q335.6 141.5 335.7 138.3L335.7 138.3ZM363.9 147.2L354.8 147.2L354.8 114.4L363.9 114.4L363.9 147.2ZM359.4 110.2L359.4 110.2Q357.3 110.2 355.9 108.9Q354.5 107.5 354.5 105.6L354.5 105.6Q354.5 103.7 355.9 102.4Q357.3 101.0 359.4 101.0L359.4 101.0Q361.4 101.0 362.8 102.4Q364.3 103.7 364.3 105.6L364.3 105.6Q364.3 107.5 362.8 108.9Q361.4 110.2 359.4 110.2ZM378.2 147.2L369.1 147.2L369.1 114.4L377.8 114.4L377.8 120.2L378.2 120.2Q379.2 117.3 381.6 115.7Q383.9 114.0 387.3 114.0L387.3 114.0Q390.6 114.0 393.0 115.7Q395.4 117.4 396.2 120.2L396.2 120.2L396.5 120.2Q397.5 117.4 400.1 115.7Q402.8 114.0 406.4 114.0L406.4 114.0Q410.9 114.0 413.8 116.9Q416.7 119.8 416.7 125.2L416.7 125.2L416.7 147.2L407.6 147.2L407.6 126.9Q407.6 124.2 406.2 122.8Q404.7 121.5 402.5 121.5L402.5 121.5Q400.1 121.5 398.7 123.1Q397.3 124.6 397.3 127.2L397.3 127.2L397.3 147.2L388.5 147.2L388.5 126.7Q388.5 124.3 387.1 122.9Q385.8 121.5 383.5 121.5L383.5 121.5Q382.0 121.5 380.8 122.2Q379.6 123.0 378.9 124.4Q378.2 125.7 378.2 127.5L378.2 127.5L378.2 147.2ZM430.9 147.2L421.8 147.2L421.8 114.4L430.9 114.4L430.9 147.2ZM426.4 110.2L426.4 110.2Q424.4 110.2 422.9 108.9Q421.5 107.5 421.5 105.6L421.5 105.6Q421.5 103.7 422.9 102.4Q424.4 101.0 426.4 101.0L426.4 101.0Q428.4 101.0 429.9 102.4Q431.3 103.7 431.3 105.6L431.3 105.6Q431.3 107.5 429.9 108.9Q428.4 110.2 426.4 110.2ZM463.5 147.2L436.0 147.2L436.0 141.7L452.0 121.9L452.0 121.7L436.5 121.7L436.5 114.4L462.9 114.4L462.9 120.3L447.9 139.7L447.9 139.9L463.5 139.9L463.5 147.2ZM477.5 147.2L468.5 147.2L468.5 114.4L477.5 114.4L477.5 147.2ZM473.0 110.2L473.0 110.2Q471.0 110.2 469.6 108.9Q468.1 107.5 468.1 105.6L468.1 105.6Q468.1 103.7 469.6 102.4Q471.0 101.0 473.0 101.0L473.0 101.0Q475.0 101.0 476.5 102.4Q477.9 103.7 477.9 105.6L477.9 105.6Q477.9 107.5 476.5 108.9Q475.0 110.2 473.0 110.2ZM491.9 128.2L491.9 128.2L491.9 147.2L482.8 147.2L482.8 114.4L491.4 114.4L491.4 120.2L491.8 120.2Q492.9 117.4 495.5 115.7Q498.0 114.0 501.7 114.0L501.7 114.0Q505.1 114.0 507.6 115.5Q510.1 117.0 511.5 119.7Q513.0 122.5 513.0 126.3L513.0 126.3L513.0 147.2L503.9 147.2L503.9 127.9Q503.9 124.9 502.3 123.2Q500.8 121.5 498.1 121.5L498.1 121.5Q496.2 121.5 494.8 122.3Q493.4 123.1 492.7 124.6Q491.9 126.1 491.9 128.2ZM532.8 160.1L532.8 160.1Q528.4 160.1 525.3 158.9Q522.1 157.7 520.3 155.6Q518.4 153.6 517.9 151.0L517.9 151.0L526.3 149.9Q526.7 150.8 527.5 151.7Q528.3 152.6 529.7 153.1Q531.1 153.6 533.0 153.6L533.0 153.6Q536.0 153.6 537.9 152.2Q539.9 150.7 539.9 147.4L539.9 147.4L539.9 141.4L539.5 141.4Q538.9 142.7 537.7 143.9Q536.5 145.2 534.6 145.9Q532.7 146.7 530.1 146.7L530.1 146.7Q526.5 146.7 523.4 145.0Q520.4 143.3 518.7 139.7Q516.9 136.2 516.9 130.7L516.9 130.7Q516.9 125.2 518.7 121.4Q520.5 117.7 523.5 115.9Q526.5 114.0 530.1 114.0L530.1 114.0Q532.9 114.0 534.7 114.9Q536.6 115.9 537.7 117.2Q538.9 118.6 539.5 119.9L539.5 119.9L539.8 119.9L539.8 114.4L548.8 114.4L548.8 147.5Q548.8 151.7 546.8 154.5Q544.7 157.3 541.1 158.7Q537.5 160.1 532.8 160.1ZM533.0 139.9L533.0 139.9Q535.2 139.9 536.7 138.8Q538.3 137.7 539.1 135.6Q539.9 133.6 539.9 130.7L539.9 130.7Q539.9 127.8 539.1 125.7Q538.3 123.6 536.8 122.4Q535.2 121.2 533.0 121.2L533.0 121.2Q530.8 121.2 529.3 122.4Q527.7 123.6 526.9 125.8Q526.1 127.9 526.1 130.7L526.1 130.7Q526.1 133.5 526.9 135.6Q527.7 137.6 529.3 138.8Q530.8 139.9 533.0 139.9Z "/></clipPath><defs><pattern id="satori_pattern_id-0_0" x="0" y="0" width="1" height="1" patternUnits="objectBoundingBox"><linearGradient id="satori_biid-0_0" x1="0" y1="0" x2="1" y2="0"><stop offset="0%" stop-color="rgb(0,124,240)"/><stop offset="100%" stop-color="rgb(0,223,216)"/></linearGradient><rect x="0" y="0" width="302" height="73" fill="url(#satori_biid-0_0)"/></pattern></defs><mask id="satori_om-id-0"><rect x="249" y="91" width="302" height="73" fill="#fff"/></mask><rect x="249" y="91" width="302" height="73" fill="url(#satori_pattern_id-0_0)" clip-path="url(#satori_bct-id-0)"/><clipPath id="satori_bct-id-1"><path d="M233.0 220.2L223.8 220.2L223.8 176.5L241.0 176.5Q246.0 176.5 249.5 178.4Q253.0 180.3 254.8 183.6Q256.6 187.0 256.6 191.3L256.6 191.3Q256.6 195.7 254.8 199.0Q252.9 202.3 249.4 204.2Q245.8 206.0 240.8 206.0L240.8 206.0L229.8 206.0L229.8 198.6L239.3 198.6Q241.9 198.6 243.7 197.7Q245.4 196.8 246.3 195.1Q247.1 193.5 247.1 191.3L247.1 191.3Q247.1 189.1 246.3 187.5Q245.4 185.9 243.7 185.0Q241.9 184.1 239.2 184.1L239.2 184.1L233.0 184.1L233.0 220.2ZM274.8 220.8L274.8 220.8Q269.8 220.8 266.2 218.7Q262.5 216.7 260.6 212.9Q258.6 209.1 258.6 203.9L258.6 203.9Q258.6 198.9 260.6 195.1Q262.5 191.3 266.1 189.1Q269.7 187.0 274.5 187.0L274.5 187.0Q277.7 187.0 280.5 188.0Q283.3 189.1 285.4 191.1Q287.5 193.2 288.7 196.3Q289.9 199.5 289.9 203.6L289.9 203.6L289.9 206.1L262.2 206.1L262.2 200.5L281.3 200.5Q281.3 198.5 280.5 197.0Q279.6 195.5 278.1 194.6Q276.6 193.8 274.6 193.8L274.6 193.8Q272.6 193.8 271.0 194.7Q269.4 195.7 268.5 197.3Q267.6 198.9 267.6 200.8L267.6 200.8L267.6 206.1Q267.6 208.6 268.5 210.3Q269.4 212.1 271.1 213.1Q272.7 214.0 275.0 214.0L275.0 214.0Q276.5 214.0 277.8 213.6Q279.0 213.2 279.9 212.3Q280.8 211.5 281.3 210.2L281.3 210.2L289.7 210.8Q289.0 213.8 287.1 216.1Q285.1 218.3 282.0 219.6Q278.9 220.8 274.8 220.8ZM302.9 220.2L293.8 220.2L293.8 187.4L302.6 187.4L302.6 193.1L302.9 193.1Q303.8 190.1 305.9 188.5Q308.0 187.0 310.8 187.0L310.8 187.0Q311.5 187.0 312.3 187.0Q313.1 187.1 313.6 187.3L313.6 187.3L313.6 195.3Q313.0 195.1 311.9 195.0Q310.8 194.8 309.8 194.8L309.8 194.8Q307.8 194.8 306.2 195.7Q304.7 196.6 303.8 198.1Q302.9 199.6 302.9 201.6L302.9 201.6L302.9 220.2ZM315.4 187.4L335.6 187.4L335.6 194.3L315.4 194.3L315.4 187.4ZM329.0 220.2L320.0 220.2L320.0 185.1Q320.0 181.5 321.4 179.2Q322.8 176.8 325.2 175.7Q327.6 174.5 330.7 174.5L330.7 174.5Q332.8 174.5 334.5 174.8Q336.3 175.1 337.1 175.4L337.1 175.4L335.5 182.2Q335.0 182.0 334.2 181.9Q333.4 181.7 332.6 181.7L332.6 181.7Q330.6 181.7 329.8 182.6Q329.0 183.6 329.0 185.2L329.0 185.2L329.0 220.2ZM352.7 220.8L352.7 220.8Q347.8 220.8 344.2 218.7Q340.5 216.6 338.6 212.8Q336.6 209.0 336.6 203.9L336.6 203.9Q336.6 198.9 338.6 195.1Q340.5 191.2 344.2 189.1Q347.8 187.0 352.7 187.0L352.7 187.0Q357.7 187.0 361.3 189.1Q364.9 191.2 366.9 195.1Q368.8 198.9 368.8 203.9L368.8 203.9Q368.8 209.0 366.9 212.8Q364.9 216.6 361.3 218.7Q357.7 220.8 352.7 220.8ZM352.8 213.8L352.8 213.8Q355.0 213.8 356.5 212.5Q358.1 211.2 358.8 209.0Q359.6 206.7 359.6 203.9L359.6 203.9Q359.6 201.0 358.8 198.8Q358.1 196.5 356.5 195.2Q355.0 193.9 352.8 193.9L352.8 193.9Q350.5 193.9 348.9 195.2Q347.4 196.5 346.6 198.8Q345.8 201.0 345.8 203.9L345.8 203.9Q345.8 206.7 346.6 209.0Q347.4 211.2 348.9 212.5Q350.5 213.8 352.8 213.8ZM381.8 220.2L372.8 220.2L372.8 187.4L381.6 187.4L381.6 193.1L381.9 193.1Q382.8 190.1 384.9 188.5Q387.0 187.0 389.8 187.0L389.8 187.0Q390.4 187.0 391.2 187.0Q392.0 187.1 392.6 187.3L392.6 187.3L392.6 195.3Q392.0 195.1 390.9 195.0Q389.7 194.8 388.8 194.8L388.8 194.8Q386.8 194.8 385.2 195.7Q383.7 196.6 382.7 198.1Q381.8 199.6 381.8 201.6L381.8 201.6L381.8 220.2ZM404.4 220.2L395.3 220.2L395.3 187.4L403.9 187.4L403.9 193.2L404.3 193.2Q405.3 190.3 407.7 188.7Q410.1 187.0 413.4 187.0L413.4 187.0Q416.8 187.0 419.2 188.7Q421.5 190.4 422.3 193.2L422.3 193.2L422.7 193.2Q423.7 190.4 426.3 188.7Q428.9 187.0 432.5 187.0L432.5 187.0Q437.1 187.0 440.0 189.9Q442.8 192.8 442.8 198.2L442.8 198.2L442.8 220.2L433.8 220.2L433.8 199.9Q433.8 197.2 432.3 195.8Q430.9 194.5 428.7 194.5L428.7 194.5Q426.2 194.5 424.9 196.1Q423.5 197.6 423.5 200.2L423.5 200.2L423.5 220.2L414.7 220.2L414.7 199.7Q414.7 197.3 413.3 195.9Q411.9 194.5 409.7 194.5L409.7 194.5Q408.2 194.5 407.0 195.2Q405.8 196.0 405.1 197.4Q404.4 198.7 404.4 200.5L404.4 200.5L404.4 220.2ZM457.3 220.8L457.3 220.8Q454.2 220.8 451.8 219.7Q449.3 218.6 447.9 216.4Q446.5 214.3 446.5 211.0L446.5 211.0Q446.5 208.3 447.5 206.4Q448.5 204.6 450.2 203.5Q451.9 202.3 454.1 201.8Q456.3 201.2 458.8 200.9L458.8 200.9Q461.6 200.6 463.4 200.4Q465.1 200.1 465.9 199.6Q466.7 199.0 466.7 198.0L466.7 198.0L466.7 197.9Q466.7 195.8 465.4 194.7Q464.2 193.6 461.8 193.6L461.8 193.6Q459.4 193.6 457.9 194.7Q456.5 195.8 456.0 197.4L456.0 197.4L447.6 196.7Q448.3 193.7 450.1 191.6Q452.0 189.4 455.0 188.2Q458.0 187.0 461.9 187.0L461.9 187.0Q464.6 187.0 467.1 187.6Q469.6 188.3 471.6 189.6Q473.5 191.0 474.6 193.1Q475.8 195.2 475.8 198.1L475.8 198.1L475.8 220.2L467.2 220.2L467.2 215.6L466.9 215.6Q466.1 217.2 464.8 218.3Q463.5 219.5 461.6 220.1Q459.8 220.8 457.3 220.8ZM459.9 214.5L459.9 214.5Q461.9 214.5 463.5 213.7Q465.0 212.9 465.9 211.6Q466.8 210.2 466.8 208.5L466.8 208.5L466.8 205.0Q466.3 205.3 465.6 205.5Q464.9 205.7 463.9 205.9Q463.0 206.1 462.1 206.2Q461.2 206.4 460.4 206.5L460.4 206.5Q458.8 206.7 457.7 207.2Q456.5 207.7 455.8 208.6Q455.1 209.4 455.1 210.7L455.1 210.7Q455.1 212.6 456.5 213.5Q457.8 214.5 459.9 214.5ZM489.9 201.2L489.9 201.2L489.9 220.2L480.8 220.2L480.8 187.4L489.5 187.4L489.5 193.2L489.9 193.2Q490.9 190.4 493.5 188.7Q496.1 187.0 499.7 187.0L499.7 187.0Q503.1 187.0 505.6 188.5Q508.2 190.0 509.6 192.7Q511.0 195.5 511.0 199.3L511.0 199.3L511.0 220.2L501.9 220.2L501.9 200.9Q501.9 197.9 500.4 196.2Q498.8 194.5 496.1 194.5L496.1 194.5Q494.3 194.5 492.9 195.3Q491.5 196.1 490.7 197.6Q489.9 199.1 489.9 201.2ZM530.9 220.8L530.9 220.8Q525.9 220.8 522.3 218.7Q518.7 216.5 516.7 212.7Q514.8 208.9 514.8 203.9L514.8 203.9Q514.8 198.9 516.8 195.1Q518.7 191.3 522.3 189.1Q525.9 187.0 530.9 187.0L530.9 187.0Q535.2 187.0 538.4 188.6Q541.6 190.1 543.5 192.9Q545.3 195.7 545.5 199.5L545.5 199.5L537.0 199.5Q536.6 197.1 535.1 195.6Q533.5 194.1 531.0 194.1L531.0 194.1Q528.9 194.1 527.3 195.2Q525.8 196.4 524.9 198.5Q524.0 200.7 524.0 203.8L524.0 203.8Q524.0 206.9 524.9 209.1Q525.8 211.3 527.3 212.5Q528.9 213.6 531.0 213.6L531.0 213.6Q532.6 213.6 533.8 213.0Q535.1 212.3 535.9 211.1Q536.7 209.9 537.0 208.2L537.0 208.2L545.5 208.2Q545.3 211.9 543.5 214.8Q541.7 217.6 538.5 219.2Q535.3 220.8 530.9 220.8ZM564.3 220.8L564.3 220.8Q559.2 220.8 555.6 218.7Q552.0 216.7 550.0 212.9Q548.0 209.1 548.0 203.9L548.0 203.9Q548.0 198.9 550.0 195.1Q552.0 191.3 555.5 189.1Q559.1 187.0 563.9 187.0L563.9 187.0Q567.2 187.0 570.0 188.0Q572.8 189.1 574.9 191.1Q577.0 193.2 578.1 196.3Q579.3 199.5 579.3 203.6L579.3 203.6L579.3 206.1L551.7 206.1L551.7 200.5L570.8 200.5Q570.8 198.5 569.9 197.0Q569.1 195.5 567.6 194.6Q566.1 193.8 564.1 193.8L564.1 193.8Q562.0 193.8 560.4 194.7Q558.8 195.7 557.9 197.3Q557.0 198.9 557.0 200.8L557.0 200.8L557.0 206.1Q557.0 208.6 557.9 210.3Q558.8 212.1 560.5 213.1Q562.2 214.0 564.4 214.0L564.4 214.0Q565.9 214.0 567.2 213.6Q568.5 213.2 569.4 212.3Q570.2 211.5 570.7 210.2L570.7 210.2L579.1 210.8Q578.5 213.8 576.5 216.1Q574.5 218.3 571.4 219.6Q568.3 220.8 564.3 220.8Z "/></clipPath><defs><pattern id="satori_pattern_id-1_0" x="0" y="0" width="1" height="1" patternUnits="objectBoundingBox"><linearGradient id="satori_biid-1_0" x1="0" y1="0" x2="1" y2="0"><stop offset="0%" stop-color="rgb(121,40,202)"/><stop offset="100%" stop-color="rgb(255,0,128)"/></linearGradient><rect x="0" y="0" width="360" height="72" fill="url(#satori_biid-1_0)"/></pattern></defs><mask id="satori_om-id-1"><rect x="220" y="164" width="360" height="72" fill="#fff"/></mask><rect x="220" y="164" width="360" height="72" fill="url(#satori_pattern_id-1_0)" clip-path="url(#satori_bct-id-1)"/><clipPath id="satori_bct-id-2"><path d="M253.7 292.2L244.1 292.2L235.2 259.4L244.4 259.4L249.4 281.4L249.7 281.4L255.0 259.4L264.0 259.4L269.4 281.3L269.7 281.3L274.7 259.4L283.8 259.4L274.9 292.2L265.3 292.2L259.7 271.6L259.3 271.6L253.7 292.2ZM295.7 292.2L286.6 292.2L286.6 259.4L295.7 259.4L295.7 292.2ZM291.2 255.2L291.2 255.2Q289.2 255.2 287.7 253.9Q286.3 252.5 286.3 250.6L286.3 250.6Q286.3 248.7 287.7 247.4Q289.2 246.0 291.2 246.0L291.2 246.0Q293.2 246.0 294.7 247.4Q296.1 248.7 296.1 250.6L296.1 250.6Q296.1 252.5 294.7 253.9Q293.2 255.2 291.2 255.2ZM298.7 259.4L318.4 259.4L318.4 266.3L298.7 266.3L298.7 259.4ZM303.1 283.3L303.1 251.6L312.2 251.6L312.2 282.1Q312.2 283.4 312.6 284.1Q313.0 284.7 313.7 285.0Q314.4 285.3 315.3 285.3L315.3 285.3Q315.9 285.3 316.5 285.2Q317.2 285.1 317.5 285.0L317.5 285.0L319.0 291.8Q318.3 292.0 317.0 292.3Q315.8 292.5 314.0 292.6L314.0 292.6Q310.8 292.7 308.3 291.7Q305.8 290.7 304.5 288.6Q303.1 286.5 303.1 283.3L303.1 283.3ZM332.0 273.2L332.0 273.2L332.0 292.2L322.9 292.2L322.9 248.5L331.8 248.5L331.8 265.2L332.1 265.2Q333.3 262.3 335.7 260.7Q338.2 259.0 341.9 259.0L341.9 259.0Q345.3 259.0 347.9 260.5Q350.4 262.0 351.8 264.7Q353.3 267.5 353.2 271.3L353.2 271.3L353.2 292.2L344.2 292.2L344.2 272.9Q344.2 269.9 342.6 268.2Q341.1 266.5 338.3 266.5L338.3 266.5Q336.5 266.5 335.1 267.3Q333.6 268.1 332.8 269.6Q332.0 271.1 332.0 273.2Z M369.8 248.5L379.0 248.5L379.0 292.2L369.8 292.2L369.8 248.5ZM393.5 273.2L393.5 273.2L393.5 292.2L384.5 292.2L384.5 259.4L393.1 259.4L393.1 265.2L393.5 265.2Q394.6 262.4 397.1 260.7Q399.7 259.0 403.3 259.0L403.3 259.0Q406.8 259.0 409.3 260.5Q411.8 262.0 413.2 264.7Q414.6 267.5 414.6 271.3L414.6 271.3L414.6 292.2L405.6 292.2L405.6 272.9Q405.6 269.9 404.0 268.2Q402.5 266.5 399.7 266.5L399.7 266.5Q397.9 266.5 396.5 267.3Q395.1 268.1 394.3 269.6Q393.6 271.1 393.5 273.2ZM419.8 248.5L428.8 248.5L428.8 292.2L419.8 292.2L419.8 248.5ZM443.2 292.2L434.1 292.2L434.1 259.4L443.2 259.4L443.2 292.2ZM438.7 255.2L438.7 255.2Q436.6 255.2 435.2 253.9Q433.8 252.5 433.8 250.6L433.8 250.6Q433.8 248.7 435.2 247.4Q436.6 246.0 438.7 246.0L438.7 246.0Q440.7 246.0 442.1 247.4Q443.6 248.7 443.6 250.6L443.6 250.6Q443.6 252.5 442.1 253.9Q440.7 255.2 438.7 255.2ZM457.5 273.2L457.5 273.2L457.5 292.2L448.4 292.2L448.4 259.4L457.1 259.4L457.1 265.2L457.4 265.2Q458.5 262.4 461.1 260.7Q463.6 259.0 467.3 259.0L467.3 259.0Q470.7 259.0 473.2 260.5Q475.8 262.0 477.2 264.7Q478.6 267.5 478.6 271.3L478.6 271.3L478.6 292.2L469.5 292.2L469.5 272.9Q469.5 269.9 468.0 268.2Q466.4 266.5 463.7 266.5L463.7 266.5Q461.9 266.5 460.5 267.3Q459.1 268.1 458.3 269.6Q457.5 271.1 457.5 273.2ZM492.8 292.2L483.7 292.2L483.7 259.4L492.8 259.4L492.8 292.2ZM488.3 255.2L488.3 255.2Q486.3 255.2 484.8 253.9Q483.4 252.5 483.4 250.6L483.4 250.6Q483.4 248.7 484.8 247.4Q486.3 246.0 488.3 246.0L488.3 246.0Q490.3 246.0 491.7 247.4Q493.2 248.7 493.2 250.6L493.2 250.6Q493.2 252.5 491.7 253.9Q490.3 255.2 488.3 255.2ZM507.1 273.2L507.1 273.2L507.1 292.2L498.0 292.2L498.0 259.4L506.7 259.4L506.7 265.2L507.1 265.2Q508.2 262.4 510.7 260.7Q513.3 259.0 516.9 259.0L516.9 259.0Q520.3 259.0 522.9 260.5Q525.4 262.0 526.8 264.7Q528.2 267.5 528.2 271.3L528.2 271.3L528.2 292.2L519.1 292.2L519.1 272.9Q519.2 269.9 517.6 268.2Q516.0 266.5 513.3 266.5L513.3 266.5Q511.5 266.5 510.1 267.3Q508.7 268.1 507.9 269.6Q507.1 271.1 507.1 273.2ZM548.1 305.1L548.1 305.1Q543.7 305.1 540.5 303.9Q537.4 302.7 535.5 300.6Q533.7 298.6 533.1 296.0L533.1 296.0L541.5 294.9Q541.9 295.8 542.7 296.7Q543.6 297.6 545.0 298.1Q546.3 298.6 548.3 298.6L548.3 298.6Q551.3 298.6 553.2 297.2Q555.1 295.7 555.1 292.4L555.1 292.4L555.1 286.4L554.7 286.4Q554.1 287.7 553.0 288.9Q551.8 290.2 549.9 290.9Q548.0 291.7 545.4 291.7L545.4 291.7Q541.7 291.7 538.7 290.0Q535.7 288.3 533.9 284.7Q532.1 281.2 532.1 275.7L532.1 275.7Q532.1 270.2 533.9 266.4Q535.8 262.7 538.8 260.9Q541.8 259.0 545.4 259.0L545.4 259.0Q548.1 259.0 550.0 259.9Q551.8 260.9 553.0 262.2Q554.1 263.6 554.7 264.9L554.7 264.9L555.1 264.9L555.1 259.4L564.1 259.4L564.1 292.5Q564.1 296.7 562.1 299.5Q560.0 302.3 556.4 303.7Q552.8 305.1 548.1 305.1ZM548.3 284.9L548.3 284.9Q550.5 284.9 552.0 283.8Q553.5 282.7 554.4 280.6Q555.2 278.6 555.2 275.7L555.2 275.7Q555.2 272.8 554.4 270.7Q553.6 268.6 552.0 267.4Q550.5 266.2 548.3 266.2L548.3 266.2Q546.1 266.2 544.5 267.4Q543.0 268.6 542.2 270.8Q541.4 272.9 541.4 275.7L541.4 275.7Q541.4 278.5 542.2 280.6Q543.0 282.6 544.5 283.8Q546.1 284.9 548.3 284.9Z "/></clipPath><defs><pattern id="satori_pattern_id-2_0" x="0" y="0" width="1" height="1" patternUnits="objectBoundingBox"><linearGradient id="satori_biid-2_0" x1="0" y1="0" x2="1" y2="0"><stop offset="0%" stop-color="rgb(255,77,77)"/><stop offset="100%" stop-color="rgb(249,203,40)"/></linearGradient><rect x="0" y="0" width="332" height="73" fill="url(#satori_biid-2_0)"/></pattern></defs><mask id="satori_om-id-2"><rect x="234" y="236" width="332" height="73" fill="#fff"/></mask><rect x="234" y="236" width="332" height="73" fill="url(#satori_pattern_id-2_0)" clip-path="url(#satori_bct-id-2)"/></svg>