<svg width="800" height="400" viewBox="0 0 800 400" xmlns="http://www.w3.org/2000/svg"><mask id="satori_om-id"><rect x="0" y="0" width="800" height="400" fill="#fff"/></mask><rect x="0" y="0" width="800" height="400" fill="none"/><clipPath id="satori_bct-id-0"><path d="M292.9 125.3L292.9 125.3Q292.9 132.5 290.2 137.5Q287.5 142.5 282.9 145.1Q278.2 147.8 272.5 147.8L272.5 147.8Q266.6 147.8 262.0 145.1Q257.4 142.5 254.7 137.5Q252.0 132.5 252.0 125.3L252.0 125.3Q252.0 118.2 254.7 113.2Q257.4 108.2 262.0 105.6Q266.6 102.9 272.5 102.9L272.5 102.9Q278.2 102.9 282.9 105.6Q287.5 108.2 290.2 113.2Q292.9 118.2 292.9 125.3ZM283.5 125.3L283.5 125.3Q283.5 120.7 282.2 117.5Q280.8 114.4 278.3 112.7Q275.8 111.1 272.5 111.1L272.5 111.1Q269.1 111.1 266.6 112.7Q264.1 114.4 262.8 117.5Q261.4 120.7 261.4 125.3L261.4 125.3Q261.4 130.0 262.8 133.1Q264.1 136.3 266.6 138.0Q269.1 139.6 272.5 139.6L272.5 139.6Q275.8 139.6 278.3 138.0Q280.8 136.3 282.2 133.1Q283.5 130.0 283.5 125.3ZM306.6 159.4L297.5 159.4L297.5 114.4L306.5 114.4L306.5 119.9L306.9 119.9Q307.5 118.6 308.6 117.2Q309.8 115.9 311.6 114.9Q313.5 114.0 316.2 114.0L316.2 114.0Q319.8 114.0 322.8 115.9Q325.8 117.7 327.6 121.5Q329.5 125.2 329.5 130.8L329.5 130.8Q329.5 136.3 327.7 140.1Q325.9 143.8 322.9 145.8Q319.9 147.7 316.2 147.7L316.2 147.7Q313.5 147.7 311.7 146.8Q309.9 145.9 308.7 144.6Q307.5 143.3 306.9 141.9L306.9 141.9L306.6 141.9L306.6 159.4ZM306.4 130.8L306.4 130.8Q306.4 133.7 307.2 135.9Q308.0 138.1 309.6 139.3Q311.1 140.5 313.3 140.5L313.3 140.5Q315.5 140.5 317.1 139.2Q318.6 138.0 319.4 135.8Q320.2 133.7 320.2 130.8L320.2 130.8Q320.2 128.0 319.4 125.8Q318.6 123.7 317.1 122.4Q315.5 121.2 313.3 121.2L313.3 121.2Q311.1 121.2 309.6 122.4Q308.0 123.6 307.2 125.7Q306.4 127.9 306.4 130.8ZM331.2 114.4L350.9 114.4L350.9 121.3L331.2 121.3L331.2 114.4ZM335.7 138.3L335.7 106.6L344.7 106.6L344.7 137.1Q344.7 138.4 345.1 139.1Q345.5 139.7 346.2 140.0Q346.9 140.3 347.8 140.3L347.8 140.3Q348.4 140.3 349.1 140.2Q349.7 140.1 350.1 140.0L350.1 140.0L351.5 146.8Q350.8 147.0 349.6 147.3Q348.3 147.5 346.6 147.6L346.6 147.6Q343.3 147.7 340.8 146.7Q338.4 145.7 337.0 143.6Q335.6 141.5 335.7 138.3L335.7 138.3ZM363.9 147.2L354.8 147.2L354.8 114.4L363.9 114.4L363.9 147.2ZM359.4 110.2L359.4 110.2Q357.3 110.2 355.9 108.9Q354.5 107.5 354.5 105.6L354.5 105.6Q354.5 103.7 355.9 102.4Q357.3 101.0 359.4 101.0L359.4 101.0Q361.4 101.0 362.8 102.4Q364.3 103.7 364.3 105.6L364.3 105.6Q364.3 107.5 362.8 108.9Q361.4 110.2 359.4 110.2ZM378.2 147.2L369.1 147.2L369.1 114.4L377.8 114.4L377.8 120.2L378.2 120.2Q379.2 117.3 381.6 115.7Q383.9 114.0 387.3 114.0L387.3 114.0Q390.6 114.0 393.0 115.7Q395.4 117.4 396.2 120.2L396.2 120.2L396.5 120.2Q397.5 117.4 400.1 115.7Q402.8 114.0 406.4 114.0L406.4 114.0Q410.9 114.0 413.8 116.9Q416.7 119.8 416.7 125.2L416.7 125.2L416.7 147.2L407.6 147.2L407.6 126.9Q407.6 124.2 406.2 122.8Q404.7 121.5 402.5 121.5L402.5 121.5Q400.1 121.5 398.7 123.1Q397.3 124.6 397.3 127.2L397.3 127.2L397.3 147.2L388.5 147.2L388.5 126.7Q388.5 124.3 387.1 122.9Q385.8 121.5 383.5 121.5L383.5 121.5Q382.0 121.5 380.8 122.2Q379.6 123.0 378.9 124.4Q378.2 125.7 378.2 127.5L378.2 127.5L378.2 147.2ZM430.9 147.2L421.8 147.2L421.8 114.4L430.9 114.4L430.9 147.2ZM426.4 110.2L426.4 110.2Q424.4 110.2 422.9 108.9Q421.5 107.5 421.5 105.6L421.5 105.6Q421.5 103.7 422.9 102.4Q424.4 101.0 426.4 101.0L426.4 101.0Q428.4 101.0 429.9 102.4Q431.3 103.7 431.3 105.6L431.3 105.6Q431.3 107.5 429.9 108.9Q428.4 110.2 426.4 110.2ZM463.5 147.2L436.0 147.2L436.0 141.7L452.0 121.9L452.0 121.7L436.5 121.7L436.5 114.4L462.9 114.4L462.9 120.3L447.9 139.7L447.9 139.9L463.5 139.9L463.5 147.2ZM477.5 147.2L468.5 147.2L468.5 114.4L477.5 114.4L477.5 147.2ZM473.0 110.2L473.0 110.2Q471.0 110.2 469.6 108.9Q468.1 107.5 468.1 105.6L468.1 105.6Q468.1 103.7 469.6 102.4Q471.0 101.0 473.0 101.0L473.0 101.0Q475.0 101.0 476.5 102.4Q477.9 103.7 477.9 105.6L477.9 105.6Q477.9 107.5 476.5 108.9Q475.0 110.2 473.0 110.2ZM491.9 128.2L491.9 128.2L491.9 147.2L482.8 147.2L482.8 114.4L491.4 114.4L491.4 120.2L491.8 120.2Q492.9 117.4 495.5 115.7Q498.0 114.0 501.7 114.0L501.7 114.0Q505.1 114.0 507.6 115.5Q510.1 117.0 511.5 119.7Q513.0 122.5 513.0 126.3L513.0 126.3L513.0 147.2L503.9 147.2L503.9 127.9Q503.9 124.9 502.3 123.2Q500.8 121.5 498.1 121.5L498.1 121.5Q496.2 121.5 494.8 122.3Q493.4 123.1 492.7 124.6Q491.9 126.1 491.9 128.2ZM532.8 160.1L532.8 160.1Q528.4 160.1 525.3 158.9Q522.1 157.7 520.3 155.6Q518.4 153.6 517.9 151.0L517.9 151.0L526.3 149.9Q526.7 150.8 527.5 151.7Q528.3 152.6 529.7 153.1Q531.1 153.6 533.0 153.6L533.0 153.6Q536.0 153.6 537.9 152.2Q539.9 150.7 539.9 147.4L539.9 147.4L539.9 141.4L539.5 141.4Q538.9 142.7 537.7 143.9Q536.5 145.2 534.6 145.9Q532.7 146.7 530.1 146.7L530.1 146.7Q526.5 146.7 523.4 145.0Q520.4 143.3 518.7 139.7Q516.9 136.2 516.9 130.7L516.9 130.7Q516.9 125.2 518.7 121.4Q520.5 117.7 523.5 115.9Q526.5 114.0 530.1 114.0L530.1 114.0Q532.9 114.0 534.7 114.9Q536.6 115.9 537.7 117.2Q538.9 118.6 539.5 119.9L539.5 119.9L539.8 119.9L539.8 114.4L548.8 114.4L548.8 147.5Q548.8 151.7 546.8 154.5Q544.7 157.3 541.1 158.7Q537.5 160.1 532.8 160.1ZM533.0 139.9L533.0 139.9Q535.2 139.9 536.7 138.8Q538.3 137.7 539.1 135.6Q539.9 133.6 539.9 130.7L539.9 130.7Q539.9 127.8 539.1 125.7Q538.3 123.6 536.8 122.4Q535.2 121.2 533.0 121.2L533.0 121.2Q530.8 121.2 529.3 122.4Q527.7 123.6 526.9 125.8Q526.1 127.9 526.1 130.7L526.1 130.7Q526.1 133.5 526.9 135.6Q527.7 137.6 529.3 138.8Q530.8 139.9 533.0 139.9Z "/></clipPath><defs><pattern id="satori_pattern_id-0_0" x="0" y="0" width="1" height="1" patternUnits="objectBoundingBox"><linearGradient id="satori_biid-0_0" x1="0" y1="0" x2="1" y2="0"><stop offset="0%" stop-color="rgb(0,124,240)"/><stop offset="100%" stop-color="rgb(0,223,216)"/></linearGradient><rect x="0" y="0" width="302" height="73" fill="url(#satori_biid-0_0)"/></pattern></defs><mask id="satori_om-id-0"><rect x="249" y="91" width="302" height="73" fill="#fff"/></mask><rect x="249" y="91" width="302" height="73" fill="url(#satori_pattern_id-0_0)" clip-path="url(#satori_bct-id-0)"/><clipPath id="satori_bct-id-1"><path d="M167.0 220.2L157.8 220.2L157.8 176.5L175.0 176.5Q180.0 176.5 183.5 178.4Q187.0 180.3 188.8 183.6Q190.6 187.0 190.6 191.3L190.6 191.3Q190.6 195.7 188.8 199.0Q186.9 202.3 183.4 204.2Q179.8 206.0 174.8 206.0L174.8 206.0L163.8 206.0L163.8 198.6L173.3 198.6Q175.9 198.6 177.7 197.7Q179.4 196.8 180.3 195.1Q181.1 193.5 181.1 191.3L181.1 191.3Q181.1 189.1 180.3 187.5Q179.4 185.9 177.7 185.0Q175.9 184.1 173.2 184.1L173.2 184.1L167.0 184.1L167.0 220.2ZM208.8 220.8L208.8 220.8Q203.8 220.8 200.2 218.7Q196.5 216.7 194.6 212.9Q192.6 209.1 192.6 203.9L192.6 203.9Q192.6 198.9 194.6 195.1Q196.5 191.3 200.1 189.1Q203.7 187.0 208.5 187.0L208.5 187.0Q211.7 187.0 214.5 188.0Q217.3 189.1 219.4 191.1Q221.5 193.2 222.7 196.3Q223.9 199.5 223.9 203.6L223.9 203.6L223.9 206.1L196.2 206.1L196.2 200.5L215.3 200.5Q215.3 198.5 214.5 197.0Q213.6 195.5 212.1 194.6Q210.6 193.8 208.6 193.8L208.6 193.8Q206.6 193.8 205.0 194.7Q203.4 195.7 202.5 197.3Q201.6 198.9 201.6 200.8L201.6 200.8L201.6 206.1Q201.6 208.6 202.5 210.3Q203.4 212.1 205.1 213.1Q206.7 214.0 209.0 214.0L209.0 214.0Q210.5 214.0 211.8 213.6Q213.0 213.2 213.9 212.3Q214.8 211.5 215.3 210.2L215.3 210.2L223.7 210.8Q223.0 213.8 221.1 216.1Q219.1 218.3 216.0 219.6Q212.9 220.8 208.8 220.8ZM236.9 220.2L227.8 220.2L227.8 187.4L236.6 187.4L236.6 193.1L236.9 193.1Q237.8 190.1 239.9 188.5Q242.0 187.0 244.8 187.0L244.8 187.0Q245.5 187.0 246.3 187.0Q247.1 187.1 247.6 187.3L247.6 187.3L247.6 195.3Q247.0 195.1 245.9 195.0Q244.8 194.8 243.8 194.8L243.8 194.8Q241.8 194.8 240.2 195.7Q238.7 196.6 237.8 198.1Q236.9 199.6 236.9 201.6L236.9 201.6L236.9 220.2ZM249.4 187.4L269.6 187.4L269.6 194.3L249.4 194.3L249.4 187.4ZM263.0 220.2L254.0 220.2L254.0 185.1Q254.0 181.5 255.4 179.2Q256.8 176.8 259.2 175.7Q261.6 174.5 264.7 174.5L264.7 174.5Q266.8 174.5 268.5 174.8Q270.3 175.1 271.1 175.4L271.1 175.4L269.5 182.2Q269.0 182.0 268.2 181.9Q267.4 181.7 266.6 181.7L266.6 181.7Q264.6 181.7 263.8 182.6Q263.0 183.6 263.0 185.2L263.0 185.2L263.0 220.2ZM286.7 220.8L286.7 220.8Q281.8 220.8 278.2 218.7Q274.5 216.6 272.6 212.8Q270.6 209.0 270.6 203.9L270.6 203.9Q270.6 198.9 272.6 195.1Q274.5 191.2 278.2 189.1Q281.8 187.0 286.7 187.0L286.7 187.0Q291.7 187.0 295.3 189.1Q298.9 191.2 300.9 195.1Q302.8 198.9 302.8 203.9L302.8 203.9Q302.8 209.0 300.9 212.8Q298.9 216.6 295.3 218.7Q291.7 220.8 286.7 220.8ZM286.8 213.8L286.8 213.8Q289.0 213.8 290.5 212.5Q292.1 211.2 292.8 209.0Q293.6 206.7 293.6 203.9L293.6 203.9Q293.6 201.0 292.8 198.8Q292.1 196.5 290.5 195.2Q289.0 193.9 286.8 193.9L286.8 193.9Q284.5 193.9 282.9 195.2Q281.4 196.5 280.6 198.8Q279.8 201.0 279.8 203.9L279.8 203.9Q279.8 206.7 280.6 209.0Q281.4 211.2 282.9 212.5Q284.5 213.8 286.8 213.8ZM315.8 220.2L306.8 220.2L306.8 187.4L315.6 187.4L315.6 193.1L315.9 193.1Q316.8 190.1 318.9 188.5Q321.0 187.0 323.8 187.0L323.8 187.0Q324.4 187.0 325.2 187.0Q326.0 187.1 326.6 187.3L326.6 187.3L326.6 195.3Q326.0 195.1 324.9 195.0Q323.7 194.8 322.8 194.8L322.8 194.8Q320.8 194.8 319.2 195.7Q317.7 196.6 316.7 198.1Q315.8 199.6 315.8 201.6L315.8 201.6L315.8 220.2ZM338.4 220.2L329.3 220.2L329.3 187.4L337.9 187.4L337.9 193.2L338.3 193.2Q339.3 190.3 341.7 188.7Q344.1 187.0 347.4 187.0L347.4 187.0Q350.8 187.0 353.2 188.7Q355.5 190.4 356.3 193.2L356.3 193.2L356.7 193.2Q357.7 190.4 360.3 188.7Q362.9 187.0 366.5 187.0L366.5 187.0Q371.1 187.0 374.0 189.9Q376.8 192.8 376.8 198.2L376.8 198.2L376.8 220.2L367.8 220.2L367.8 199.9Q367.8 197.2 366.3 195.8Q364.9 194.5 362.7 194.5L362.7 194.5Q360.2 194.5 358.9 196.1Q357.5 197.6 357.5 200.2L357.5 200.2L357.5 220.2L348.7 220.2L348.7 199.7Q348.7 197.3 347.3 195.9Q345.9 194.5 343.7 194.5L343.7 194.5Q342.2 194.5 341.0 195.2Q339.8 196.0 339.1 197.4Q338.4 198.7 338.4 200.5L338.4 200.5L338.4 220.2ZM391.3 220.8L391.3 220.8Q388.2 220.8 385.8 219.7Q383.3 218.6 381.9 216.4Q380.5 214.3 380.5 211.0L380.5 211.0Q380.5 208.3 381.5 206.4Q382.5 204.6 384.2 203.5Q385.9 202.3 388.1 201.8Q390.3 201.2 392.8 200.9L392.8 200.9Q395.6 200.6 397.4 200.4Q399.1 200.1 399.9 199.6Q400.7 199.0 400.7 198.0L400.7 198.0L400.7 197.9Q400.7 195.8 399.4 194.7Q398.2 193.6 395.8 193.6L395.8 193.6Q393.4 193.6 391.9 194.7Q390.5 195.8 390.0 197.4L390.0 197.4L381.6 196.7Q382.3 193.7 384.1 191.6Q386.0 189.4 389.0 188.2Q392.0 187.0 395.9 187.0L395.9 187.0Q398.6 187.0 401.1 187.6Q403.6 188.3 405.6 189.6Q407.5 191.0 408.6 193.1Q409.8 195.2 409.8 198.1L409.8 198.1L409.8 220.2L401.2 220.2L401.2 215.6L400.9 215.6Q400.1 217.2 398.8 218.3Q397.5 219.5 395.6 220.1Q393.8 220.8 391.3 220.8ZM393.9 214.5L393.9 214.5Q395.9 214.5 397.5 213.7Q399.0 212.9 399.9 211.6Q400.8 210.2 400.8 208.5L400.8 208.5L400.8 205.0Q400.3 205.3 399.6 205.5Q398.9 205.7 397.9 205.9Q397.0 206.1 396.1 206.2Q395.2 206.4 394.4 206.5L394.4 206.5Q392.8 206.7 391.7 207.2Q390.5 207.7 389.8 208.6Q389.1 209.4 389.1 210.7L389.1 210.7Q389.1 212.6 390.5 213.5Q391.8 214.5 393.9 214.5ZM423.9 201.2L423.9 201.2L423.9 220.2L414.8 220.2L414.8 187.4L423.5 187.4L423.5 193.2L423.9 193.2Q424.9 190.4 427.5 188.7Q430.1 187.0 433.7 187.0L433.7 187.0Q437.1 187.0 439.6 188.5Q442.2 190.0 443.6 192.7Q445.0 195.5 445.0 199.3L445.0 199.3L445.0 220.2L435.9 220.2L435.9 200.9Q435.9 197.9 434.4 196.2Q432.8 194.5 430.1 194.5L430.1 194.5Q428.3 194.5 426.9 195.3Q425.5 196.1 424.7 197.6Q423.9 199.1 423.9 201.2ZM464.9 220.8L464.9 220.8Q459.9 220.8 456.3 218.7Q452.7 216.5 450.7 212.7Q448.8 208.9 448.8 203.9L448.8 203.9Q448.8 198.9 450.8 195.1Q452.7 191.3 456.3 189.1Q459.9 187.0 464.9 187.0L464.9 187.0Q469.2 187.0 472.4 188.6Q475.6 190.1 477.5 192.9Q479.3 195.7 479.5 199.5L479.5 199.5L471.0 199.5Q470.6 197.1 469.1 195.6Q467.5 194.1 465.0 194.1L465.0 194.1Q462.9 194.1 461.3 195.2Q459.8 196.4 458.9 198.5Q458.0 200.7 458.0 203.8L458.0 203.8Q458.0 206.9 458.9 209.1Q459.8 211.3 461.3 212.5Q462.9 213.6 465.0 213.6L465.0 213.6Q466.6 213.6 467.8 213.0Q469.1 212.3 469.9 211.1Q470.7 209.9 471.0 208.2L471.0 208.2L479.5 208.2Q479.3 211.9 477.5 214.8Q475.7 217.6 472.5 219.2Q469.3 220.8 464.9 220.8ZM498.3 220.8L498.3 220.8Q493.2 220.8 489.6 218.7Q486.0 216.7 484.0 212.9Q482.0 209.1 482.0 203.9L482.0 203.9Q482.0 198.9 484.0 195.1Q486.0 191.3 489.5 189.1Q493.1 187.0 497.9 187.0L497.9 187.0Q501.2 187.0 504.0 188.0Q506.8 189.1 508.9 191.1Q511.0 193.2 512.1 196.3Q513.3 199.5 513.3 203.6L513.3 203.6L513.3 206.1L485.7 206.1L485.7 200.5L504.8 200.5Q504.8 198.5 503.9 197.0Q503.1 195.5 501.6 194.6Q500.1 193.8 498.1 193.8L498.1 193.8Q496.0 193.8 494.4 194.7Q492.8 195.7 491.9 197.3Q491.0 198.9 491.0 200.8L491.0 200.8L491.0 206.1Q491.0 208.6 491.9 210.3Q492.8 212.1 494.5 213.1Q496.2 214.0 498.4 214.0L498.4 214.0Q499.9 214.0 501.2 213.6Q502.5 213.2 503.4 212.3Q504.2 211.5 504.7 210.2L504.7 210.2L513.1 210.8Q512.5 213.8 510.5 216.1Q508.5 218.3 505.4 219.6Q502.3 220.8 498.3 220.8Z M545.2 220.2L535.7 220.2L526.8 187.4L535.9 187.4L541.0 209.4L541.3 209.4L546.6 187.4L555.6 187.4L561.0 209.3L561.2 209.3L566.2 187.4L575.4 187.4L566.5 220.2L556.9 220.2L551.3 199.6L550.9 199.6L545.2 220.2ZM587.3 220.2L578.2 220.2L578.2 187.4L587.3 187.4L587.3 220.2ZM582.8 183.2L582.8 183.2Q580.7 183.2 579.3 181.9Q577.9 180.5 577.9 178.6L577.9 178.6Q577.9 176.7 579.3 175.4Q580.7 174.0 582.8 174.0L582.8 174.0Q584.8 174.0 586.2 175.4Q587.7 176.7 587.7 178.6L587.7 178.6Q587.7 180.5 586.2 181.9Q584.8 183.2 582.8 183.2ZM590.2 187.4L609.9 187.4L609.9 194.3L590.2 194.3L590.2 187.4ZM594.7 211.3L594.7 179.6L603.8 179.6L603.8 210.1Q603.8 211.4 604.2 212.1Q604.6 212.7 605.2 213.0Q605.9 213.3 606.9 213.3L606.9 213.3Q607.5 213.3 608.1 213.2Q608.8 213.1 609.1 213.0L609.1 213.0L610.5 219.8Q609.9 220.0 608.6 220.3Q607.4 220.5 605.6 220.6L605.6 220.6Q602.3 220.7 599.9 219.7Q597.4 218.7 596.0 216.6Q594.7 214.5 594.7 211.3L594.7 211.3ZM623.6 201.2L623.6 201.2L623.6 220.2L614.5 220.2L614.5 176.5L623.3 176.5L623.3 193.2L623.7 193.2Q624.8 190.3 627.3 188.7Q629.8 187.0 633.5 187.0L633.5 187.0Q636.9 187.0 639.5 188.5Q642.0 190.0 643.4 192.7Q644.8 195.5 644.8 199.3L644.8 199.3L644.8 220.2L635.7 220.2L635.7 200.9Q635.8 197.9 634.2 196.2Q632.7 194.5 629.9 194.5L629.9 194.5Q628.1 194.5 626.6 195.3Q625.2 196.1 624.4 197.6Q623.6 199.1 623.6 201.2Z "/></clipPath><defs><pattern id="satori_pattern_id-1_0" x="0" y="0" width="1" height="1" patternUnits="objectBoundingBox"><linearGradient id="satori_biid-1_0" x1="0" y1="0" x2="1" y2="0"><stop offset="0%" stop-color="rgb(121,40,202)"/><stop offset="100%" stop-color="rgb(255,0,128)"/></linearGradient><rect x="0" y="0" width="492" height="72" fill="url(#satori_biid-1_0)"/></pattern></defs><mask id="satori_om-id-1"><rect x="154" y="164" width="492" height="72" fill="#fff"/></mask><rect x="154" y="164" width="492" height="72" fill="url(#satori_pattern_id-1_0)" clip-path="url(#satori_bct-id-1)"/><clipPath id="satori_bct-id-2"><path d="M303.8 248.5L313.0 248.5L313.0 292.2L303.8 292.2L303.8 248.5ZM327.5 273.2L327.5 273.2L327.5 292.2L318.5 292.2L318.5 259.4L327.1 259.4L327.1 265.2L327.5 265.2Q328.6 262.4 331.1 260.7Q333.7 259.0 337.3 259.0L337.3 259.0Q340.7 259.0 343.3 260.5Q345.8 262.0 347.2 264.7Q348.6 267.5 348.6 271.3L348.6 271.3L348.6 292.2L339.5 292.2L339.5 272.9Q339.6 269.9 338.0 268.2Q336.5 266.5 333.7 266.5L333.7 266.5Q331.9 266.5 330.5 267.3Q329.1 268.1 328.3 269.6Q327.6 271.1 327.5 273.2ZM353.8 248.5L362.8 248.5L362.8 292.2L353.8 292.2L353.8 248.5ZM377.2 292.2L368.1 292.2L368.1 259.4L377.2 259.4L377.2 292.2ZM372.6 255.2L372.6 255.2Q370.6 255.2 369.2 253.9Q367.7 252.5 367.7 250.6L367.7 250.6Q367.7 248.7 369.2 247.4Q370.6 246.0 372.6 246.0L372.6 246.0Q374.7 246.0 376.1 247.4Q377.5 248.7 377.5 250.6L377.5 250.6Q377.5 252.5 376.1 253.9Q374.7 255.2 372.6 255.2ZM391.5 273.2L391.5 273.2L391.5 292.2L382.4 292.2L382.4 259.4L391.1 259.4L391.1 265.2L391.4 265.2Q392.5 262.4 395.1 260.7Q397.6 259.0 401.3 259.0L401.3 259.0Q404.7 259.0 407.2 260.5Q409.8 262.0 411.2 264.7Q412.6 267.5 412.6 271.3L412.6 271.3L412.6 292.2L403.5 292.2L403.5 272.9Q403.5 269.9 402.0 268.2Q400.4 266.5 397.7 266.5L397.7 266.5Q395.8 266.5 394.5 267.3Q393.1 268.1 392.3 269.6Q391.5 271.1 391.5 273.2ZM426.8 292.2L417.7 292.2L417.7 259.4L426.8 259.4L426.8 292.2ZM422.3 255.2L422.3 255.2Q420.2 255.2 418.8 253.9Q417.4 252.5 417.4 250.6L417.4 250.6Q417.4 248.7 418.8 247.4Q420.2 246.0 422.3 246.0L422.3 246.0Q424.3 246.0 425.7 247.4Q427.2 248.7 427.2 250.6L427.2 250.6Q427.2 252.5 425.7 253.9Q424.3 255.2 422.3 255.2ZM441.1 273.2L441.1 273.2L441.1 292.2L432.0 292.2L432.0 259.4L440.7 259.4L440.7 265.2L441.1 265.2Q442.2 262.4 444.7 260.7Q447.3 259.0 450.9 259.0L450.9 259.0Q454.3 259.0 456.9 260.5Q459.4 262.0 460.8 264.7Q462.2 267.5 462.2 271.3L462.2 271.3L462.2 292.2L453.1 292.2L453.1 272.9Q453.1 269.9 451.6 268.2Q450.0 266.5 447.3 266.5L447.3 266.5Q445.5 266.5 444.1 267.3Q442.7 268.1 441.9 269.6Q441.1 271.1 441.1 273.2ZM482.1 305.1L482.1 305.1Q477.7 305.1 474.5 303.9Q471.4 302.7 469.5 300.6Q467.7 298.6 467.1 296.0L467.1 296.0L475.5 294.9Q475.9 295.8 476.7 296.7Q477.6 297.6 478.9 298.1Q480.3 298.6 482.3 298.6L482.3 298.6Q485.3 298.6 487.2 297.2Q489.1 295.7 489.1 292.4L489.1 292.4L489.1 286.4L488.7 286.4Q488.1 287.7 486.9 288.9Q485.8 290.2 483.9 290.9Q482.0 291.7 479.4 291.7L479.4 291.7Q475.7 291.7 472.7 290.0Q469.7 288.3 467.9 284.7Q466.1 281.2 466.1 275.7L466.1 275.7Q466.1 270.2 467.9 266.4Q469.8 262.7 472.8 260.9Q475.8 259.0 479.4 259.0L479.4 259.0Q482.1 259.0 484.0 259.9Q485.8 260.9 487.0 262.2Q488.1 263.6 488.7 264.9L488.7 264.9L489.1 264.9L489.1 259.4L498.1 259.4L498.1 292.5Q498.1 296.7 496.0 299.5Q494.0 302.3 490.4 303.7Q486.8 305.1 482.1 305.1ZM482.3 284.9L482.3 284.9Q484.5 284.9 486.0 283.8Q487.5 282.7 488.3 280.6Q489.2 278.6 489.2 275.7L489.2 275.7Q489.2 272.8 488.4 270.7Q487.5 268.6 486.0 267.4Q484.5 266.2 482.3 266.2L482.3 266.2Q480.0 266.2 478.5 267.4Q477.0 268.6 476.2 270.8Q475.4 272.9 475.4 275.7L475.4 275.7Q475.4 278.5 476.2 280.6Q477.0 282.6 478.5 283.8Q480.0 284.9 482.3 284.9Z "/></clipPath><defs><pattern id="satori_pattern_id-2_0" x="0" y="0" width="1" height="1" patternUnits="objectBoundingBox"><linearGradient id="satori_biid-2_0" x1="0" y1="0" x2="1" y2="0"><stop offset="0%" stop-color="rgb(255,77,77)"/><stop offset="100%" stop-color="rgb(249,203,40)"/></linearGradient><rect x="0" y="0" width="200" height="73" fill="url(#satori_biid-2_0)"/></pattern></defs><mask id="satori_om-id-2"><rect x="300" y="236" width="200" height="73" fill="#fff"/></mask><rect x="300" y="236" width="200" height="73" fill="url(#satori_pattern_id-2_0)" clip-path="url(#satori_bct-id-2)"/></svg>