<svg width="800" height="400" viewBox="0 0 800 400" xmlns="http://www.w3.org/2000/svg"><mask id="satori_om-id"><rect x="0" y="0" width="800" height="400" fill="#fff"/></mask><rect x="0" y="0" width="800" height="400" fill="none"/><clipPath id="satori_bct-id-0"><path d="M228.0 147.2L218.8 147.2L218.8 103.5L228.0 103.5L228.0 121.5L246.7 121.5L246.7 103.5L256.0 103.5L256.0 147.2L246.7 147.2L246.7 129.1L228.0 129.1L228.0 147.2ZM270.5 147.2L261.4 147.2L261.4 114.4L270.5 114.4L270.5 147.2ZM265.9 110.2L265.9 110.2Q263.9 110.2 262.5 108.9Q261.0 107.5 261.0 105.6L261.0 105.6Q261.0 103.7 262.5 102.4Q263.9 101.0 265.9 101.0L265.9 101.0Q268.0 101.0 269.4 102.4Q270.8 103.7 270.8 105.6L270.8 105.6Q270.8 107.5 269.4 108.9Q268.0 110.2 265.9 110.2ZM290.5 160.1L290.5 160.1Q286.0 160.1 282.9 158.9Q279.8 157.7 277.9 155.6Q276.0 153.6 275.5 151.0L275.5 151.0L283.9 149.9Q284.3 150.8 285.1 151.7Q285.9 152.6 287.3 153.1Q288.7 153.6 290.7 153.6L290.7 153.6Q293.6 153.6 295.6 152.2Q297.5 150.7 297.5 147.4L297.5 147.4L297.5 141.4L297.1 141.4Q296.5 142.7 295.3 143.9Q294.1 145.2 292.2 145.9Q290.4 146.7 287.8 146.7L287.8 146.7Q284.1 146.7 281.1 145.0Q278.1 143.3 276.3 139.7Q274.5 136.2 274.5 130.7L274.5 130.7Q274.5 125.2 276.3 121.4Q278.1 117.7 281.1 115.9Q284.1 114.0 287.7 114.0L287.7 114.0Q290.5 114.0 292.3 114.9Q294.2 115.9 295.3 117.2Q296.5 118.6 297.1 119.9L297.1 119.9L297.4 119.9L297.4 114.4L306.5 114.4L306.5 147.5Q306.5 151.7 304.4 154.5Q302.4 157.3 298.8 158.7Q295.1 160.1 290.5 160.1ZM290.6 139.9L290.6 139.9Q292.8 139.9 294.4 138.8Q295.9 137.7 296.7 135.6Q297.5 133.6 297.5 130.7L297.5 130.7Q297.5 127.8 296.7 125.7Q295.9 123.6 294.4 122.4Q292.8 121.2 290.6 121.2L290.6 121.2Q288.4 121.2 286.9 122.4Q285.3 123.6 284.6 125.8Q283.8 127.9 283.8 130.7L283.8 130.7Q283.8 133.5 284.6 135.6Q285.4 137.6 286.9 138.8Q288.4 139.9 290.6 139.9ZM320.8 128.2L320.8 128.2L320.8 147.2L311.7 147.2L311.7 103.5L320.5 103.5L320.5 120.2L320.9 120.2Q322.0 117.3 324.5 115.7Q327.0 114.0 330.7 114.0L330.7 114.0Q334.1 114.0 336.6 115.5Q339.2 117.0 340.6 119.7Q342.0 122.5 342.0 126.3L342.0 126.3L342.0 147.2L332.9 147.2L332.9 127.9Q332.9 124.9 331.4 123.2Q329.9 121.5 327.1 121.5L327.1 121.5Q325.2 121.5 323.8 122.3Q322.4 123.1 321.6 124.6Q320.8 126.1 320.8 128.2ZM362.1 147.8L362.1 147.8Q357.0 147.8 353.4 145.7Q349.8 143.7 347.8 139.9Q345.8 136.1 345.8 130.9L345.8 130.9Q345.8 125.9 347.8 122.1Q349.8 118.3 353.3 116.1Q356.9 114.0 361.7 114.0L361.7 114.0Q364.9 114.0 367.7 115.0Q370.6 116.1 372.6 118.1Q374.7 120.2 375.9 123.3Q377.1 126.5 377.1 130.6L377.1 130.6L377.1 133.1L349.5 133.1L349.5 127.5L368.5 127.5Q368.5 125.5 367.7 124.0Q366.8 122.5 365.3 121.6Q363.8 120.8 361.9 120.8L361.9 120.8Q359.8 120.8 358.2 121.7Q356.6 122.7 355.7 124.3Q354.8 125.9 354.8 127.8L354.8 127.8L354.8 133.1Q354.8 135.6 355.7 137.3Q356.6 139.1 358.3 140.1Q359.9 141.0 362.2 141.0L362.2 141.0Q363.7 141.0 365.0 140.6Q366.2 140.2 367.1 139.3Q368.0 138.5 368.5 137.2L368.5 137.2L376.9 137.8Q376.3 140.8 374.3 143.1Q372.3 145.3 369.2 146.6Q366.1 147.8 362.1 147.8ZM390.1 147.2L381.0 147.2L381.0 114.4L389.8 114.4L389.8 120.1L390.2 120.1Q391.1 117.1 393.2 115.5Q395.3 114.0 398.0 114.0L398.0 114.0Q398.7 114.0 399.5 114.0Q400.3 114.1 400.9 114.3L400.9 114.3L400.9 122.3Q400.2 122.1 399.1 122.0Q398.0 121.8 397.0 121.8L397.0 121.8Q395.0 121.8 393.5 122.7Q391.9 123.6 391.0 125.1Q390.1 126.6 390.1 128.6L390.1 128.6L390.1 147.2ZM403.1 125.6L423.0 125.6L423.0 132.8L403.1 132.8L403.1 125.6ZM469.0 125.3L469.0 125.3Q469.0 132.5 466.3 137.5Q463.6 142.5 459.0 145.1Q454.3 147.8 448.5 147.8L448.5 147.8Q442.7 147.8 438.1 145.1Q433.5 142.5 430.8 137.5Q428.1 132.5 428.1 125.3L428.1 125.3Q428.1 118.2 430.8 113.2Q433.5 108.2 438.1 105.6Q442.7 102.9 448.5 102.9L448.5 102.9Q454.3 102.9 459.0 105.6Q463.6 108.2 466.3 113.2Q469.0 118.2 469.0 125.3ZM459.6 125.3L459.6 125.3Q459.6 120.7 458.2 117.5Q456.9 114.4 454.4 112.7Q451.9 111.1 448.5 111.1L448.5 111.1Q445.2 111.1 442.7 112.7Q440.2 114.4 438.8 117.5Q437.5 120.7 437.5 125.3L437.5 125.3Q437.5 130.0 438.8 133.1Q440.2 136.3 442.7 138.0Q445.2 139.6 448.5 139.6L448.5 139.6Q451.9 139.6 454.4 138.0Q456.9 136.3 458.2 133.1Q459.6 130.0 459.6 125.3ZM482.7 147.2L473.6 147.2L473.6 114.4L482.4 114.4L482.4 120.1L482.8 120.1Q483.7 117.1 485.8 115.5Q487.9 114.0 490.6 114.0L490.6 114.0Q491.3 114.0 492.1 114.0Q492.9 114.1 493.5 114.3L493.5 114.3L493.5 122.3Q492.8 122.1 491.7 122.0Q490.6 121.8 489.6 121.8L489.6 121.8Q487.6 121.8 486.1 122.7Q484.5 123.6 483.6 125.1Q482.7 126.6 482.7 128.6L482.7 128.6L482.7 147.2ZM506.7 147.7L506.7 147.7Q502.9 147.7 499.9 145.8Q496.9 143.8 495.2 140.1Q493.4 136.3 493.4 130.8L493.4 130.8Q493.4 125.2 495.2 121.5Q497.0 117.7 500.0 115.9Q503.1 114.0 506.7 114.0L506.7 114.0Q509.4 114.0 511.2 114.9Q513.1 115.9 514.2 117.2Q515.4 118.6 516.0 119.9L516.0 119.9L516.2 119.9L516.2 103.5L525.3 103.5L525.3 147.2L516.3 147.2L516.3 141.9L516.0 141.9Q515.3 143.3 514.2 144.6Q513.0 145.9 511.2 146.8Q509.3 147.7 506.7 147.7ZM509.5 140.5L509.5 140.5Q511.7 140.5 513.3 139.3Q514.8 138.1 515.6 135.9Q516.4 133.7 516.4 130.8L516.4 130.8Q516.4 127.9 515.6 125.7Q514.8 123.6 513.3 122.4Q511.7 121.2 509.5 121.2L509.5 121.2Q507.3 121.2 505.8 122.4Q504.2 123.7 503.5 125.8Q502.7 128.0 502.7 130.8L502.7 130.8Q502.7 133.7 503.5 135.8Q504.3 138.0 505.8 139.2Q507.3 140.5 509.5 140.5ZM545.6 147.8L545.6 147.8Q540.6 147.8 537.0 145.7Q533.3 143.7 531.4 139.9Q529.4 136.1 529.4 130.9L529.4 130.9Q529.4 125.9 531.4 122.1Q533.3 118.3 536.9 116.1Q540.5 114.0 545.3 114.0L545.3 114.0Q548.5 114.0 551.3 115.0Q554.1 116.1 556.2 118.1Q558.3 120.2 559.5 123.3Q560.7 126.5 560.7 130.6L560.7 130.6L560.7 133.1L533.0 133.1L533.0 127.5L552.1 127.5Q552.1 125.5 551.3 124.0Q550.4 122.5 548.9 121.6Q547.4 120.8 545.4 120.8L545.4 120.8Q543.4 120.8 541.8 121.7Q540.2 122.7 539.3 124.3Q538.4 125.9 538.4 127.8L538.4 127.8L538.4 133.1Q538.4 135.6 539.3 137.3Q540.2 139.1 541.9 140.1Q543.5 141.0 545.8 141.0L545.8 141.0Q547.3 141.0 548.6 140.6Q549.8 140.2 550.7 139.3Q551.6 138.5 552.1 137.2L552.1 137.2L560.5 137.8Q559.8 140.8 557.9 143.1Q555.9 145.3 552.8 146.6Q549.7 147.8 545.6 147.8ZM573.7 147.2L564.6 147.2L564.6 114.4L573.4 114.4L573.4 120.1L573.7 120.1Q574.6 117.1 576.7 115.5Q578.8 114.0 581.6 114.0L581.6 114.0Q582.3 114.0 583.1 114.0Q583.9 114.1 584.4 114.3L584.4 114.3L584.4 122.3Q583.8 122.1 582.7 122.0Q581.6 121.8 580.6 121.8L580.6 121.8Q578.6 121.8 577.0 122.7Q575.5 123.6 574.6 125.1Q573.7 126.6 573.7 128.6L573.7 128.6L573.7 147.2Z "/></clipPath><defs><pattern id="satori_pattern_id-0_0" x="0" y="0" width="1" height="1" patternUnits="objectBoundingBox"><linearGradient id="satori_biid-0_0" x1="0" y1="0" x2="1" y2="0"><stop offset="0%" stop-color="rgb(0,124,240)"/><stop offset="100%" stop-color="rgb(0,223,216)"/></linearGradient><rect x="0" y="0" width="370" height="73" fill="url(#satori_biid-0_0)"/></pattern></defs><mask id="satori_om-id-0"><rect x="215" y="91" width="370" height="73" fill="#fff"/></mask><rect x="215" y="91" width="370" height="73" fill="url(#satori_pattern_id-0_0)" clip-path="url(#satori_bct-id-0)"/><clipPath id="satori_bct-id-1"><path d="M245.0 220.2L235.8 220.2L235.8 176.5L264.7 176.5L264.7 184.1L245.0 184.1L245.0 194.5L262.8 194.5L262.8 202.1L245.0 202.1L245.0 220.2ZM287.7 206.2L287.7 206.2L287.7 187.4L296.7 187.4L296.7 220.2L288.0 220.2L288.0 214.2L287.7 214.2Q286.6 217.1 284.0 218.8Q281.4 220.6 277.7 220.6L277.7 220.6Q274.5 220.6 272.0 219.1Q269.5 217.6 268.1 214.9Q266.7 212.1 266.7 208.3L266.7 208.3L266.7 187.4L275.7 187.4L275.7 206.7Q275.8 209.5 277.3 211.2Q278.8 212.9 281.4 212.9L281.4 212.9Q283.1 212.9 284.5 212.2Q285.9 211.4 286.8 209.9Q287.7 208.4 287.7 206.2ZM311.1 201.2L311.1 201.2L311.1 220.2L302.0 220.2L302.0 187.4L310.6 187.4L310.6 193.2L311.0 193.2Q312.1 190.4 314.7 188.7Q317.2 187.0 320.9 187.0L320.9 187.0Q324.3 187.0 326.8 188.5Q329.3 190.0 330.7 192.7Q332.1 195.5 332.1 199.3L332.1 199.3L332.1 220.2L323.1 220.2L323.1 200.9Q323.1 197.9 321.5 196.2Q320.0 194.5 317.3 194.5L317.3 194.5Q315.4 194.5 314.0 195.3Q312.6 196.1 311.9 197.6Q311.1 199.1 311.1 201.2ZM352.1 220.8L352.1 220.8Q347.0 220.8 343.4 218.7Q339.8 216.5 337.9 212.7Q336.0 208.9 336.0 203.9L336.0 203.9Q336.0 198.9 337.9 195.1Q339.9 191.3 343.5 189.1Q347.1 187.0 352.0 187.0L352.0 187.0Q356.3 187.0 359.5 188.6Q362.7 190.1 364.6 192.9Q366.5 195.7 366.7 199.5L366.7 199.5L358.1 199.5Q357.8 197.1 356.2 195.6Q354.7 194.1 352.2 194.1L352.2 194.1Q350.1 194.1 348.5 195.2Q346.9 196.4 346.1 198.5Q345.2 200.7 345.2 203.8L345.2 203.8Q345.2 206.9 346.1 209.1Q346.9 211.3 348.5 212.5Q350.1 213.6 352.2 213.6L352.2 213.6Q353.7 213.6 355.0 213.0Q356.2 212.3 357.0 211.1Q357.9 209.9 358.1 208.2L358.1 208.2L366.7 208.2Q366.5 211.9 364.7 214.8Q362.8 217.6 359.6 219.2Q356.4 220.8 352.1 220.8ZM368.2 187.4L387.9 187.4L387.9 194.3L368.2 194.3L368.2 187.4ZM372.7 211.3L372.7 179.6L381.8 179.6L381.8 210.1Q381.8 211.4 382.2 212.1Q382.5 212.7 383.2 213.0Q383.9 213.3 384.8 213.3L384.8 213.3Q385.5 213.3 386.1 213.2Q386.8 213.1 387.1 213.0L387.1 213.0L388.5 219.8Q387.8 220.0 386.6 220.3Q385.4 220.5 383.6 220.6L383.6 220.6Q380.3 220.7 377.9 219.7Q375.4 218.7 374.0 216.6Q372.7 214.5 372.7 211.3L372.7 211.3ZM400.9 220.2L391.8 220.2L391.8 187.4L400.9 187.4L400.9 220.2ZM396.4 183.2L396.4 183.2Q394.4 183.2 392.9 181.9Q391.5 180.5 391.5 178.6L391.5 178.6Q391.5 176.7 392.9 175.4Q394.4 174.0 396.4 174.0L396.4 174.0Q398.4 174.0 399.9 175.4Q401.3 176.7 401.3 178.6L401.3 178.6Q401.3 180.5 399.9 181.9Q398.4 183.2 396.4 183.2ZM420.9 220.8L420.9 220.8Q416.0 220.8 412.4 218.7Q408.8 216.6 406.8 212.8Q404.8 209.0 404.8 203.9L404.8 203.9Q404.8 198.9 406.8 195.1Q408.8 191.2 412.4 189.1Q416.0 187.0 420.9 187.0L420.9 187.0Q425.9 187.0 429.5 189.1Q433.1 191.2 435.1 195.1Q437.1 198.9 437.1 203.9L437.1 203.9Q437.1 209.0 435.1 212.8Q433.1 216.6 429.5 218.7Q425.9 220.8 420.9 220.8ZM421.0 213.8L421.0 213.8Q423.2 213.8 424.8 212.5Q426.3 211.2 427.0 209.0Q427.8 206.7 427.8 203.9L427.8 203.9Q427.8 201.0 427.0 198.8Q426.3 196.5 424.8 195.2Q423.2 193.9 421.0 193.9L421.0 193.9Q418.7 193.9 417.2 195.2Q415.6 196.5 414.8 198.8Q414.1 201.0 414.1 203.9L414.1 203.9Q414.1 206.7 414.8 209.0Q415.6 211.2 417.2 212.5Q418.7 213.8 421.0 213.8ZM450.1 201.2L450.1 201.2L450.1 220.2L441.0 220.2L441.0 187.4L449.6 187.4L449.6 193.2L450.0 193.2Q451.1 190.4 453.7 188.7Q456.2 187.0 459.9 187.0L459.9 187.0Q463.3 187.0 465.8 188.5Q468.3 190.0 469.7 192.7Q471.1 195.5 471.1 199.3L471.1 199.3L471.1 220.2L462.1 220.2L462.1 200.9Q462.1 197.9 460.5 196.2Q459.0 194.5 456.3 194.5L456.3 194.5Q454.4 194.5 453.0 195.3Q451.6 196.1 450.9 197.6Q450.1 199.1 450.1 201.2ZM503.5 196.8L503.5 196.8L495.2 197.3Q495.0 196.2 494.3 195.3Q493.6 194.5 492.4 194.0Q491.3 193.4 489.7 193.4L489.7 193.4Q487.6 193.4 486.2 194.3Q484.7 195.2 484.7 196.7L484.7 196.7Q484.7 197.9 485.7 198.7Q486.6 199.5 488.9 200.0L488.9 200.0L494.8 201.2Q499.6 202.1 501.9 204.3Q504.3 206.5 504.3 210.0L504.3 210.0Q504.3 213.2 502.4 215.7Q500.5 218.1 497.2 219.4Q493.9 220.8 489.7 220.8L489.7 220.8Q483.2 220.8 479.3 218.1Q475.5 215.4 474.8 210.7L474.8 210.7L483.8 210.2Q484.2 212.2 485.7 213.2Q487.3 214.3 489.7 214.3L489.7 214.3Q492.1 214.3 493.6 213.3Q495.0 212.4 495.0 210.9L495.0 210.9Q495.0 209.7 494.0 208.9Q493.0 208.1 490.8 207.7L490.8 207.7L485.2 206.5Q480.4 205.6 478.0 203.2Q475.7 200.9 475.7 197.2L475.7 197.2Q475.7 194.0 477.4 191.8Q479.1 189.5 482.3 188.2Q485.4 187.0 489.6 187.0L489.6 187.0Q495.8 187.0 499.3 189.6Q502.9 192.2 503.5 196.8Z M531.0 220.2L522.0 220.2L522.0 187.4L531.0 187.4L531.0 220.2ZM526.5 183.2L526.5 183.2Q524.5 183.2 523.0 181.9Q521.6 180.5 521.6 178.6L521.6 178.6Q521.6 176.7 523.0 175.4Q524.5 174.0 526.5 174.0L526.5 174.0Q528.5 174.0 530.0 175.4Q531.4 176.7 531.4 178.6L531.4 178.6Q531.4 180.5 530.0 181.9Q528.5 183.2 526.5 183.2ZM545.3 201.2L545.3 201.2L545.3 220.2L536.3 220.2L536.3 187.4L544.9 187.4L544.9 193.2L545.3 193.2Q546.4 190.4 548.9 188.7Q551.5 187.0 555.1 187.0L555.1 187.0Q558.6 187.0 561.1 188.5Q563.6 190.0 565.0 192.7Q566.4 195.5 566.4 199.3L566.4 199.3L566.4 220.2L557.4 220.2L557.4 200.9Q557.4 197.9 555.8 196.2Q554.3 194.5 551.5 194.5L551.5 194.5Q549.7 194.5 548.3 195.3Q546.9 196.1 546.1 197.6Q545.4 199.1 545.3 201.2Z "/></clipPath><defs><pattern id="satori_pattern_id-1_0" x="0" y="0" width="1" height="1" patternUnits="objectBoundingBox"><linearGradient id="satori_biid-1_0" x1="0" y1="0" x2="1" y2="0"><stop offset="0%" stop-color="rgb(121,40,202)"/><stop offset="100%" stop-color="rgb(255,0,128)"/></linearGradient><rect x="0" y="0" width="336" height="72" fill="url(#satori_biid-1_0)"/></pattern></defs><mask id="satori_om-id-1"><rect x="232" y="164" width="336" height="72" fill="#fff"/></mask><rect x="232" y="164" width="336" height="72" fill="url(#satori_pattern_id-1_0)" clip-path="url(#satori_bct-id-1)"/><clipPath id="satori_bct-id-2"><path d="M403.1 262.6L393.7 262.6Q393.3 261.1 392.5 259.9Q391.7 258.7 390.5 257.8Q389.3 257.0 387.9 256.5Q386.4 256.1 384.6 256.1L384.6 256.1Q381.2 256.1 378.7 257.7Q376.2 259.4 374.8 262.6Q373.4 265.7 373.4 270.3L373.4 270.3Q373.4 274.9 374.8 278.1Q376.1 281.3 378.7 282.9Q381.2 284.6 384.7 284.6L384.7 284.6Q387.8 284.6 390.0 283.5Q392.3 282.4 393.4 280.3Q394.6 278.3 394.6 275.5L394.6 275.5L396.5 275.8L385.2 275.8L385.2 268.8L403.5 268.8L403.5 274.3Q403.5 280.1 401.1 284.2Q398.6 288.3 394.4 290.5Q390.1 292.8 384.6 292.8L384.6 292.8Q378.5 292.8 373.8 290.0Q369.2 287.3 366.6 282.3Q364.0 277.3 364.0 270.4L364.0 270.4Q364.0 265.1 365.6 260.9Q367.1 256.7 369.9 253.9Q372.7 251.0 376.4 249.4Q380.1 247.9 384.4 247.9L384.4 247.9Q388.1 247.9 391.3 249.0Q394.5 250.1 397.0 252.0Q399.5 254.0 401.1 256.7Q402.7 259.4 403.1 262.6L403.1 262.6ZM423.0 292.8L423.0 292.8Q418.1 292.8 414.5 290.7Q410.9 288.6 408.9 284.8Q406.9 281.0 406.9 275.9L406.9 275.9Q406.9 270.9 408.9 267.1Q410.9 263.2 414.5 261.1Q418.1 259.0 423.0 259.0L423.0 259.0Q428.0 259.0 431.6 261.1Q435.2 263.2 437.2 267.1Q439.2 270.9 439.2 275.9L439.2 275.9Q439.2 281.0 437.2 284.8Q435.2 288.6 431.6 290.7Q428.0 292.8 423.0 292.8ZM423.1 285.8L423.1 285.8Q425.3 285.8 426.9 284.5Q428.4 283.2 429.2 281.0Q429.9 278.7 429.9 275.9L429.9 275.9Q429.9 273.0 429.2 270.8Q428.4 268.5 426.9 267.2Q425.3 265.9 423.1 265.9L423.1 265.9Q420.8 265.9 419.3 267.2Q417.7 268.5 416.9 270.8Q416.2 273.0 416.2 275.9L416.2 275.9Q416.2 278.7 416.9 281.0Q417.7 283.2 419.3 284.5Q420.8 285.8 423.1 285.8Z "/></clipPath><defs><pattern id="satori_pattern_id-2_0" x="0" y="0" width="1" height="1" patternUnits="objectBoundingBox"><linearGradient id="satori_biid-2_0" x1="0" y1="0" x2="1" y2="0"><stop offset="0%" stop-color="rgb(255,77,77)"/><stop offset="100%" stop-color="rgb(249,203,40)"/></linearGradient><rect x="0" y="0" width="78" height="73" fill="url(#satori_biid-2_0)"/></pattern></defs><mask id="satori_om-id-2"><rect x="361" y="236" width="78" height="73" fill="#fff"/></mask><rect x="361" y="236" width="78" height="73" fill="url(#satori_pattern_id-2_0)" clip-path="url(#satori_bct-id-2)"/></svg>